<svg version="1.2" xmlns="http://www.w3.org/2000/svg" xmlns:xlink="http://www.w3.org/1999/xlink" overflow="visible" preserveAspectRatio="none" viewBox="0 0 12 20" width="12" height="20"><g transform="translate(0, 0)"><defs><path id="path-1690010315834443" d="M25.201697312588404 30.636922082120922 C25.201697312588404 30.636922082120922 23.28033946251768 28.806983511154225 23.28033946251768 28.806983511154225 C23.28033946251768 28.806983511154225 32.00452616690241 20.49789848043971 32.00452616690241 20.49789848043971 C32.00452616690241 20.49789848043971 23.572277227722772 12.46686065308762 23.572277227722772 12.46686065308762 C23.572277227722772 12.46686065308762 25.493635077793492 10.636922082120922 25.493635077793492 10.636922082120922 C25.493635077793492 10.636922082120922 34.88316831683168 19.579696087940516 34.88316831683168 19.579696087940516 C35.412729844413015 20.0840607824119 35.412729844413015 20.905269964435824 34.88316831683168 21.409634658907212 C34.88316831683168 21.409634658907212 25.201697312588404 30.630455868089236 25.201697312588404 30.630455868089236 C25.201697312588404 30.630455868089236 25.201697312588404 30.636922082120922 25.201697312588404 30.636922082120922 Z" vector-effect="non-scaling-stroke"/></defs><g transform="translate(-23.28033946251768, -10.636922082120922)"><path d="M25.201697312588404 30.636922082120922 C25.201697312588404 30.636922082120922 23.28033946251768 28.806983511154225 23.28033946251768 28.806983511154225 C23.28033946251768 28.806983511154225 32.00452616690241 20.49789848043971 32.00452616690241 20.49789848043971 C32.00452616690241 20.49789848043971 23.572277227722772 12.46686065308762 23.572277227722772 12.46686065308762 C23.572277227722772 12.46686065308762 25.493635077793492 10.636922082120922 25.493635077793492 10.636922082120922 C25.493635077793492 10.636922082120922 34.88316831683168 19.579696087940516 34.88316831683168 19.579696087940516 C35.412729844413015 20.0840607824119 35.412729844413015 20.905269964435824 34.88316831683168 21.409634658907212 C34.88316831683168 21.409634658907212 25.201697312588404 30.630455868089236 25.201697312588404 30.630455868089236 C25.201697312588404 30.630455868089236 25.201697312588404 30.636922082120922 25.201697312588404 30.636922082120922 Z" style="stroke-width: 0; stroke-linecap: butt; stroke-linejoin: miter; fill: rgb(69, 128, 192);" vector-effect="non-scaling-stroke"/></g></g></svg>