<svg version="1.2" xmlns="http://www.w3.org/2000/svg" xmlns:xlink="http://www.w3.org/1999/xlink" overflow="visible" preserveAspectRatio="none" viewBox="0 0 44 200" width="44" height="200"><g transform="translate(0, 0)"><defs><path id="path-16818800607071711" d="M36.94317959625203 279.4924163427381 C36.94317959625203 279.4924163427381 36.24609467863479 259.18775377622285 36.24609467863479 259.18775377622285 C71.50265371949773 256.24881087120775 72.56506993356207 221.5262720007888 72.56506993356207 221.5262720007888 C51.58428390367554 243.83930562936973 41.6463751724953 238.8484870515552 36.24609467863479 236.83561730150578 C36.24609467863479 236.83561730150578 36.30186147204416 94.79941063969181 36.30186147204416 94.79941063969181 C36.30186147204416 90.5746802137326 32.8357788628042 87.14591349121496 28.565069933562068 87.14591349121496 C28.565069933562068 87.14591349121496 29.206388057769924 287.1459134912149 29.206388057769924 287.1459134912149 C33.47709698701206 287.1459134912149 36.94317959625203 283.7171467686973 36.94317959625203 279.4924163427381 Z" vector-effect="non-scaling-stroke"/></defs><g transform="translate(-28.565069933562068, -87.14591349121496)"><path d="M36.94317959625203 279.4924163427381 C36.94317959625203 279.4924163427381 36.24609467863479 259.18775377622285 36.24609467863479 259.18775377622285 C71.50265371949773 256.24881087120775 72.56506993356207 221.5262720007888 72.56506993356207 221.5262720007888 C51.58428390367554 243.83930562936973 41.6463751724953 238.8484870515552 36.24609467863479 236.83561730150578 C36.24609467863479 236.83561730150578 36.30186147204416 94.79941063969181 36.30186147204416 94.79941063969181 C36.30186147204416 90.5746802137326 32.8357788628042 87.14591349121496 28.565069933562068 87.14591349121496 C28.565069933562068 87.14591349121496 29.206388057769924 287.1459134912149 29.206388057769924 287.1459134912149 C33.47709698701206 287.1459134912149 36.94317959625203 283.7171467686973 36.94317959625203 279.4924163427381 Z" style="stroke-width: 0; stroke-linecap: butt; stroke-linejoin: miter; fill: rgb(223, 226, 240);" vector-effect="non-scaling-stroke"/></g></g></svg>