<svg height="600" overflow="visible" viewBox="0 0 591 600" width="591" xmlns="http://www.w3.org/2000/svg"><g><defs><path id="path-16817933303961554" d="M1662.5644132653006 637.3831775700937 C1662.5644132653006 483.73831775700955 1788.453443877545 358.87850467289735 1943.3647959183609 358.87850467289735 C1956.556760204075 358.87850467289735 2032.5047831632587 362.8037383177572 2086.2149234693807 397.7570093457945 C2089.418686224483 399.62616822429925 2092.433992346932 401.49532710280386 2095.637755102033 403.551401869159 C2095.637755102033 403.551401869159 2182.3278061224414 299.2523364485982 2182.3278061224414 299.2523364485982 C2123.906249999993 251.40186915887855 2050.031249999993 225.23364485981315 1974.2716836734626 225.23364485981315 C1793.9186862244835 225.23364485981315 1647.2994260204023 370.6542056074767 1647.2994260204023 549.5327102803739 C1647.2994260204023 583.7383177570096 1652.7646683673415 616.6355140186918 1662.5644132653006 647.6635514018695 C1662.5644132653006 644.2990654205611 1662.3759566326476 640.9345794392526 1662.3759566326476 637.570093457944" vector-effect="non-scaling-stroke"/></defs> <path style="stroke-width: 0; stroke-linecap: butt; stroke-linejoin: miter; fill: rgb(68, 149, 235);" d="M15.264987244898293 412.1495327102806 C15.264987244898293 258.50467289719643 141.15401785714266 133.6448598130842 296.0653698979586 133.6448598130842 C309.2573341836728 133.6448598130842 385.2053571428564 137.57009345794407 438.9154974489784 172.52336448598132 C442.11926020408055 174.3925233644861 445.1345663265297 176.2616822429907 448.33832908163095 178.31775700934588 C448.33832908163095 178.31775700934588 535.0283801020391 74.01869158878506 535.0283801020391 74.01869158878506 C476.6068239795909 26.1682242990654 402.7318239795909 0 326.9722576530603 0 C146.61926020408123 0 0 145.42056074766353 0 324.29906542056074 C0 358.50467289719643 5.465242346939249 391.40186915887864 15.264987244898293 422.4299065420564 C15.264987244898293 419.06542056074795 15.076530612245278 415.7009345794395 15.076530612245278 412.3364485981309" vector-effect="non-scaling-stroke"/></g><g><defs><path id="path-16817933303951552" d="M1966.9218749999964 537.7570093457947 C1966.9218749999964 537.7570093457947 1966.9218749999964 650.6542056074773 1966.9218749999964 650.6542056074773 C1966.9218749999964 650.6542056074773 2059.8309948979554 650.6542056074773 2059.8309948979554 650.6542056074773 C2032.1278698979554 689.5327102803743 1986.3329081632612 715.1401869158884 1934.6957908163226 715.1401869158884 C1850.2672193877513 715.1401869158884 1781.480548469384 646.9158878504679 1781.480548469384 563.1775700934584 C1781.480548469384 516.6355140186919 1802.5876913265274 475.1401869158882 1835.944515306119 447.1028037383181 C1760.5618622448944 476.4485981308414 1707.0401785714255 549.1588785046733 1707.0401785714255 634.205607476636 C1707.0401785714255 669.5327102803743 1716.274553571425 702.6168224299068 1732.4818239795884 731.5887850467294 C1780.915178571425 788.7850467289727 1853.6594387755067 825.2336448598135 1934.6957908163226 825.2336448598135 C2009.1361607142812 825.2336448598135 2076.4151785714243 794.5794392523368 2124.4716198979554 745.2336448598135 C2124.4716198979554 745.2336448598135 2124.4716198979554 823.1775700934585 2124.4716198979554 823.1775700934585 C2124.4716198979554 823.1775700934585 2238.299426020404 823.1775700934585 2238.299426020404 823.1775700934585 C2238.299426020404 823.1775700934585 2238.299426020404 537.7570093457947 2238.299426020404 537.7570093457947 C2238.299426020404 537.7570093457947 1966.7334183673436 537.7570093457947 1966.7334183673436 537.7570093457947 C1966.7334183673436 537.7570093457947 1966.9218749999964 537.7570093457947 1966.9218749999964 537.7570093457947 Z" vector-effect="non-scaling-stroke"/></defs> <path style="stroke-width: 0; stroke-linecap: butt; stroke-linejoin: miter; fill: rgb(68, 149, 235);" d="M319.62244897959204 312.5233644859811 C319.62244897959204 312.5233644859811 319.62244897959204 425.42056074766367 319.62244897959204 425.42056074766367 C319.62244897959204 425.42056074766367 412.5315688775511 425.42056074766367 412.5315688775511 425.42056074766367 C384.8284438775511 464.29906542056074 339.0334821428569 489.90654205607484 287.3963647959183 489.90654205607484 C202.96779336734699 489.90654205607484 134.18112244897975 421.68224299065434 134.18112244897975 337.9439252336448 C134.18112244897975 291.4018691588783 155.2882653061231 249.9065420560746 188.64508928571468 221.8691588785045 C113.2624362244901 251.2149532710278 59.74075255102116 323.92523364485976 59.74075255102116 408.97196261682245 C59.74075255102116 444.29906542056074 68.9751275510207 477.38317757009327 85.18239795918407 506.35514018691583 C133.6157525510207 563.5514018691591 206.3600127551024 599.9999999999999 287.3963647959183 599.9999999999999 C361.8367346938769 599.9999999999999 429.11575255102 569.3457943925232 477.1721938775511 519.9999999999999 C477.1721938775511 519.9999999999999 477.1721938775511 597.9439252336449 477.1721938775511 597.9439252336449 C477.1721938775511 597.9439252336449 590.9999999999998 597.9439252336449 590.9999999999998 597.9439252336449 C590.9999999999998 597.9439252336449 590.9999999999998 312.5233644859811 590.9999999999998 312.5233644859811 C590.9999999999998 312.5233644859811 319.43399234693925 312.5233644859811 319.43399234693925 312.5233644859811 C319.43399234693925 312.5233644859811 319.62244897959204 312.5233644859811 319.62244897959204 312.5233644859811 Z" vector-effect="non-scaling-stroke"/></g></svg>