<svg height="7056" overflow="visible" viewBox="-1 0 1599.999999999999 7056" width="1599.999999999999" xmlns="http://www.w3.org/2000/svg"><g><defs><path id="path-16814510699801793" d="M0 0 C0 0 1439.999999999999 0 1439.999999999999 0 C1439.999999999999 0 1439.999999999999 7006.000000000011 1439.999999999999 7006.000000000011 C1439.999999999999 7006.000000000011 0 7006.000000000011 0 7006.000000000011 C0 7006.000000000011 0 0 0 0 Z" vector-effect="non-scaling-stroke"/></defs> <path style="stroke: rgb(140, 140, 140); stroke-width: 0; stroke-linecap: butt; stroke-linejoin: miter; fill: rgb(29, 34, 70);" d="M0.9999999999992042 50 C0.9999999999992042 50 1440.9999999999982 50 1440.9999999999982 50 C1440.9999999999982 50 1440.9999999999982 7056.000000000011 1440.9999999999982 7056.000000000011 C1440.9999999999982 7056.000000000011 0.9999999999992042 7056.000000000011 0.9999999999992042 7056.000000000011 C0.9999999999992042 7056.000000000011 0.9999999999992042 50 0.9999999999992042 50 Z" vector-effect="non-scaling-stroke"/></g><g><defs><path id="path-16814510699791791" d="M0 0 C0 0 800 0 800 0 C800 0 800 800.0000000000006 800 800.0000000000006 C800 800.0000000000006 0 800.0000000000006 0 800.0000000000006 C0 800.0000000000006 0 0 0 0 Z" vector-effect="non-scaling-stroke"/><radialGradient id="gradient-16814510700531839" vector-effect="non-scaling-stroke"><stop offset="0%" stop-color="rgb(72,129,191)" stop-opacity="1" vector-effect="non-scaling-stroke"/><stop offset="100%" stop-color="rgb(29,34,70)" stop-opacity="1" vector-effect="non-scaling-stroke"/></radialGradient></defs> <path style="stroke: rgb(140, 140, 140); stroke-width: 0; stroke-linecap: butt; stroke-linejoin: miter; fill: url(&quot;#gradient-16814510700531839&quot;);" d="M320.99999999999926 0 C320.99999999999926 0 1120.9999999999993 0 1120.9999999999993 0 C1120.9999999999993 0 1120.9999999999993 800.0000000000006 1120.9999999999993 800.0000000000006 C1120.9999999999993 800.0000000000006 320.99999999999926 800.0000000000006 320.99999999999926 800.0000000000006 C320.99999999999926 800.0000000000006 320.99999999999926 0 320.99999999999926 0 Z" vector-effect="non-scaling-stroke"/></g><g><defs><path id="path-16814510698871584" d="M1662.5644132653006 637.3831775700937 C1662.5644132653006 483.73831775700955 1788.453443877545 358.87850467289735 1943.3647959183609 358.87850467289735 C1956.556760204075 358.87850467289735 2032.5047831632587 362.8037383177572 2086.2149234693807 397.7570093457945 C2089.418686224483 399.62616822429925 2092.433992346932 401.49532710280386 2095.637755102033 403.551401869159 C2095.637755102033 403.551401869159 2182.3278061224414 299.2523364485982 2182.3278061224414 299.2523364485982 C2123.906249999993 251.40186915887855 2050.031249999993 225.23364485981315 1974.2716836734626 225.23364485981315 C1793.9186862244835 225.23364485981315 1647.2994260204023 370.6542056074767 1647.2994260204023 549.5327102803739 C1647.2994260204023 583.7383177570096 1652.7646683673415 616.6355140186918 1662.5644132653006 647.6635514018695 C1662.5644132653006 644.2990654205611 1662.3759566326476 640.9345794392526 1662.3759566326476 637.570093457944" vector-effect="non-scaling-stroke"/></defs> <path style="stroke-width: 0; stroke-linecap: butt; stroke-linejoin: miter; fill: rgb(68, 149, 235);" d="M441.2649872448976 541.1495327102806 C441.2649872448976 387.50467289719643 567.154017857142 262.64485981308417 722.0653698979579 262.64485981308417 C735.2573341836721 262.64485981308417 811.2053571428557 266.57009345794404 864.9154974489777 301.52336448598135 C868.1192602040799 303.3925233644861 871.134566326529 305.2616822429907 874.3383290816303 307.3177570093459 C874.3383290816303 307.3177570093459 961.0283801020385 203.01869158878506 961.0283801020385 203.01869158878506 C902.6068239795902 155.1682242990654 828.7318239795902 129 752.9722576530596 129 C572.6192602040805 129 425.9999999999993 274.42056074766356 425.9999999999993 453.29906542056074 C425.9999999999993 487.50467289719643 431.46524234693857 520.4018691588786 441.2649872448976 551.4299065420564 C441.2649872448976 548.065420560748 441.0765306122446 544.7009345794395 441.0765306122446 541.3364485981309" vector-effect="non-scaling-stroke"/></g><g><defs><path id="path-16814510698871582" d="M1966.9218749999964 537.7570093457947 C1966.9218749999964 537.7570093457947 1966.9218749999964 650.6542056074773 1966.9218749999964 650.6542056074773 C1966.9218749999964 650.6542056074773 2059.8309948979554 650.6542056074773 2059.8309948979554 650.6542056074773 C2032.1278698979554 689.5327102803743 1986.3329081632612 715.1401869158884 1934.6957908163226 715.1401869158884 C1850.2672193877513 715.1401869158884 1781.480548469384 646.9158878504679 1781.480548469384 563.1775700934584 C1781.480548469384 516.6355140186919 1802.5876913265274 475.1401869158882 1835.944515306119 447.1028037383181 C1760.5618622448944 476.4485981308414 1707.0401785714255 549.1588785046733 1707.0401785714255 634.205607476636 C1707.0401785714255 669.5327102803743 1716.274553571425 702.6168224299068 1732.4818239795884 731.5887850467294 C1780.915178571425 788.7850467289727 1853.6594387755067 825.2336448598135 1934.6957908163226 825.2336448598135 C2009.1361607142812 825.2336448598135 2076.4151785714243 794.5794392523368 2124.4716198979554 745.2336448598135 C2124.4716198979554 745.2336448598135 2124.4716198979554 823.1775700934585 2124.4716198979554 823.1775700934585 C2124.4716198979554 823.1775700934585 2238.299426020404 823.1775700934585 2238.299426020404 823.1775700934585 C2238.299426020404 823.1775700934585 2238.299426020404 537.7570093457947 2238.299426020404 537.7570093457947 C2238.299426020404 537.7570093457947 1966.7334183673436 537.7570093457947 1966.7334183673436 537.7570093457947 C1966.7334183673436 537.7570093457947 1966.9218749999964 537.7570093457947 1966.9218749999964 537.7570093457947 Z" vector-effect="non-scaling-stroke"/></defs> <path style="stroke-width: 0; stroke-linecap: butt; stroke-linejoin: miter; fill: rgb(68, 149, 235);" d="M745.6224489795914 441.5233644859811 C745.6224489795914 441.5233644859811 745.6224489795914 554.4205607476637 745.6224489795914 554.4205607476637 C745.6224489795914 554.4205607476637 838.5315688775504 554.4205607476637 838.5315688775504 554.4205607476637 C810.8284438775504 593.2990654205607 765.0334821428562 618.9065420560748 713.3963647959176 618.9065420560748 C628.9677933673463 618.9065420560748 560.1811224489791 550.6822429906543 560.1811224489791 466.9439252336448 C560.1811224489791 420.4018691588783 581.2882653061224 378.9065420560746 614.645089285714 350.8691588785045 C539.2624362244894 380.2149532710278 485.7407525510205 452.92523364485976 485.7407525510205 537.9719626168225 C485.7407525510205 573.2990654205607 494.97512755102 606.3831775700933 511.1823979591834 635.3551401869158 C559.61575255102 692.5514018691591 632.3600127551017 728.9999999999999 713.3963647959176 728.9999999999999 C787.8367346938762 728.9999999999999 855.1157525510193 698.3457943925232 903.1721938775504 648.9999999999999 C903.1721938775504 648.9999999999999 903.1721938775504 726.9439252336449 903.1721938775504 726.9439252336449 C903.1721938775504 726.9439252336449 1016.9999999999991 726.9439252336449 1016.9999999999991 726.9439252336449 C1016.9999999999991 726.9439252336449 1016.9999999999991 441.5233644859811 1016.9999999999991 441.5233644859811 C1016.9999999999991 441.5233644859811 745.4339923469386 441.5233644859811 745.4339923469386 441.5233644859811 C745.4339923469386 441.5233644859811 745.6224489795914 441.5233644859811 745.6224489795914 441.5233644859811 Z" vector-effect="non-scaling-stroke"/></g><g><defs><path id="path-16814510698871580" d="M-1152 -509.5084745762719 C-1152 -509.5084745762719 -1152 4718.49152542373 -1152 4718.49152542373" vector-effect="non-scaling-stroke"/></defs> <path style="stroke: rgb(72, 129, 191); stroke-width: 1; stroke-linecap: butt; stroke-linejoin: miter; fill: none;" d="M0.9999999999993179 50 C0.9999999999993179 50 0.9999999999993179 5278.000000000002 0.9999999999993179 5278.000000000002" vector-effect="non-scaling-stroke"/></g><g><defs><path id="path-16814510698861577" d="M-1152 -509.5084745762719 C-1152 -509.5084745762719 -1152 4718.49152542373 -1152 4718.49152542373" vector-effect="non-scaling-stroke"/></defs> <path style="stroke: rgb(72, 129, 191); stroke-width: 1; stroke-linecap: butt; stroke-linejoin: miter; fill: none;" d="M47.99999999999932 50 C47.99999999999932 50 47.99999999999932 5278.000000000002 47.99999999999932 5278.000000000002" vector-effect="non-scaling-stroke"/></g><g><defs><path id="path-16814510698861574" d="M-1152 -509.5084745762719 C-1152 -509.5084745762719 -1152 4718.49152542373 -1152 4718.49152542373" vector-effect="non-scaling-stroke"/></defs> <path style="stroke: rgb(72, 129, 191); stroke-width: 1; stroke-linecap: butt; stroke-linejoin: miter; fill: none;" d="M94.99999999999932 50 C94.99999999999932 50 94.99999999999932 5278.000000000002 94.99999999999932 5278.000000000002" vector-effect="non-scaling-stroke"/></g><g><defs><path id="path-16814510698851571" d="M-1152 -509.5084745762719 C-1152 -509.5084745762719 -1152 4718.49152542373 -1152 4718.49152542373" vector-effect="non-scaling-stroke"/></defs> <path style="stroke: rgb(72, 129, 191); stroke-width: 1; stroke-linecap: butt; stroke-linejoin: miter; fill: none;" d="M141.99999999999932 50 C141.99999999999932 50 141.99999999999932 5278.000000000002 141.99999999999932 5278.000000000002" vector-effect="non-scaling-stroke"/></g><g><defs><path id="path-16814510698851568" d="M-1152 -509.5084745762719 C-1152 -509.5084745762719 -1152 4718.49152542373 -1152 4718.49152542373" vector-effect="non-scaling-stroke"/></defs> <path style="stroke: rgb(72, 129, 191); stroke-width: 1; stroke-linecap: butt; stroke-linejoin: miter; fill: none;" d="M188.99999999999932 50 C188.99999999999932 50 188.99999999999932 5278.000000000002 188.99999999999932 5278.000000000002" vector-effect="non-scaling-stroke"/></g><g><defs><path id="path-16814510698841565" d="M-1152 -509.5084745762719 C-1152 -509.5084745762719 -1152 4718.49152542373 -1152 4718.49152542373" vector-effect="non-scaling-stroke"/></defs> <path style="stroke: rgb(72, 129, 191); stroke-width: 1; stroke-linecap: butt; stroke-linejoin: miter; fill: none;" d="M235.99999999999932 50 C235.99999999999932 50 235.99999999999932 5278.000000000002 235.99999999999932 5278.000000000002" vector-effect="non-scaling-stroke"/></g><g><defs><path id="path-16814510698841562" d="M-1152 -509.5084745762719 C-1152 -509.5084745762719 -1152 4718.49152542373 -1152 4718.49152542373" vector-effect="non-scaling-stroke"/></defs> <path style="stroke: rgb(72, 129, 191); stroke-width: 1; stroke-linecap: butt; stroke-linejoin: miter; fill: none;" d="M282.9999999999991 50 C282.9999999999991 50 282.9999999999991 5278.000000000002 282.9999999999991 5278.000000000002" vector-effect="non-scaling-stroke"/></g><g><defs><path id="path-16814510698831559" d="M-1152 -509.5084745762719 C-1152 -509.5084745762719 -1152 4718.49152542373 -1152 4718.49152542373" vector-effect="non-scaling-stroke"/></defs> <path style="stroke: rgb(72, 129, 191); stroke-width: 1; stroke-linecap: butt; stroke-linejoin: miter; fill: none;" d="M328.9999999999993 50 C328.9999999999993 50 328.9999999999993 5278.000000000002 328.9999999999993 5278.000000000002" vector-effect="non-scaling-stroke"/></g><g><defs><path id="path-16814510698831556" d="M-1152 -509.5084745762719 C-1152 -509.5084745762719 -1152 4718.49152542373 -1152 4718.49152542373" vector-effect="non-scaling-stroke"/></defs> <path style="stroke: rgb(72, 129, 191); stroke-width: 1; stroke-linecap: butt; stroke-linejoin: miter; fill: none;" d="M375.9999999999993 50 C375.9999999999993 50 375.9999999999993 5278.000000000002 375.9999999999993 5278.000000000002" vector-effect="non-scaling-stroke"/></g><g><defs><path id="path-16814510698821553" d="M-1152 -509.5084745762719 C-1152 -509.5084745762719 -1152 4718.49152542373 -1152 4718.49152542373" vector-effect="non-scaling-stroke"/></defs> <path style="stroke: rgb(72, 129, 191); stroke-width: 1; stroke-linecap: butt; stroke-linejoin: miter; fill: none;" d="M422.9999999999993 50 C422.9999999999993 50 422.9999999999993 5278.000000000002 422.9999999999993 5278.000000000002" vector-effect="non-scaling-stroke"/></g><g><defs><path id="path-16814510698821550" d="M-1152 -509.5084745762719 C-1152 -509.5084745762719 -1152 4718.49152542373 -1152 4718.49152542373" vector-effect="non-scaling-stroke"/></defs> <path style="stroke: rgb(72, 129, 191); stroke-width: 1; stroke-linecap: butt; stroke-linejoin: miter; fill: none;" d="M469.9999999999993 50 C469.9999999999993 50 469.9999999999993 5278.000000000002 469.9999999999993 5278.000000000002" vector-effect="non-scaling-stroke"/></g><g><defs><path id="path-16814510698821547" d="M-1152 -509.5084745762719 C-1152 -509.5084745762719 -1152 4718.49152542373 -1152 4718.49152542373" vector-effect="non-scaling-stroke"/></defs> <path style="stroke: rgb(72, 129, 191); stroke-width: 1; stroke-linecap: butt; stroke-linejoin: miter; fill: none;" d="M516.9999999999993 50 C516.9999999999993 50 516.9999999999993 5278.000000000002 516.9999999999993 5278.000000000002" vector-effect="non-scaling-stroke"/></g><g><defs><path id="path-16814510698811544" d="M-1152 -509.5084745762719 C-1152 -509.5084745762719 -1152 4718.49152542373 -1152 4718.49152542373" vector-effect="non-scaling-stroke"/></defs> <path style="stroke: rgb(72, 129, 191); stroke-width: 1; stroke-linecap: butt; stroke-linejoin: miter; fill: none;" d="M563.9999999999993 50 C563.9999999999993 50 563.9999999999993 5278.000000000002 563.9999999999993 5278.000000000002" vector-effect="non-scaling-stroke"/></g><g><defs><path id="path-16814510698811541" d="M-1152 -509.5084745762719 C-1152 -509.5084745762719 -1152 4718.49152542373 -1152 4718.49152542373" vector-effect="non-scaling-stroke"/></defs> <path style="stroke: rgb(72, 129, 191); stroke-width: 1; stroke-linecap: butt; stroke-linejoin: miter; fill: none;" d="M610.9999999999993 50 C610.9999999999993 50 610.9999999999993 5278.000000000002 610.9999999999993 5278.000000000002" vector-effect="non-scaling-stroke"/></g><g><defs><path id="path-16814510698801538" d="M-1152 -509.5084745762719 C-1152 -509.5084745762719 -1152 4718.49152542373 -1152 4718.49152542373" vector-effect="non-scaling-stroke"/></defs> <path style="stroke: rgb(72, 129, 191); stroke-width: 1; stroke-linecap: butt; stroke-linejoin: miter; fill: none;" d="M657.9999999999993 50 C657.9999999999993 50 657.9999999999993 5278.000000000002 657.9999999999993 5278.000000000002" vector-effect="non-scaling-stroke"/></g><g><defs><path id="path-16814510698801535" d="M-1152 -509.5084745762719 C-1152 -509.5084745762719 -1152 4718.49152542373 -1152 4718.49152542373" vector-effect="non-scaling-stroke"/></defs> <path style="stroke: rgb(72, 129, 191); stroke-width: 1; stroke-linecap: butt; stroke-linejoin: miter; fill: none;" d="M704.9999999999993 50 C704.9999999999993 50 704.9999999999993 5278.000000000002 704.9999999999993 5278.000000000002" vector-effect="non-scaling-stroke"/></g><g><defs><path id="path-16814510698791532" d="M-1152 -509.5084745762719 C-1152 -509.5084745762719 -1152 4718.49152542373 -1152 4718.49152542373" vector-effect="non-scaling-stroke"/></defs> <path style="stroke: rgb(72, 129, 191); stroke-width: 1; stroke-linecap: butt; stroke-linejoin: miter; fill: none;" d="M751.9999999999993 50 C751.9999999999993 50 751.9999999999993 5278.000000000002 751.9999999999993 5278.000000000002" vector-effect="non-scaling-stroke"/></g><g><defs><path id="path-16814510698781529" d="M-1152 -509.5084745762719 C-1152 -509.5084745762719 -1152 4718.49152542373 -1152 4718.49152542373" vector-effect="non-scaling-stroke"/></defs> <path style="stroke: rgb(72, 129, 191); stroke-width: 1; stroke-linecap: butt; stroke-linejoin: miter; fill: none;" d="M798.9999999999993 50 C798.9999999999993 50 798.9999999999993 5278.000000000002 798.9999999999993 5278.000000000002" vector-effect="non-scaling-stroke"/></g><g><defs><path id="path-16814510698781526" d="M-1152 -509.5084745762719 C-1152 -509.5084745762719 -1152 4718.49152542373 -1152 4718.49152542373" vector-effect="non-scaling-stroke"/></defs> <path style="stroke: rgb(72, 129, 191); stroke-width: 1; stroke-linecap: butt; stroke-linejoin: miter; fill: none;" d="M845.9999999999993 50 C845.9999999999993 50 845.9999999999993 5278.000000000002 845.9999999999993 5278.000000000002" vector-effect="non-scaling-stroke"/></g><g><defs><path id="path-16814510698761523" d="M-1152 -509.5084745762719 C-1152 -509.5084745762719 -1152 4718.49152542373 -1152 4718.49152542373" vector-effect="non-scaling-stroke"/></defs> <path style="stroke: rgb(72, 129, 191); stroke-width: 1; stroke-linecap: butt; stroke-linejoin: miter; fill: none;" d="M892.9999999999993 50 C892.9999999999993 50 892.9999999999993 5278.000000000002 892.9999999999993 5278.000000000002" vector-effect="non-scaling-stroke"/></g><g><defs><path id="path-16814510698751520" d="M-1152 -509.5084745762719 C-1152 -509.5084745762719 -1152 4718.49152542373 -1152 4718.49152542373" vector-effect="non-scaling-stroke"/></defs> <path style="stroke: rgb(72, 129, 191); stroke-width: 1; stroke-linecap: butt; stroke-linejoin: miter; fill: none;" d="M939.9999999999991 50 C939.9999999999991 50 939.9999999999991 5278.000000000002 939.9999999999991 5278.000000000002" vector-effect="non-scaling-stroke"/></g><g><defs><path id="path-16814510698751517" d="M-1152 -509.5084745762719 C-1152 -509.5084745762719 -1152 4718.49152542373 -1152 4718.49152542373" vector-effect="non-scaling-stroke"/></defs> <path style="stroke: rgb(72, 129, 191); stroke-width: 1; stroke-linecap: butt; stroke-linejoin: miter; fill: none;" d="M986.9999999999991 50 C986.9999999999991 50 986.9999999999991 5278.000000000002 986.9999999999991 5278.000000000002" vector-effect="non-scaling-stroke"/></g><g><defs><path id="path-16814510698741514" d="M-1152 -509.5084745762719 C-1152 -509.5084745762719 -1152 4718.49152542373 -1152 4718.49152542373" vector-effect="non-scaling-stroke"/></defs> <path style="stroke: rgb(72, 129, 191); stroke-width: 1; stroke-linecap: butt; stroke-linejoin: miter; fill: none;" d="M1033.999999999999 50 C1033.999999999999 50 1033.999999999999 5278.000000000002 1033.999999999999 5278.000000000002" vector-effect="non-scaling-stroke"/></g><g><defs><path id="path-16814510698741511" d="M-1152 -509.5084745762719 C-1152 -509.5084745762719 -1152 4718.49152542373 -1152 4718.49152542373" vector-effect="non-scaling-stroke"/></defs> <path style="stroke: rgb(72, 129, 191); stroke-width: 1; stroke-linecap: butt; stroke-linejoin: miter; fill: none;" d="M1080.999999999999 50 C1080.999999999999 50 1080.999999999999 5278.000000000002 1080.999999999999 5278.000000000002" vector-effect="non-scaling-stroke"/></g><g><defs><path id="path-16814510698731508" d="M-1152 -509.5084745762719 C-1152 -509.5084745762719 -1152 4718.49152542373 -1152 4718.49152542373" vector-effect="non-scaling-stroke"/></defs> <path style="stroke: rgb(72, 129, 191); stroke-width: 1; stroke-linecap: butt; stroke-linejoin: miter; fill: none;" d="M1127.999999999999 50 C1127.999999999999 50 1127.999999999999 5278.000000000002 1127.999999999999 5278.000000000002" vector-effect="non-scaling-stroke"/></g><g><defs><path id="path-16814510698731505" d="M-1152 -509.5084745762719 C-1152 -509.5084745762719 -1152 4718.49152542373 -1152 4718.49152542373" vector-effect="non-scaling-stroke"/></defs> <path style="stroke: rgb(72, 129, 191); stroke-width: 1; stroke-linecap: butt; stroke-linejoin: miter; fill: none;" d="M1174.999999999999 50 C1174.999999999999 50 1174.999999999999 5278.000000000002 1174.999999999999 5278.000000000002" vector-effect="non-scaling-stroke"/></g><g><defs><path id="path-16814510698731502" d="M-1152 -509.5084745762719 C-1152 -509.5084745762719 -1152 4718.49152542373 -1152 4718.49152542373" vector-effect="non-scaling-stroke"/></defs> <path style="stroke: rgb(72, 129, 191); stroke-width: 1; stroke-linecap: butt; stroke-linejoin: miter; fill: none;" d="M1221.999999999999 50 C1221.999999999999 50 1221.999999999999 5278.000000000002 1221.999999999999 5278.000000000002" vector-effect="non-scaling-stroke"/></g><g><defs><path id="path-16814510698721499" d="M-1152 -509.5084745762719 C-1152 -509.5084745762719 -1152 4718.49152542373 -1152 4718.49152542373" vector-effect="non-scaling-stroke"/></defs> <path style="stroke: rgb(72, 129, 191); stroke-width: 1; stroke-linecap: butt; stroke-linejoin: miter; fill: none;" d="M1268.999999999999 50 C1268.999999999999 50 1268.999999999999 5278.000000000002 1268.999999999999 5278.000000000002" vector-effect="non-scaling-stroke"/></g><g><defs><path id="path-16814510698721496" d="M-1152 -509.5084745762719 C-1152 -509.5084745762719 -1152 4718.49152542373 -1152 4718.49152542373" vector-effect="non-scaling-stroke"/></defs> <path style="stroke: rgb(72, 129, 191); stroke-width: 1; stroke-linecap: butt; stroke-linejoin: miter; fill: none;" d="M1314.999999999999 50 C1314.999999999999 50 1314.999999999999 5278.000000000002 1314.999999999999 5278.000000000002" vector-effect="non-scaling-stroke"/></g><g><defs><path id="path-16814510698711493" d="M-1152 -509.5084745762719 C-1152 -509.5084745762719 -1152 4718.49152542373 -1152 4718.49152542373" vector-effect="non-scaling-stroke"/></defs> <path style="stroke: rgb(72, 129, 191); stroke-width: 1; stroke-linecap: butt; stroke-linejoin: miter; fill: none;" d="M1361.999999999999 50 C1361.999999999999 50 1361.999999999999 5278.000000000002 1361.999999999999 5278.000000000002" vector-effect="non-scaling-stroke"/></g><g><defs><path id="path-16814510698711490" d="M-1152 -509.5084745762719 C-1152 -509.5084745762719 -1152 4718.49152542373 -1152 4718.49152542373" vector-effect="non-scaling-stroke"/></defs> <path style="stroke: rgb(72, 129, 191); stroke-width: 1; stroke-linecap: butt; stroke-linejoin: miter; fill: none;" d="M1408.999999999999 50 C1408.999999999999 50 1408.999999999999 5278.000000000002 1408.999999999999 5278.000000000002" vector-effect="non-scaling-stroke"/></g><g><defs><path id="path-16814510698701487" d="M-1152 -509.5084745762719 C-1152 -509.5084745762719 -1152 4718.49152542373 -1152 4718.49152542373" vector-effect="non-scaling-stroke"/></defs> <path style="stroke: rgb(72, 129, 191); stroke-width: 1; stroke-linecap: butt; stroke-linejoin: miter; fill: none;" d="M1455.999999999999 50 C1455.999999999999 50 1455.999999999999 5278.000000000002 1455.999999999999 5278.000000000002" vector-effect="non-scaling-stroke"/></g><g><defs><path id="path-16814510698701484" d="M-1152 -509.5084745762719 C-1152 -509.5084745762719 -1152 4718.49152542373 -1152 4718.49152542373" vector-effect="non-scaling-stroke"/></defs> <path style="stroke: rgb(72, 129, 191); stroke-width: 1; stroke-linecap: butt; stroke-linejoin: miter; fill: none;" d="M1502.999999999999 50 C1502.999999999999 50 1502.999999999999 5278.000000000002 1502.999999999999 5278.000000000002" vector-effect="non-scaling-stroke"/></g><g><defs><path id="path-16814510698701481" d="M-1152 -509.5084745762719 C-1152 -509.5084745762719 -1152 4718.49152542373 -1152 4718.49152542373" vector-effect="non-scaling-stroke"/></defs> <path style="stroke: rgb(72, 129, 191); stroke-width: 1; stroke-linecap: butt; stroke-linejoin: miter; fill: none;" d="M1549.999999999999 50 C1549.999999999999 50 1549.999999999999 5278.000000000002 1549.999999999999 5278.000000000002" vector-effect="non-scaling-stroke"/></g><g><defs><path id="path-16814510698691478" d="M-1152 -509.5084745762719 C-1152 -509.5084745762719 -1152 4718.49152542373 -1152 4718.49152542373" vector-effect="non-scaling-stroke"/></defs> <path style="stroke: rgb(72, 129, 191); stroke-width: 1; stroke-linecap: butt; stroke-linejoin: miter; fill: none;" d="M1596.999999999999 50 C1596.999999999999 50 1596.999999999999 5278.000000000002 1596.999999999999 5278.000000000002" vector-effect="non-scaling-stroke"/></g><g><defs><path id="path-16814510698691475" d="M-1151.9999999999995 -140.33898305084742 C-1151.9999999999995 -140.33898305084742 -1151.9999999999995 1299.6610169491519 -1151.9999999999995 1299.6610169491519" vector-effect="non-scaling-stroke"/></defs> <path style="stroke: rgb(72, 129, 191); stroke-width: 1; stroke-linecap: butt; stroke-linejoin: miter; fill: none;" d="M1440.9999999999989 308.9999999999995 C1440.9999999999989 308.9999999999995 0.9999999999995453 308.9999999999996 0.9999999999995453 308.9999999999996" vector-effect="non-scaling-stroke"/></g><g><defs><path id="path-16814510698681472" d="M-1152 -140.3389830508474 C-1152 -140.3389830508474 -1152 1299.6610169491519 -1152 1299.6610169491519" vector-effect="non-scaling-stroke"/></defs> <path style="stroke: rgb(72, 129, 191); stroke-width: 1; stroke-linecap: butt; stroke-linejoin: miter; fill: none;" d="M1440.4999999999993 359.9999999999995 C1440.4999999999993 359.9999999999995 0.5 359.9999999999996 0.5 359.9999999999996" vector-effect="non-scaling-stroke"/></g><g><defs><path id="path-16814510698681469" d="M-1151.9999999999998 -140.33898305084742 C-1151.9999999999998 -140.33898305084742 -1151.9999999999998 1299.661016949152 -1151.9999999999998 1299.661016949152" vector-effect="non-scaling-stroke"/></defs> <path style="stroke: rgb(72, 129, 191); stroke-width: 1; stroke-linecap: butt; stroke-linejoin: miter; fill: none;" d="M1440.4999999999995 410.9999999999995 C1440.4999999999995 410.9999999999995 0.5 410.9999999999996 0.5 410.9999999999996" vector-effect="non-scaling-stroke"/></g><g><defs><path id="path-16814510698671466" d="M-1152.0000000001303 -140.33898305084742 C-1152.0000000001303 -140.33898305084742 -1152.0000000001303 1299.661016949152 -1152.0000000001303 1299.661016949152" vector-effect="non-scaling-stroke"/></defs> <path style="stroke: rgb(72, 129, 191); stroke-width: 1; stroke-linecap: butt; stroke-linejoin: miter; fill: none;" d="M1440.4999999999995 461.99999999999926 C1440.4999999999995 461.99999999999926 0.5 461.9999999999994 0.5 461.9999999999994" vector-effect="non-scaling-stroke"/></g><g><defs><path id="path-16814510698671463" d="M-1152.000000001048 -140.33898305084747 C-1152.000000001048 -140.33898305084747 -1152.000000001048 1299.661016949153 -1152.000000001048 1299.661016949153" vector-effect="non-scaling-stroke"/></defs> <path style="stroke: rgb(72, 129, 191); stroke-width: 1; stroke-linecap: butt; stroke-linejoin: miter; fill: none;" d="M1440.5 512.9999999999995 C1440.5 512.9999999999995 0.49999999999954525 512.9999999999995 0.49999999999954525 512.9999999999995" vector-effect="non-scaling-stroke"/></g><g><defs><path id="path-16814510698671460" d="M-1152.0000000018342 -140.33898305084745 C-1152.0000000018342 -140.33898305084745 -1152.0000000018342 1299.661016949153 -1152.0000000018342 1299.661016949153" vector-effect="non-scaling-stroke"/></defs> <path style="stroke: rgb(72, 129, 191); stroke-width: 1; stroke-linecap: butt; stroke-linejoin: miter; fill: none;" d="M1440.5 563.999999999999 C1440.5 563.999999999999 0.49999999999965894 563.999999999999 0.49999999999965894 563.999999999999" vector-effect="non-scaling-stroke"/></g><g><defs><path id="path-16814510698661457" d="M-1152.0000000015727 -140.33898305084747 C-1152.0000000015727 -140.33898305084747 -1152.0000000015727 1299.661016949153 -1152.0000000015727 1299.661016949153" vector-effect="non-scaling-stroke"/></defs> <path style="stroke: rgb(72, 129, 191); stroke-width: 1; stroke-linecap: butt; stroke-linejoin: miter; fill: none;" d="M1440.5 614.9999999999991 C1440.5 614.9999999999991 0.49999999999954525 614.9999999999991 0.49999999999954525 614.9999999999991" vector-effect="non-scaling-stroke"/></g><g><defs><path id="path-16814510698661454" d="M-1152.0000000007863 -140.33898305084745 C-1152.0000000007863 -140.33898305084745 -1152.0000000007863 1299.6610169491528 -1152.0000000007863 1299.6610169491528" vector-effect="non-scaling-stroke"/></defs> <path style="stroke: rgb(72, 129, 191); stroke-width: 1; stroke-linecap: butt; stroke-linejoin: miter; fill: none;" d="M1440.5 665.999999999999 C1440.5 665.999999999999 0.4999999999998863 665.999999999999 0.4999999999998863 665.999999999999" vector-effect="non-scaling-stroke"/></g><g><defs><path id="path-16814510698651451" d="M-1151.999999999999 -140.33898305084745 C-1151.999999999999 -140.33898305084745 -1151.999999999999 1299.6610169491523 -1151.999999999999 1299.6610169491523" vector-effect="non-scaling-stroke"/></defs> <path style="stroke: rgb(72, 129, 191); stroke-width: 1; stroke-linecap: butt; stroke-linejoin: miter; fill: none;" d="M1441.4999999999984 3.000000000000071 C1441.4999999999984 3.000000000000071 1.4999999999986358 3.0000000000001563 1.4999999999986358 3.0000000000001563" vector-effect="non-scaling-stroke"/></g><g><defs><path id="path-16814510698651448" d="M-1151.9999999998686 -140.33898305084745 C-1151.9999999998686 -140.33898305084745 -1151.9999999998686 1299.6610169491523 -1151.9999999998686 1299.6610169491523" vector-effect="non-scaling-stroke"/></defs> <path style="stroke: rgb(72, 129, 191); stroke-width: 1; stroke-linecap: butt; stroke-linejoin: miter; fill: none;" d="M1441.4999999999984 53.99999999999973 C1441.4999999999984 53.99999999999973 1.4999999999986358 53.999999999999815 1.4999999999986358 53.999999999999815" vector-effect="non-scaling-stroke"/></g><g><defs><path id="path-16814510698641445" d="M-1152.0000000002613 -140.33898305084745 C-1152.0000000002613 -140.33898305084745 -1152.0000000002613 1299.6610169491523 -1152.0000000002613 1299.6610169491523" vector-effect="non-scaling-stroke"/></defs> <path style="stroke: rgb(72, 129, 191); stroke-width: 1; stroke-linecap: butt; stroke-linejoin: miter; fill: none;" d="M1441.4999999999984 104.99999999999962 C1441.4999999999984 104.99999999999962 1.4999999999986358 104.9999999999997 1.4999999999986358 104.9999999999997" vector-effect="non-scaling-stroke"/></g><g><defs><path id="path-16814510698641442" d="M-1152.0000000005246 -140.33898305084745 C-1152.0000000005246 -140.33898305084745 -1152.0000000005246 1299.6610169491523 -1152.0000000005246 1299.6610169491523" vector-effect="non-scaling-stroke"/></defs> <path style="stroke: rgb(72, 129, 191); stroke-width: 1; stroke-linecap: butt; stroke-linejoin: miter; fill: none;" d="M1440.4999999999998 155.9999999999995 C1440.4999999999998 155.9999999999995 0.5 155.9999999999996 0.5 155.9999999999996" vector-effect="non-scaling-stroke"/></g><g><defs><path id="path-16814510698631439" d="M-1152 -140.33898305084745 C-1152 -140.33898305084745 -1152 1299.6610169491523 -1152 1299.6610169491523" vector-effect="non-scaling-stroke"/></defs> <path style="stroke: rgb(72, 129, 191); stroke-width: 1; stroke-linecap: butt; stroke-linejoin: miter; fill: none;" d="M1440.4999999999998 206.9999999999995 C1440.4999999999998 206.9999999999995 0.5 206.9999999999996 0.5 206.9999999999996" vector-effect="non-scaling-stroke"/></g><g><defs><path id="path-16814510698631436" d="M-1151.9999999999995 -140.33898305084742 C-1151.9999999999995 -140.33898305084742 -1151.9999999999995 1299.661016949152 -1151.9999999999995 1299.661016949152" vector-effect="non-scaling-stroke"/></defs> <path style="stroke: rgb(72, 129, 191); stroke-width: 1; stroke-linecap: butt; stroke-linejoin: miter; fill: none;" d="M1440.999999999999 257.9999999999995 C1440.999999999999 257.9999999999995 0.9999999999995453 257.9999999999996 0.9999999999995453 257.9999999999996" vector-effect="non-scaling-stroke"/></g><g><defs><path id="path-16814510698621433" d="M-1330.6987951810015 -140.3389830508475 C-1330.6987951810015 -140.3389830508475 -1330.6987951810015 1299.6610169491526 -1330.6987951810015 1299.6610169491526" vector-effect="non-scaling-stroke"/></defs> <path style="stroke: rgb(72, 129, 191); stroke-width: 1; stroke-linecap: butt; stroke-linejoin: miter; fill: none;" d="M1441.4999999999989 1180.466867469879 C1441.4999999999989 1180.466867469879 1.4999999999988631 1180.466867469879 1.4999999999988631 1180.466867469879" vector-effect="non-scaling-stroke"/></g><g><defs><path id="path-16814510698621430" d="M-1330.6987951810006 -140.33898305084747 C-1330.6987951810006 -140.33898305084747 -1330.6987951810006 1299.6610169491523 -1330.6987951810006 1299.6610169491523" vector-effect="non-scaling-stroke"/></defs> <path style="stroke: rgb(72, 129, 191); stroke-width: 1; stroke-linecap: butt; stroke-linejoin: miter; fill: none;" d="M1441.4999999999986 1239.3780120481922 C1441.4999999999986 1239.3780120481922 1.4999999999988631 1239.3780120481922 1.4999999999988631 1239.3780120481922" vector-effect="non-scaling-stroke"/></g><g><defs><path id="path-16814510698611427" d="M-1330.6987951807382 -140.33898305084747 C-1330.6987951807382 -140.33898305084747 -1330.6987951807382 1299.6610169491523 -1330.6987951807382 1299.6610169491523" vector-effect="non-scaling-stroke"/></defs> <path style="stroke: rgb(72, 129, 191); stroke-width: 1; stroke-linecap: butt; stroke-linejoin: miter; fill: none;" d="M1441.4999999999989 1298.2891566265052 C1441.4999999999989 1298.2891566265052 1.4999999999989768 1298.2891566265055 1.4999999999989768 1298.2891566265055" vector-effect="non-scaling-stroke"/></g><g><defs><path id="path-16814510698611424" d="M-1330.6987951804767 -140.33898305084747 C-1330.6987951804767 -140.33898305084747 -1330.6987951804767 1299.6610169491526 -1330.6987951804767 1299.6610169491526" vector-effect="non-scaling-stroke"/></defs> <path style="stroke: rgb(72, 129, 191); stroke-width: 1; stroke-linecap: butt; stroke-linejoin: miter; fill: none;" d="M1441.4999999999986 1357.200301204819 C1441.4999999999986 1357.200301204819 1.4999999999986358 1357.200301204819 1.4999999999986358 1357.200301204819" vector-effect="non-scaling-stroke"/></g><g><defs><path id="path-16814510698601421" d="M-1330.6987951825724 -140.33898305084747 C-1330.6987951825724 -140.33898305084747 -1330.6987951825724 1299.6610169491528 -1330.6987951825724 1299.6610169491528" vector-effect="non-scaling-stroke"/></defs> <path style="stroke: rgb(72, 129, 191); stroke-width: 1; stroke-linecap: butt; stroke-linejoin: miter; fill: none;" d="M1441.499999999999 1416.1114457831322 C1441.499999999999 1416.1114457831322 1.4999999999988631 1416.1114457831322 1.4999999999988631 1416.1114457831322" vector-effect="non-scaling-stroke"/></g><g><defs><path id="path-16814510698601418" d="M-1330.698795182049 -140.33898305084742 C-1330.698795182049 -140.33898305084742 -1330.698795182049 1299.6610169491526 -1330.698795182049 1299.6610169491526" vector-effect="non-scaling-stroke"/></defs> <path style="stroke: rgb(72, 129, 191); stroke-width: 1; stroke-linecap: butt; stroke-linejoin: miter; fill: none;" d="M1441.4999999999986 1475.022590361445 C1441.4999999999986 1475.022590361445 1.4999999999988631 1475.022590361445 1.4999999999988631 1475.022590361445" vector-effect="non-scaling-stroke"/></g><g><defs><path id="path-16814510698601415" d="M-1330.698795182573 -140.33898305084745 C-1330.698795182573 -140.33898305084745 -1330.698795182573 1299.6610169491526 -1330.698795182573 1299.6610169491526" vector-effect="non-scaling-stroke"/></defs> <path style="stroke: rgb(72, 129, 191); stroke-width: 1; stroke-linecap: butt; stroke-linejoin: miter; fill: none;" d="M1441.499999999999 1533.9337349397583 C1441.499999999999 1533.9337349397583 1.4999999999988631 1533.9337349397583 1.4999999999988631 1533.9337349397583" vector-effect="non-scaling-stroke"/></g><g><defs><path id="path-16814510698591412" d="M-1330.6987951815247 -140.33898305084742 C-1330.6987951815247 -140.33898305084742 -1330.6987951815247 1299.6610169491526 -1330.6987951815247 1299.6610169491526" vector-effect="non-scaling-stroke"/></defs> <path style="stroke: rgb(72, 129, 191); stroke-width: 1; stroke-linecap: butt; stroke-linejoin: miter; fill: none;" d="M1441.499999999999 1592.8448795180716 C1441.499999999999 1592.8448795180716 1.4999999999988631 1592.8448795180716 1.4999999999988631 1592.8448795180716" vector-effect="non-scaling-stroke"/></g><g><defs><path id="path-16814510698591409" d="M-1330.6987951807387 -140.33898305084747 C-1330.6987951807387 -140.33898305084747 -1330.6987951807387 1299.6610169491526 -1330.6987951807387 1299.6610169491526" vector-effect="non-scaling-stroke"/></defs> <path style="stroke: rgb(72, 129, 191); stroke-width: 1; stroke-linecap: butt; stroke-linejoin: miter; fill: none;" d="M1441.4999999999986 827.0000000000002 C1441.4999999999986 827.0000000000002 1.4999999999986358 827.0000000000002 1.4999999999986358 827.0000000000002" vector-effect="non-scaling-stroke"/></g><g><defs><path id="path-16814510698581406" d="M-1330.6987951807387 -140.33898305084747 C-1330.6987951807387 -140.33898305084747 -1330.6987951807387 1299.6610169491526 -1330.6987951807387 1299.6610169491526" vector-effect="non-scaling-stroke"/></defs> <path style="stroke: rgb(72, 129, 191); stroke-width: 1; stroke-linecap: butt; stroke-linejoin: miter; fill: none;" d="M1441.4999999999986 885.9111445783134 C1441.4999999999986 885.9111445783134 1.4999999999987494 885.9111445783134 1.4999999999987494 885.9111445783134" vector-effect="non-scaling-stroke"/></g><g><defs><path id="path-16814510698581403" d="M-1330.6987951807387 -140.33898305084747 C-1330.6987951807387 -140.33898305084747 -1330.6987951807387 1299.6610169491523 -1330.6987951807387 1299.6610169491523" vector-effect="non-scaling-stroke"/></defs> <path style="stroke: rgb(72, 129, 191); stroke-width: 1; stroke-linecap: butt; stroke-linejoin: miter; fill: none;" d="M1441.4999999999986 944.8222891566265 C1441.4999999999986 944.8222891566265 1.4999999999990905 944.8222891566265 1.4999999999990905 944.8222891566265" vector-effect="non-scaling-stroke"/></g><g><defs><path id="path-16814510698571400" d="M-1330.698795181131 -140.33898305084747 C-1330.698795181131 -140.33898305084747 -1330.698795181131 1299.6610169491523 -1330.698795181131 1299.6610169491523" vector-effect="non-scaling-stroke"/></defs> <path style="stroke: rgb(72, 129, 191); stroke-width: 1; stroke-linecap: butt; stroke-linejoin: miter; fill: none;" d="M1441.4999999999986 1003.7334337349395 C1441.4999999999986 1003.7334337349395 1.4999999999989768 1003.7334337349395 1.4999999999989768 1003.7334337349395" vector-effect="non-scaling-stroke"/></g><g><defs><path id="path-16814510698571397" d="M-1330.6987951807387 -140.33898305084747 C-1330.6987951807387 -140.33898305084747 -1330.6987951807387 1299.6610169491526 -1330.6987951807387 1299.6610169491526" vector-effect="non-scaling-stroke"/></defs> <path style="stroke: rgb(72, 129, 191); stroke-width: 1; stroke-linecap: butt; stroke-linejoin: miter; fill: none;" d="M1441.4999999999986 1062.6445783132526 C1441.4999999999986 1062.6445783132526 1.4999999999987494 1062.6445783132526 1.4999999999987494 1062.6445783132526" vector-effect="non-scaling-stroke"/></g><g><defs><path id="path-16814510698571394" d="M-1330.6987951804767 -140.33898305084747 C-1330.6987951804767 -140.33898305084747 -1330.6987951804767 1299.6610169491526 -1330.6987951804767 1299.6610169491526" vector-effect="non-scaling-stroke"/></defs> <path style="stroke: rgb(72, 129, 191); stroke-width: 1; stroke-linecap: butt; stroke-linejoin: miter; fill: none;" d="M1441.4999999999986 1121.555722891566 C1441.4999999999986 1121.555722891566 1.4999999999986358 1121.555722891566 1.4999999999986358 1121.555722891566" vector-effect="non-scaling-stroke"/></g><g><defs><path id="path-16814510698561391" d="M-1330.5318107666678 -140.33898305084747 C-1330.5318107666678 -140.33898305084747 -1330.5318107666678 1299.6610169491523 -1330.5318107666678 1299.6610169491523" vector-effect="non-scaling-stroke"/></defs> <path style="stroke: rgb(72, 129, 191); stroke-width: 1; stroke-linecap: butt; stroke-linejoin: miter; fill: none;" d="M1441.9999999999984 1946.518760195758 C1441.9999999999984 1946.518760195758 1.9999999999986358 1946.518760195758 1.9999999999986358 1946.518760195758" vector-effect="non-scaling-stroke"/></g><g><defs><path id="path-16814510698561388" d="M-1330.531810766668 -140.33898305084747 C-1330.531810766668 -140.33898305084747 -1330.531810766668 1299.6610169491526 -1330.531810766668 1299.6610169491526" vector-effect="non-scaling-stroke"/></defs> <path style="stroke: rgb(72, 129, 191); stroke-width: 1; stroke-linecap: butt; stroke-linejoin: miter; fill: none;" d="M1440.9999999999995 2005.42251223491 C1440.9999999999995 2005.42251223491 0.9999999999997726 2005.42251223491 0.9999999999997726 2005.42251223491" vector-effect="non-scaling-stroke"/></g><g><defs><path id="path-16814510698551385" d="M-1330.531810766668 -140.33898305084747 C-1330.531810766668 -140.33898305084747 -1330.531810766668 1299.6610169491526 -1330.531810766668 1299.6610169491526" vector-effect="non-scaling-stroke"/></defs> <path style="stroke: rgb(72, 129, 191); stroke-width: 1; stroke-linecap: butt; stroke-linejoin: miter; fill: none;" d="M1440.9999999999998 2064.3262642740615 C1440.9999999999998 2064.3262642740615 0.9999999999995453 2064.3262642740615 0.9999999999995453 2064.3262642740615" vector-effect="non-scaling-stroke"/></g><g><defs><path id="path-16814510698551382" d="M-1330.5318107669295 -140.33898305084747 C-1330.5318107669295 -140.33898305084747 -1330.5318107669295 1299.6610169491526 -1330.5318107669295 1299.6610169491526" vector-effect="non-scaling-stroke"/></defs> <path style="stroke: rgb(72, 129, 191); stroke-width: 1; stroke-linecap: butt; stroke-linejoin: miter; fill: none;" d="M1440.9999999999998 2123.230016313213 C1440.9999999999998 2123.230016313213 1 2123.230016313213 1 2123.230016313213" vector-effect="non-scaling-stroke"/></g><g><defs><path id="path-16814510698541379" d="M-1330.5318107685018 -140.33898305084747 C-1330.5318107685018 -140.33898305084747 -1330.5318107685018 1299.6610169491526 -1330.5318107685018 1299.6610169491526" vector-effect="non-scaling-stroke"/></defs> <path style="stroke: rgb(72, 129, 191); stroke-width: 1; stroke-linecap: butt; stroke-linejoin: miter; fill: none;" d="M1441.0000000000007 2182.133768352364 C1441.0000000000007 2182.133768352364 1.0000000000009095 2182.1337683523643 1.0000000000009095 2182.1337683523643" vector-effect="non-scaling-stroke"/></g><g><defs><path id="path-16814510698541376" d="M-1330.5318107679777 -140.33898305084745 C-1330.5318107679777 -140.33898305084745 -1330.5318107679777 1299.6610169491526 -1330.5318107679777 1299.6610169491526" vector-effect="non-scaling-stroke"/></defs> <path style="stroke: rgb(72, 129, 191); stroke-width: 1; stroke-linecap: butt; stroke-linejoin: miter; fill: none;" d="M1441.000000000001 2241.0375203915164 C1441.000000000001 2241.0375203915164 1.0000000000009095 2241.0375203915164 1.0000000000009095 2241.0375203915164" vector-effect="non-scaling-stroke"/></g><g><defs><path id="path-16814510698541373" d="M-1330.5318107685016 -140.33898305084747 C-1330.5318107685016 -140.33898305084747 -1330.5318107685016 1299.6610169491526 -1330.5318107685016 1299.6610169491526" vector-effect="non-scaling-stroke"/></defs> <path style="stroke: rgb(72, 129, 191); stroke-width: 1; stroke-linecap: butt; stroke-linejoin: miter; fill: none;" d="M1441.000000000001 2299.941272430667 C1441.000000000001 2299.941272430667 1.0000000000011369 2299.9412724306676 1.0000000000011369 2299.9412724306676" vector-effect="non-scaling-stroke"/></g><g><defs><path id="path-16814510698531370" d="M-1330.531810767716 -140.33898305084745 C-1330.531810767716 -140.33898305084745 -1330.531810767716 1299.6610169491526 -1330.531810767716 1299.6610169491526" vector-effect="non-scaling-stroke"/></defs> <path style="stroke: rgb(72, 129, 191); stroke-width: 1; stroke-linecap: butt; stroke-linejoin: miter; fill: none;" d="M1441.000000000001 2358.8450244698197 C1441.000000000001 2358.8450244698197 1.0000000000009095 2358.84502446982 1.0000000000009095 2358.84502446982" vector-effect="non-scaling-stroke"/></g><g><defs><path id="path-16814510698531367" d="M-1330.531810766668 -140.33898305084747 C-1330.531810766668 -140.33898305084747 -1330.531810766668 1299.6610169491526 -1330.531810766668 1299.6610169491526" vector-effect="non-scaling-stroke"/></defs> <path style="stroke: rgb(72, 129, 191); stroke-width: 1; stroke-linecap: butt; stroke-linejoin: miter; fill: none;" d="M1441.9999999999986 1652.0000000000002 C1441.9999999999986 1652.0000000000002 1.9999999999988631 1652.0000000000002 1.9999999999988631 1652.0000000000002" vector-effect="non-scaling-stroke"/></g><g><defs><path id="path-16814510698521364" d="M-1330.531810766668 -140.33898305084747 C-1330.531810766668 -140.33898305084747 -1330.531810766668 1299.6610169491526 -1330.531810766668 1299.6610169491526" vector-effect="non-scaling-stroke"/></defs> <path style="stroke: rgb(72, 129, 191); stroke-width: 1; stroke-linecap: butt; stroke-linejoin: miter; fill: none;" d="M1441.9999999999986 1710.9037520391519 C1441.9999999999986 1710.9037520391519 1.9999999999984084 1710.9037520391519 1.9999999999984084 1710.9037520391519" vector-effect="non-scaling-stroke"/></g><g><defs><path id="path-16814510698521361" d="M-1330.531810766668 -140.33898305084747 C-1330.531810766668 -140.33898305084747 -1330.531810766668 1299.6610169491526 -1330.531810766668 1299.6610169491526" vector-effect="non-scaling-stroke"/></defs> <path style="stroke: rgb(72, 129, 191); stroke-width: 1; stroke-linecap: butt; stroke-linejoin: miter; fill: none;" d="M1441 1769.807504078303 C1441 1769.807504078303 1.0000000000002274 1769.807504078303 1.0000000000002274 1769.807504078303" vector-effect="non-scaling-stroke"/></g><g><defs><path id="path-16814510698511358" d="M-1330.5318107666678 -140.33898305084747 C-1330.5318107666678 -140.33898305084747 -1330.5318107666678 1299.6610169491526 -1330.5318107666678 1299.6610169491526" vector-effect="non-scaling-stroke"/></defs> <path style="stroke: rgb(72, 129, 191); stroke-width: 1; stroke-linecap: butt; stroke-linejoin: miter; fill: none;" d="M1441 1828.711256117455 C1441 1828.711256117455 0.9999999999997726 1828.711256117455 0.9999999999997726 1828.711256117455" vector-effect="non-scaling-stroke"/></g><g><defs><path id="path-16814510698511355" d="M-1330.531810766668 -140.33898305084747 C-1330.531810766668 -140.33898305084747 -1330.531810766668 1299.6610169491526 -1330.531810766668 1299.6610169491526" vector-effect="non-scaling-stroke"/></defs> <path style="stroke: rgb(72, 129, 191); stroke-width: 1; stroke-linecap: butt; stroke-linejoin: miter; fill: none;" d="M1441 1887.6150081566063 C1441 1887.6150081566063 1.0000000000002274 1887.6150081566063 1.0000000000002274 1887.6150081566063" vector-effect="non-scaling-stroke"/></g><g><defs><path id="path-16814510698501352" d="M-1328.65252854838 -140.33898305084747 C-1328.65252854838 -140.33898305084747 -1328.65252854838 1299.6610169491523 -1328.65252854838 1299.6610169491523" vector-effect="non-scaling-stroke"/></defs> <path style="stroke: rgb(72, 129, 191); stroke-width: 1; stroke-linecap: butt; stroke-linejoin: miter; fill: none;" d="M1440.9999999999989 2712.102773246329 C1440.9999999999989 2712.102773246329 0.9999999999990905 2712.102773246329 0.9999999999990905 2712.102773246329" vector-effect="non-scaling-stroke"/></g><g><defs><path id="path-16814510698501349" d="M-1328.6525285478563 -140.33898305084747 C-1328.6525285478563 -140.33898305084747 -1328.6525285478563 1299.6610169491526 -1328.6525285478563 1299.6610169491526" vector-effect="non-scaling-stroke"/></defs> <path style="stroke: rgb(72, 129, 191); stroke-width: 1; stroke-linecap: butt; stroke-linejoin: miter; fill: none;" d="M1440 2770.9233278955953 C1440 2770.9233278955953 -2.2737367544323206e-13 2770.923327895596 -2.2737367544323206e-13 2770.923327895596" vector-effect="non-scaling-stroke"/></g><g><defs><path id="path-16814510698501346" d="M-1328.65252854838 -140.33898305084747 C-1328.65252854838 -140.33898305084747 -1328.65252854838 1299.6610169491526 -1328.65252854838 1299.6610169491526" vector-effect="non-scaling-stroke"/></defs> <path style="stroke: rgb(72, 129, 191); stroke-width: 1; stroke-linecap: butt; stroke-linejoin: miter; fill: none;" d="M1440.0000000000005 2829.7438825448608 C1440.0000000000005 2829.7438825448608 0 2829.7438825448608 0 2829.7438825448608" vector-effect="non-scaling-stroke"/></g><g><defs><path id="path-16814510698491343" d="M-1328.6525285478563 -140.33898305084747 C-1328.6525285478563 -140.33898305084747 -1328.6525285478563 1299.6610169491526 -1328.6525285478563 1299.6610169491526" vector-effect="non-scaling-stroke"/></defs> <path style="stroke: rgb(72, 129, 191); stroke-width: 1; stroke-linecap: butt; stroke-linejoin: miter; fill: none;" d="M1440.0000000000007 2888.564437194126 C1440.0000000000007 2888.564437194126 2.2737367544323206e-13 2888.564437194126 2.2737367544323206e-13 2888.564437194126" vector-effect="non-scaling-stroke"/></g><g><defs><path id="path-16814510698491340" d="M-1328.6525285494283 -140.33898305084745 C-1328.6525285494283 -140.33898305084745 -1328.6525285494283 1299.6610169491528 -1328.6525285494283 1299.6610169491528" vector-effect="non-scaling-stroke"/></defs> <path style="stroke: rgb(72, 129, 191); stroke-width: 1; stroke-linecap: butt; stroke-linejoin: miter; fill: none;" d="M1440.0000000000014 2947.3849918433925 C1440.0000000000014 2947.3849918433925 9.094947017729282e-13 2947.3849918433925 9.094947017729282e-13 2947.3849918433925" vector-effect="non-scaling-stroke"/></g><g><defs><path id="path-16814510698481337" d="M-1328.6525285489045 -140.33898305084742 C-1328.6525285489045 -140.33898305084742 -1328.6525285489045 1299.6610169491528 -1328.6525285489045 1299.6610169491528" vector-effect="non-scaling-stroke"/></defs> <path style="stroke: rgb(72, 129, 191); stroke-width: 1; stroke-linecap: butt; stroke-linejoin: miter; fill: none;" d="M1440.000000000001 3006.205546492658 C1440.000000000001 3006.205546492658 9.094947017729282e-13 3006.205546492658 9.094947017729282e-13 3006.205546492658" vector-effect="non-scaling-stroke"/></g><g><defs><path id="path-16814510698471334" d="M-1328.6525285494286 -140.33898305084747 C-1328.6525285494286 -140.33898305084747 -1328.6525285494286 1299.6610169491526 -1328.6525285494286 1299.6610169491526" vector-effect="non-scaling-stroke"/></defs> <path style="stroke: rgb(72, 129, 191); stroke-width: 1; stroke-linecap: butt; stroke-linejoin: miter; fill: none;" d="M1440.0000000000018 3065.0261011419243 C1440.0000000000018 3065.0261011419243 1.8189894035458565e-12 3065.0261011419243 1.8189894035458565e-12 3065.0261011419243" vector-effect="non-scaling-stroke"/></g><g><defs><path id="path-16814510698461331" d="M-1328.6525285494283 -140.33898305084745 C-1328.6525285494283 -140.33898305084745 -1328.6525285494283 1299.6610169491526 -1328.6525285494283 1299.6610169491526" vector-effect="non-scaling-stroke"/></defs> <path style="stroke: rgb(72, 129, 191); stroke-width: 1; stroke-linecap: butt; stroke-linejoin: miter; fill: none;" d="M1440.0000000000016 3123.8466557911897 C1440.0000000000016 3123.8466557911897 1.5916157281026244e-12 3123.8466557911897 1.5916157281026244e-12 3123.8466557911897" vector-effect="non-scaling-stroke"/></g><g><defs><path id="path-16814510698451328" d="M-1328.6525285481184 -140.33898305084747 C-1328.6525285481184 -140.33898305084747 -1328.6525285481184 1299.6610169491526 -1328.6525285481184 1299.6610169491526" vector-effect="non-scaling-stroke"/></defs> <path style="stroke: rgb(72, 129, 191); stroke-width: 1; stroke-linecap: butt; stroke-linejoin: miter; fill: none;" d="M1440.9999999999993 2418 C1440.9999999999993 2418 0.9999999999990905 2418 0.9999999999990905 2418" vector-effect="non-scaling-stroke"/></g><g><defs><path id="path-16814510698451325" d="M-1328.6525285483804 -140.33898305084747 C-1328.6525285483804 -140.33898305084747 -1328.6525285483804 1299.6610169491526 -1328.6525285483804 1299.6610169491526" vector-effect="non-scaling-stroke"/></defs> <path style="stroke: rgb(72, 129, 191); stroke-width: 1; stroke-linecap: butt; stroke-linejoin: miter; fill: none;" d="M1440.9999999999993 2476.8205546492663 C1440.9999999999993 2476.8205546492663 0.9999999999990905 2476.8205546492663 0.9999999999990905 2476.8205546492663" vector-effect="non-scaling-stroke"/></g><g><defs><path id="path-16814510698441322" d="M-1328.6525285483808 -140.33898305084747 C-1328.6525285483808 -140.33898305084747 -1328.6525285483808 1299.6610169491526 -1328.6525285483808 1299.6610169491526" vector-effect="non-scaling-stroke"/></defs> <path style="stroke: rgb(72, 129, 191); stroke-width: 1; stroke-linecap: butt; stroke-linejoin: miter; fill: none;" d="M1440.000000000001 2535.6411092985327 C1440.000000000001 2535.6411092985327 9.094947017729282e-13 2535.6411092985327 9.094947017729282e-13 2535.6411092985327" vector-effect="non-scaling-stroke"/></g><g><defs><path id="path-16814510698441319" d="M-1328.6525285483806 -140.33898305084747 C-1328.6525285483806 -140.33898305084747 -1328.6525285483806 1299.6610169491526 -1328.6525285483806 1299.6610169491526" vector-effect="non-scaling-stroke"/></defs> <path style="stroke: rgb(72, 129, 191); stroke-width: 1; stroke-linecap: butt; stroke-linejoin: miter; fill: none;" d="M1440.0000000000007 2594.461663947797 C1440.0000000000007 2594.461663947797 4.547473508864641e-13 2594.461663947797 4.547473508864641e-13 2594.461663947797" vector-effect="non-scaling-stroke"/></g><g><defs><path id="path-16814510698431316" d="M-1328.6525285478563 -140.33898305084747 C-1328.6525285478563 -140.33898305084747 -1328.6525285478563 1299.6610169491526 -1328.6525285478563 1299.6610169491526" vector-effect="non-scaling-stroke"/></defs> <path style="stroke: rgb(72, 129, 191); stroke-width: 1; stroke-linecap: butt; stroke-linejoin: miter; fill: none;" d="M1440.0000000000005 2653.2822185970635 C1440.0000000000005 2653.2822185970635 2.2737367544323206e-13 2653.282218597064 2.2737367544323206e-13 2653.282218597064" vector-effect="non-scaling-stroke"/></g><g><defs><path id="path-16814510698431313" d="M-1330.5318107666683 -36.64406779661009 C-1330.5318107666683 -36.64406779661009 -1330.5318107666683 339.355932203389 -1330.5318107666683 339.355932203389" vector-effect="non-scaling-stroke"/></defs> <path style="stroke: rgb(72, 129, 191); stroke-width: 1; stroke-linecap: butt; stroke-linejoin: miter; fill: none;" d="M908.9999999999982 3478.5187601957573 C908.9999999999982 3478.5187601957573 532.9999999999991 3478.5187601957577 532.9999999999991 3478.5187601957577" vector-effect="non-scaling-stroke"/></g><g><defs><path id="path-16814510698421310" d="M-1330.5318107666685 -36.54661016949158 C-1330.5318107666685 -36.54661016949158 -1330.5318107666685 338.4533898305089 -1330.5318107666685 338.4533898305089" vector-effect="non-scaling-stroke"/></defs> <path style="stroke: rgb(72, 129, 191); stroke-width: 1; stroke-linecap: butt; stroke-linejoin: miter; fill: none;" d="M907.9999999999993 3537.422512234909 C907.9999999999993 3537.422512234909 532.9999999999989 3537.4225122349094 532.9999999999989 3537.4225122349094" vector-effect="non-scaling-stroke"/></g><g><defs><path id="path-16814510698421307" d="M-1330.531810767192 -36.54661016949158 C-1330.531810767192 -36.54661016949158 -1330.531810767192 338.4533898305089 -1330.531810767192 338.4533898305089" vector-effect="non-scaling-stroke"/></defs> <path style="stroke: rgb(72, 129, 191); stroke-width: 1; stroke-linecap: butt; stroke-linejoin: miter; fill: none;" d="M907.9999999999994 3596.326264274061 C907.9999999999994 3596.326264274061 532.999999999999 3596.326264274061 532.999999999999 3596.326264274061" vector-effect="non-scaling-stroke"/></g><g><defs><path id="path-16814510698421304" d="M-1330.5318107666685 -36.54661016949157 C-1330.5318107666685 -36.54661016949157 -1330.5318107666685 338.45338983050885 -1330.5318107666685 338.45338983050885" vector-effect="non-scaling-stroke"/></defs> <path style="stroke: rgb(72, 129, 191); stroke-width: 1; stroke-linecap: butt; stroke-linejoin: miter; fill: none;" d="M907.9999999999995 3655.2300163132127 C907.9999999999995 3655.2300163132127 532.9999999999991 3655.2300163132127 532.9999999999991 3655.2300163132127" vector-effect="non-scaling-stroke"/></g><g><defs><path id="path-16814510698411301" d="M-1330.5318107682394 -36.546610169491665 C-1330.5318107682394 -36.546610169491665 -1330.5318107682394 338.45338983050976 -1330.5318107682394 338.45338983050976" vector-effect="non-scaling-stroke"/></defs> <path style="stroke: rgb(72, 129, 191); stroke-width: 1; stroke-linecap: butt; stroke-linejoin: miter; fill: none;" d="M908.0000000000003 3714.1337683523643 C908.0000000000003 3714.1337683523643 532.999999999999 3714.1337683523643 532.999999999999 3714.1337683523643" vector-effect="non-scaling-stroke"/></g><g><defs><path id="path-16814510698411298" d="M-1330.5318107682394 -36.54661016949166 C-1330.5318107682394 -36.54661016949166 -1330.5318107682394 338.45338983050976 -1330.5318107682394 338.45338983050976" vector-effect="non-scaling-stroke"/></defs> <path style="stroke: rgb(72, 129, 191); stroke-width: 1; stroke-linecap: butt; stroke-linejoin: miter; fill: none;" d="M908.0000000000003 3773.0375203915155 C908.0000000000003 3773.0375203915155 532.999999999999 3773.0375203915155 532.999999999999 3773.0375203915155" vector-effect="non-scaling-stroke"/></g><g><defs><path id="path-16814510698401295" d="M-1330.531810767716 -36.54661016949171 C-1330.531810767716 -36.54661016949171 -1330.531810767716 338.45338983051016 -1330.531810767716 338.45338983051016" vector-effect="non-scaling-stroke"/></defs> <path style="stroke: rgb(72, 129, 191); stroke-width: 1; stroke-linecap: butt; stroke-linejoin: miter; fill: none;" d="M908.0000000000006 3831.941272430668 C908.0000000000006 3831.941272430668 532.9999999999987 3831.941272430668 532.9999999999987 3831.941272430668" vector-effect="non-scaling-stroke"/></g><g><defs><path id="path-16814510698401292" d="M-1330.5318107682397 -36.54661016949166 C-1330.5318107682397 -36.54661016949166 -1330.5318107682397 338.45338983050976 -1330.5318107682397 338.45338983050976" vector-effect="non-scaling-stroke"/></defs> <path style="stroke: rgb(72, 129, 191); stroke-width: 1; stroke-linecap: butt; stroke-linejoin: miter; fill: none;" d="M908.0000000000005 3890.845024469819 C908.0000000000005 3890.845024469819 532.9999999999991 3890.845024469819 532.9999999999991 3890.845024469819" vector-effect="non-scaling-stroke"/></g><g><defs><path id="path-16814510698391289" d="M-1330.5318107666685 -36.54661016949158 C-1330.5318107666685 -36.54661016949158 -1330.5318107666685 338.4533898305089 -1330.5318107666685 338.4533898305089" vector-effect="non-scaling-stroke"/></defs> <path style="stroke: rgb(72, 129, 191); stroke-width: 1; stroke-linecap: butt; stroke-linejoin: miter; fill: none;" d="M908.9999999999983 3184 C908.9999999999983 3184 533.9999999999978 3184 533.9999999999978 3184" vector-effect="non-scaling-stroke"/></g><g><defs><path id="path-16814510698391286" d="M-1330.5318107666683 -36.54661016949158 C-1330.5318107666683 -36.54661016949158 -1330.5318107666683 338.4533898305089 -1330.5318107666683 338.4533898305089" vector-effect="non-scaling-stroke"/></defs> <path style="stroke: rgb(72, 129, 191); stroke-width: 1; stroke-linecap: butt; stroke-linejoin: miter; fill: none;" d="M908.9999999999984 3242.903752039152 C908.9999999999984 3242.903752039152 533.999999999998 3242.903752039152 533.999999999998 3242.903752039152" vector-effect="non-scaling-stroke"/></g><g><defs><path id="path-16814510698391283" d="M-1330.5318107666685 -36.54661016949162 C-1330.5318107666685 -36.54661016949162 -1330.5318107666685 338.4533898305093 -1330.5318107666685 338.4533898305093" vector-effect="non-scaling-stroke"/></defs> <path style="stroke: rgb(72, 129, 191); stroke-width: 1; stroke-linecap: butt; stroke-linejoin: miter; fill: none;" d="M907.9999999999998 3301.8075040783037 C907.9999999999998 3301.8075040783037 532.9999999999989 3301.807504078304 532.9999999999989 3301.807504078304" vector-effect="non-scaling-stroke"/></g><g><defs><path id="path-16814510698381280" d="M-1330.531810766668 -36.54661016949162 C-1330.531810766668 -36.54661016949162 -1330.531810766668 338.4533898305093 -1330.531810766668 338.4533898305093" vector-effect="non-scaling-stroke"/></defs> <path style="stroke: rgb(72, 129, 191); stroke-width: 1; stroke-linecap: butt; stroke-linejoin: miter; fill: none;" d="M907.9999999999997 3360.7112561174545 C907.9999999999997 3360.7112561174545 532.9999999999987 3360.7112561174545 532.9999999999987 3360.7112561174545" vector-effect="non-scaling-stroke"/></g><g><defs><path id="path-16814510698381277" d="M-1330.5318107666678 -36.54661016949162 C-1330.5318107666678 -36.54661016949162 -1330.5318107666678 338.4533898305093 -1330.5318107666678 338.4533898305093" vector-effect="non-scaling-stroke"/></defs> <path style="stroke: rgb(72, 129, 191); stroke-width: 1; stroke-linecap: butt; stroke-linejoin: miter; fill: none;" d="M907.9999999999997 3419.615008156606 C907.9999999999997 3419.615008156606 532.9999999999987 3419.615008156606 532.9999999999987 3419.615008156606" vector-effect="non-scaling-stroke"/></g><g><defs><path id="path-16814510698371274" d="M-1328.6525285483806 -36.64406779661013 C-1328.6525285483806 -36.64406779661013 -1328.6525285483806 339.3559322033894 -1328.6525285483806 339.3559322033894" vector-effect="non-scaling-stroke"/></defs> <path style="stroke: rgb(72, 129, 191); stroke-width: 1; stroke-linecap: butt; stroke-linejoin: miter; fill: none;" d="M908.9999999999977 4245.102773246328 C908.9999999999977 4245.102773246328 532.9999999999977 4245.102773246328 532.9999999999977 4245.102773246328" vector-effect="non-scaling-stroke"/></g><g><defs><path id="path-16814510698371271" d="M-1328.652528547857 -36.54661016949162 C-1328.652528547857 -36.54661016949162 -1328.652528547857 338.4533898305093 -1328.652528547857 338.4533898305093" vector-effect="non-scaling-stroke"/></defs> <path style="stroke: rgb(72, 129, 191); stroke-width: 1; stroke-linecap: butt; stroke-linejoin: miter; fill: none;" d="M907.9999999999989 4303.923327895594 C907.9999999999989 4303.923327895594 532.9999999999984 4303.923327895594 532.9999999999984 4303.923327895594" vector-effect="non-scaling-stroke"/></g><g><defs><path id="path-16814510698361268" d="M-1328.6525285483806 -36.54661016949162 C-1328.6525285483806 -36.54661016949162 -1328.6525285483806 338.4533898305093 -1328.6525285483806 338.4533898305093" vector-effect="non-scaling-stroke"/></defs> <path style="stroke: rgb(72, 129, 191); stroke-width: 1; stroke-linecap: butt; stroke-linejoin: miter; fill: none;" d="M907.9999999999994 4362.743882544861 C907.9999999999994 4362.743882544861 532.9999999999985 4362.743882544861 532.9999999999985 4362.743882544861" vector-effect="non-scaling-stroke"/></g><g><defs><path id="path-16814510698361265" d="M-1328.652528547857 -36.54661016949157 C-1328.652528547857 -36.54661016949157 -1328.652528547857 338.45338983050885 -1328.652528547857 338.45338983050885" vector-effect="non-scaling-stroke"/></defs> <path style="stroke: rgb(72, 129, 191); stroke-width: 1; stroke-linecap: butt; stroke-linejoin: miter; fill: none;" d="M907.9999999999995 4421.564437194127 C907.9999999999995 4421.564437194127 532.9999999999986 4421.564437194127 532.9999999999986 4421.564437194127" vector-effect="non-scaling-stroke"/></g><g><defs><path id="path-16814510698351262" d="M-1328.6525285494279 -36.54661016949171 C-1328.6525285494279 -36.54661016949171 -1328.6525285494279 338.45338983051016 -1328.6525285494279 338.45338983051016" vector-effect="non-scaling-stroke"/></defs> <path style="stroke: rgb(72, 129, 191); stroke-width: 1; stroke-linecap: butt; stroke-linejoin: miter; fill: none;" d="M907.9999999999994 4480.384991843392 C907.9999999999994 4480.384991843392 532.9999999999976 4480.384991843392 532.9999999999976 4480.384991843392" vector-effect="non-scaling-stroke"/></g><g><defs><path id="path-16814510698351259" d="M-1328.6525285494279 -36.5466101694917 C-1328.6525285494279 -36.5466101694917 -1328.6525285494279 338.45338983051016 -1328.6525285494279 338.45338983051016" vector-effect="non-scaling-stroke"/></defs> <path style="stroke: rgb(72, 129, 191); stroke-width: 1; stroke-linecap: butt; stroke-linejoin: miter; fill: none;" d="M907.9999999999994 4539.205546492658 C907.9999999999994 4539.205546492658 532.9999999999976 4539.205546492658 532.9999999999976 4539.205546492658" vector-effect="non-scaling-stroke"/></g><g><defs><path id="path-16814510698341256" d="M-1328.652528549428 -36.54661016949171 C-1328.652528549428 -36.54661016949171 -1328.652528549428 338.45338983051016 -1328.652528549428 338.45338983051016" vector-effect="non-scaling-stroke"/></defs> <path style="stroke: rgb(72, 129, 191); stroke-width: 1; stroke-linecap: butt; stroke-linejoin: miter; fill: none;" d="M907.9999999999997 4598.026101141924 C907.9999999999997 4598.026101141924 532.9999999999978 4598.026101141924 532.9999999999978 4598.026101141924" vector-effect="non-scaling-stroke"/></g><g><defs><path id="path-16814510698341253" d="M-1328.652528549428 -36.5466101694917 C-1328.652528549428 -36.5466101694917 -1328.652528549428 338.45338983051016 -1328.652528549428 338.45338983051016" vector-effect="non-scaling-stroke"/></defs> <path style="stroke: rgb(72, 129, 191); stroke-width: 1; stroke-linecap: butt; stroke-linejoin: miter; fill: none;" d="M908.0000000000005 4656.846655791189 C908.0000000000005 4656.846655791189 532.9999999999986 4656.84665579119 532.9999999999986 4656.84665579119" vector-effect="non-scaling-stroke"/></g><g><defs><path id="path-16814510698341250" d="M-1328.652528547857 -36.54661016949162 C-1328.652528547857 -36.54661016949162 -1328.652528547857 338.4533898305093 -1328.652528547857 338.4533898305093" vector-effect="non-scaling-stroke"/></defs> <path style="stroke: rgb(72, 129, 191); stroke-width: 1; stroke-linecap: butt; stroke-linejoin: miter; fill: none;" d="M908.9999999999983 3951 C908.9999999999983 3951 533.9999999999974 3951 533.9999999999974 3951" vector-effect="non-scaling-stroke"/></g><g><defs><path id="path-16814510698331247" d="M-1328.6525285478567 -36.54661016949162 C-1328.6525285478567 -36.54661016949162 -1328.6525285478567 338.4533898305093 -1328.6525285478567 338.4533898305093" vector-effect="non-scaling-stroke"/></defs> <path style="stroke: rgb(72, 129, 191); stroke-width: 1; stroke-linecap: butt; stroke-linejoin: miter; fill: none;" d="M908.9999999999984 4009.8205546492663 C908.9999999999984 4009.8205546492663 533.9999999999975 4009.8205546492663 533.9999999999975 4009.8205546492663" vector-effect="non-scaling-stroke"/></g><g><defs><path id="path-16814510698301244" d="M-1328.6525285483808 -36.54661016949162 C-1328.6525285483808 -36.54661016949162 -1328.6525285483808 338.4533898305093 -1328.6525285483808 338.4533898305093" vector-effect="non-scaling-stroke"/></defs> <path style="stroke: rgb(72, 129, 191); stroke-width: 1; stroke-linecap: butt; stroke-linejoin: miter; fill: none;" d="M907.9999999999998 4068.6411092985327 C907.9999999999998 4068.6411092985327 532.9999999999989 4068.6411092985327 532.9999999999989 4068.6411092985327" vector-effect="non-scaling-stroke"/></g><g><defs><path id="path-16814510698301241" d="M-1328.6525285483804 -36.54661016949162 C-1328.6525285483804 -36.54661016949162 -1328.6525285483804 338.4533898305093 -1328.6525285483804 338.4533898305093" vector-effect="non-scaling-stroke"/></defs> <path style="stroke: rgb(72, 129, 191); stroke-width: 1; stroke-linecap: butt; stroke-linejoin: miter; fill: none;" d="M907.9999999999997 4127.461663947797 C907.9999999999997 4127.461663947797 532.9999999999987 4127.461663947797 532.9999999999987 4127.461663947797" vector-effect="non-scaling-stroke"/></g><g><defs><path id="path-16814510698291238" d="M-1328.652528547856 -36.54661016949162 C-1328.652528547856 -36.54661016949162 -1328.652528547856 338.4533898305093 -1328.652528547856 338.4533898305093" vector-effect="non-scaling-stroke"/></defs> <path style="stroke: rgb(72, 129, 191); stroke-width: 1; stroke-linecap: butt; stroke-linejoin: miter; fill: none;" d="M907.9999999999997 4186.282218597064 C907.9999999999997 4186.282218597064 532.9999999999987 4186.282218597064 532.9999999999987 4186.282218597064" vector-effect="non-scaling-stroke"/></g><g><defs><path id="path-16814510698281235" d="M-1330.5318107666683 -36.64406779661017 C-1330.5318107666683 -36.64406779661017 -1330.5318107666683 339.3559322033898 -1330.5318107666683 339.3559322033898" vector-effect="non-scaling-stroke"/></defs> <path style="stroke: rgb(72, 129, 191); stroke-width: 1; stroke-linecap: butt; stroke-linejoin: miter; fill: none;" d="M908.9999999999982 5011.518760195757 C908.9999999999982 5011.518760195757 532.9999999999982 5011.518760195757 532.9999999999982 5011.518760195757" vector-effect="non-scaling-stroke"/></g><g><defs><path id="path-16814510698281232" d="M-1330.5318107666685 -36.54661016949166 C-1330.5318107666685 -36.54661016949166 -1330.5318107666685 338.45338983050965 -1330.5318107666685 338.45338983050965" vector-effect="non-scaling-stroke"/></defs> <path style="stroke: rgb(72, 129, 191); stroke-width: 1; stroke-linecap: butt; stroke-linejoin: miter; fill: none;" d="M907.9999999999993 5070.422512234909 C907.9999999999993 5070.422512234909 532.9999999999975 5070.422512234909 532.9999999999975 5070.422512234909" vector-effect="non-scaling-stroke"/></g><g><defs><path id="path-16814510698271229" d="M-1330.5318107666683 -36.54661016949157 C-1330.5318107666683 -36.54661016949157 -1330.5318107666683 338.45338983050885 -1330.5318107666683 338.45338983050885" vector-effect="non-scaling-stroke"/></defs> <path style="stroke: rgb(72, 129, 191); stroke-width: 1; stroke-linecap: butt; stroke-linejoin: miter; fill: none;" d="M907.9999999999994 5129.326264274061 C907.9999999999994 5129.326264274061 532.9999999999985 5129.326264274061 532.9999999999985 5129.326264274061" vector-effect="non-scaling-stroke"/></g><g><defs><path id="path-16814510698271226" d="M-1330.5318107666683 -36.54661016949157 C-1330.5318107666683 -36.54661016949157 -1330.5318107666683 338.45338983050885 -1330.5318107666683 338.45338983050885" vector-effect="non-scaling-stroke"/></defs> <path style="stroke: rgb(72, 129, 191); stroke-width: 1; stroke-linecap: butt; stroke-linejoin: miter; fill: none;" d="M907.9999999999995 5188.230016313213 C907.9999999999995 5188.230016313213 532.9999999999986 5188.230016313213 532.9999999999986 5188.230016313213" vector-effect="non-scaling-stroke"/></g><g><defs><path id="path-16814510698261223" d="M-1330.5318107687635 -36.54661016949166 C-1330.5318107687635 -36.54661016949166 -1330.5318107687635 338.4533898305097 -1330.5318107687635 338.4533898305097" vector-effect="non-scaling-stroke"/></defs> <path style="stroke: rgb(72, 129, 191); stroke-width: 1; stroke-linecap: butt; stroke-linejoin: miter; fill: none;" d="M907.9999999999994 5247.133768352364 C907.9999999999994 5247.133768352364 532.9999999999976 5247.133768352364 532.9999999999976 5247.133768352364" vector-effect="non-scaling-stroke"/></g><g><defs><path id="path-16814510698241220" d="M-1330.5318107677158 -36.54661016949165 C-1330.5318107677158 -36.54661016949165 -1330.5318107677158 338.4533898305097 -1330.5318107677158 338.4533898305097" vector-effect="non-scaling-stroke"/></defs> <path style="stroke: rgb(72, 129, 191); stroke-width: 1; stroke-linecap: butt; stroke-linejoin: miter; fill: none;" d="M908.0000000000008 5306.037520391517 C908.0000000000008 5306.037520391517 532.999999999999 5306.037520391517 532.999999999999 5306.037520391517" vector-effect="non-scaling-stroke"/></g><g><defs><path id="path-16814510698241217" d="M-1330.5318107677156 -36.54661016949171 C-1330.5318107677156 -36.54661016949171 -1330.5318107677156 338.45338983051016 -1330.5318107677156 338.45338983051016" vector-effect="non-scaling-stroke"/></defs> <path style="stroke: rgb(72, 129, 191); stroke-width: 1; stroke-linecap: butt; stroke-linejoin: miter; fill: none;" d="M908.000000000001 5364.941272430669 C908.000000000001 5364.941272430669 532.9999999999992 5364.941272430669 532.9999999999992 5364.941272430669" vector-effect="non-scaling-stroke"/></g><g><defs><path id="path-16814510698231214" d="M-1330.531810767716 -36.54661016949165 C-1330.531810767716 -36.54661016949165 -1330.531810767716 338.4533898305097 -1330.531810767716 338.4533898305097" vector-effect="non-scaling-stroke"/></defs> <path style="stroke: rgb(72, 129, 191); stroke-width: 1; stroke-linecap: butt; stroke-linejoin: miter; fill: none;" d="M908.0000000000009 5423.84502446982 C908.0000000000009 5423.84502446982 532.9999999999991 5423.84502446982 532.9999999999991 5423.84502446982" vector-effect="non-scaling-stroke"/></g><g><defs><path id="path-16814510698231211" d="M-1330.5318107666683 -36.54661016949166 C-1330.5318107666683 -36.54661016949166 -1330.5318107666683 338.45338983050965 -1330.5318107666683 338.45338983050965" vector-effect="non-scaling-stroke"/></defs> <path style="stroke: rgb(72, 129, 191); stroke-width: 1; stroke-linecap: butt; stroke-linejoin: miter; fill: none;" d="M908.9999999999983 4717 C908.9999999999983 4717 533.9999999999965 4717 533.9999999999965 4717" vector-effect="non-scaling-stroke"/></g><g><defs><path id="path-16814510698221208" d="M-1330.5318107661446 -36.54661016949157 C-1330.5318107661446 -36.54661016949157 -1330.5318107661446 338.45338983050885 -1330.5318107661446 338.45338983050885" vector-effect="non-scaling-stroke"/></defs> <path style="stroke: rgb(72, 129, 191); stroke-width: 1; stroke-linecap: butt; stroke-linejoin: miter; fill: none;" d="M908.9999999999984 4775.903752039151 C908.9999999999984 4775.903752039151 533.9999999999975 4775.903752039151 533.9999999999975 4775.903752039151" vector-effect="non-scaling-stroke"/></g><g><defs><path id="path-16814510698221205" d="M-1330.5318107666683 -36.54661016949162 C-1330.5318107666683 -36.54661016949162 -1330.5318107666683 338.4533898305093 -1330.5318107666683 338.4533898305093" vector-effect="non-scaling-stroke"/></defs> <path style="stroke: rgb(72, 129, 191); stroke-width: 1; stroke-linecap: butt; stroke-linejoin: miter; fill: none;" d="M907.9999999999998 4834.807504078304 C907.9999999999998 4834.807504078304 532.9999999999989 4834.807504078304 532.9999999999989 4834.807504078304" vector-effect="non-scaling-stroke"/></g><g><defs><path id="path-16814510698211202" d="M-1330.5318107666683 -36.54661016949162 C-1330.5318107666683 -36.54661016949162 -1330.5318107666683 338.4533898305093 -1330.5318107666683 338.4533898305093" vector-effect="non-scaling-stroke"/></defs> <path style="stroke: rgb(72, 129, 191); stroke-width: 1; stroke-linecap: butt; stroke-linejoin: miter; fill: none;" d="M907.9999999999997 4893.711256117453 C907.9999999999997 4893.711256117453 532.9999999999987 4893.711256117453 532.9999999999987 4893.711256117453" vector-effect="non-scaling-stroke"/></g><g><defs><path id="path-16814510698211199" d="M-1330.5318107666683 -36.54661016949162 C-1330.5318107666683 -36.54661016949162 -1330.5318107666683 338.4533898305093 -1330.5318107666683 338.4533898305093" vector-effect="non-scaling-stroke"/></defs> <path style="stroke: rgb(72, 129, 191); stroke-width: 1; stroke-linecap: butt; stroke-linejoin: miter; fill: none;" d="M907.9999999999997 4952.615008156607 C907.9999999999997 4952.615008156607 532.9999999999987 4952.615008156607 532.9999999999987 4952.615008156607" vector-effect="non-scaling-stroke"/></g><g><defs><path id="path-16814510698201196" d="M-1330.531810766668 -36.64406779661017 C-1330.531810766668 -36.64406779661017 -1330.531810766668 339.3559322033898 -1330.531810766668 339.3559322033898" vector-effect="non-scaling-stroke"/></defs> <path style="stroke: rgb(72, 129, 191); stroke-width: 1; stroke-linecap: butt; stroke-linejoin: miter; fill: none;" d="M908.9999999999975 5777.518760195759 C908.9999999999975 5777.518760195759 532.9999999999975 5777.518760195759 532.9999999999975 5777.518760195759" vector-effect="non-scaling-stroke"/></g><g><defs><path id="path-16814510698201193" d="M-1330.5318107666683 -36.54661016949162 C-1330.5318107666683 -36.54661016949162 -1330.5318107666683 338.4533898305093 -1330.5318107666683 338.4533898305093" vector-effect="non-scaling-stroke"/></defs> <path style="stroke: rgb(72, 129, 191); stroke-width: 1; stroke-linecap: butt; stroke-linejoin: miter; fill: none;" d="M907.9999999999993 5836.422512234909 C907.9999999999993 5836.422512234909 532.9999999999984 5836.422512234909 532.9999999999984 5836.422512234909" vector-effect="non-scaling-stroke"/></g><g><defs><path id="path-16814510698191190" d="M-1330.531810766668 -36.54661016949162 C-1330.531810766668 -36.54661016949162 -1330.531810766668 338.4533898305093 -1330.531810766668 338.4533898305093" vector-effect="non-scaling-stroke"/></defs> <path style="stroke: rgb(72, 129, 191); stroke-width: 1; stroke-linecap: butt; stroke-linejoin: miter; fill: none;" d="M907.9999999999995 5895.326264274063 C907.9999999999995 5895.326264274063 532.9999999999986 5895.326264274063 532.9999999999986 5895.326264274063" vector-effect="non-scaling-stroke"/></g><g><defs><path id="path-16814510698191187" d="M-1330.5318107666678 -36.54661016949162 C-1330.5318107666678 -36.54661016949162 -1330.5318107666678 338.4533898305093 -1330.5318107666678 338.4533898305093" vector-effect="non-scaling-stroke"/></defs> <path style="stroke: rgb(72, 129, 191); stroke-width: 1; stroke-linecap: butt; stroke-linejoin: miter; fill: none;" d="M907.9999999999995 5954.230016313213 C907.9999999999995 5954.230016313213 532.9999999999986 5954.230016313213 532.9999999999986 5954.230016313213" vector-effect="non-scaling-stroke"/></g><g><defs><path id="path-16814510698181184" d="M-1330.531810767716 -36.54661016949171 C-1330.531810767716 -36.54661016949171 -1330.531810767716 338.45338983051016 -1330.531810767716 338.45338983051016" vector-effect="non-scaling-stroke"/></defs> <path style="stroke: rgb(72, 129, 191); stroke-width: 1; stroke-linecap: butt; stroke-linejoin: miter; fill: none;" d="M908.0000000000009 6013.133768352365 C908.0000000000009 6013.133768352365 532.9999999999991 6013.133768352365 532.9999999999991 6013.133768352365" vector-effect="non-scaling-stroke"/></g><g><defs><path id="path-16814510698181181" d="M-1330.5318107677156 -36.5466101694917 C-1330.5318107677156 -36.5466101694917 -1330.5318107677156 338.45338983051016 -1330.5318107677156 338.45338983051016" vector-effect="non-scaling-stroke"/></defs> <path style="stroke: rgb(72, 129, 191); stroke-width: 1; stroke-linecap: butt; stroke-linejoin: miter; fill: none;" d="M908.0000000000009 6072.037520391517 C908.0000000000009 6072.037520391517 532.9999999999991 6072.037520391517 532.9999999999991 6072.037520391517" vector-effect="non-scaling-stroke"/></g><g><defs><path id="path-16814510698171178" d="M-1330.5318107677156 -36.54661016949171 C-1330.5318107677156 -36.54661016949171 -1330.5318107677156 338.45338983051016 -1330.5318107677156 338.45338983051016" vector-effect="non-scaling-stroke"/></defs> <path style="stroke: rgb(72, 129, 191); stroke-width: 1; stroke-linecap: butt; stroke-linejoin: miter; fill: none;" d="M908.0000000000011 6130.941272430669 C908.0000000000011 6130.941272430669 532.9999999999993 6130.941272430669 532.9999999999993 6130.941272430669" vector-effect="non-scaling-stroke"/></g><g><defs><path id="path-16814510698171175" d="M-1330.5318107677158 -36.5466101694917 C-1330.5318107677158 -36.5466101694917 -1330.5318107677158 338.45338983051016 -1330.5318107677158 338.45338983051016" vector-effect="non-scaling-stroke"/></defs> <path style="stroke: rgb(72, 129, 191); stroke-width: 1; stroke-linecap: butt; stroke-linejoin: miter; fill: none;" d="M908.0000000000009 6189.84502446982 C908.0000000000009 6189.84502446982 532.9999999999991 6189.84502446982 532.9999999999991 6189.84502446982" vector-effect="non-scaling-stroke"/></g><g><defs><path id="path-16814510698161172" d="M-1330.531810766668 -36.54661016949162 C-1330.531810766668 -36.54661016949162 -1330.531810766668 338.4533898305093 -1330.531810766668 338.4533898305093" vector-effect="non-scaling-stroke"/></defs> <path style="stroke: rgb(72, 129, 191); stroke-width: 1; stroke-linecap: butt; stroke-linejoin: miter; fill: none;" d="M908.9999999999984 5483 C908.9999999999984 5483 533.9999999999975 5483 533.9999999999975 5483" vector-effect="non-scaling-stroke"/></g><g><defs><path id="path-16814510698161169" d="M-1330.531810766668 -36.54661016949162 C-1330.531810766668 -36.54661016949162 -1330.531810766668 338.4533898305093 -1330.531810766668 338.4533898305093" vector-effect="non-scaling-stroke"/></defs> <path style="stroke: rgb(72, 129, 191); stroke-width: 1; stroke-linecap: butt; stroke-linejoin: miter; fill: none;" d="M908.9999999999984 5541.903752039152 C908.9999999999984 5541.903752039152 533.9999999999975 5541.903752039152 533.9999999999975 5541.903752039152" vector-effect="non-scaling-stroke"/></g><g><defs><path id="path-16814510698151166" d="M-1330.531810766668 -36.54661016949153 C-1330.531810766668 -36.54661016949153 -1330.531810766668 338.45338983050846 -1330.531810766668 338.45338983050846" vector-effect="non-scaling-stroke"/></defs> <path style="stroke: rgb(72, 129, 191); stroke-width: 1; stroke-linecap: butt; stroke-linejoin: miter; fill: none;" d="M907.9999999999998 5600.807504078304 C907.9999999999998 5600.807504078304 532.9999999999998 5600.807504078304 532.9999999999998 5600.807504078304" vector-effect="non-scaling-stroke"/></g><g><defs><path id="path-16814510698151163" d="M-1330.5318107666678 -36.54661016949153 C-1330.5318107666678 -36.54661016949153 -1330.5318107666678 338.45338983050846 -1330.5318107666678 338.45338983050846" vector-effect="non-scaling-stroke"/></defs> <path style="stroke: rgb(72, 129, 191); stroke-width: 1; stroke-linecap: butt; stroke-linejoin: miter; fill: none;" d="M907.9999999999998 5659.7112561174545 C907.9999999999998 5659.7112561174545 532.9999999999998 5659.7112561174545 532.9999999999998 5659.7112561174545" vector-effect="non-scaling-stroke"/></g><g><defs><path id="path-16814510698141160" d="M-1330.531810766668 -36.54661016949153 C-1330.531810766668 -36.54661016949153 -1330.531810766668 338.45338983050846 -1330.531810766668 338.45338983050846" vector-effect="non-scaling-stroke"/></defs> <path style="stroke: rgb(72, 129, 191); stroke-width: 1; stroke-linecap: butt; stroke-linejoin: miter; fill: none;" d="M907.9999999999998 5718.615008156607 C907.9999999999998 5718.615008156607 532.9999999999998 5718.615008156607 532.9999999999998 5718.615008156607" vector-effect="non-scaling-stroke"/></g></svg>