<svg height="1960.6307384927225" overflow="visible" viewBox="0 0 1960.6307404609274 1960.6307384927225" width="1960.6307404609274" xmlns="http://www.w3.org/2000/svg"><g><defs><path id="path-16899144474191127" d="M699.99468,1400c-94.45522,0 -186.14298,-18.52049 -272.49808,-55.05056c-83.36413,-35.26344 -158.22366,-85.72645 -222.47109,-149.97339c-64.25807,-64.25758 -114.72147,-139.10591 -149.97453,-222.4694c-36.53035,-86.36509 -55.05098,-178.05216 -55.05098,-272.49601c0,-94.44385 18.52063,-186.15221 55.04033,-272.50665c35.26371,-83.37414 85.7271,-158.22246 149.98517,-222.48004c64.25807,-64.25758 139.10697,-114.70995 222.47109,-149.97339c86.36574,-36.53007 178.04287,-55.05056 272.50872,-55.05056c94.46586,0 186.14298,18.52049 272.49808,55.05056c83.36413,35.26344 158.22366,85.72645 222.47109,149.97339c64.25807,64.24694 114.71082,139.10591 149.97453,222.4694c36.53035,86.36509 55.05098,178.04151 55.05098,272.49601c0,94.4545 -18.52063,186.14156 -55.05098,272.49601c-35.26371,83.37414 -85.7271,158.22246 -149.97453,222.4694c-64.25807,64.25758 -139.10697,114.70995 -222.47109,149.97339c-86.36574,36.53007 -178.04287,55.05056 -272.49808,55.05056zM699.99468,194.75253c-68.24959,0 -134.41294,13.34753 -196.638,39.65939c-60.14947,25.43906 -114.19991,61.88398 -160.62921,108.32358c-46.4293,46.42895 -82.8745,100.47898 -108.31376,160.62799c-26.32271,62.22459 -39.65969,128.38744 -39.65969,196.63651c0,68.24907 13.34763,134.41192 39.65969,196.63651c25.43926,60.14902 61.88445,114.19904 108.31376,160.62799c46.4293,46.42895 100.47974,82.87387 160.62921,108.31293c62.22506,26.32251 128.38842,39.67004 196.638,39.67004c68.24959,0 134.41294,-13.34753 196.638,-39.65939c60.14947,-25.43906 114.19991,-61.88398 160.62921,-108.31293c46.4293,-46.42895 82.8745,-100.47898 108.3244,-160.62799c26.32271,-62.22459 39.65969,-128.38744 39.65969,-196.63651c0,-68.24907 -13.34763,-134.41192 -39.65969,-196.63651c-25.4499,-60.14902 -61.88445,-114.19904 -108.3244,-160.62799c-46.4293,-46.42895 -100.47974,-82.87387 -160.62921,-108.31293c-62.22506,-26.32251 -128.38842,-39.67004 -196.638,-39.67004z" vector-effect="non-scaling-stroke"/></defs><path d="M699.99468,1400c-94.45522,0 -186.14298,-18.52049 -272.49808,-55.05056c-83.36413,-35.26344 -158.22366,-85.72645 -222.47109,-149.97339c-64.25807,-64.25758 -114.72147,-139.10591 -149.97453,-222.4694c-36.53035,-86.36509 -55.05098,-178.05216 -55.05098,-272.49601c0,-94.44385 18.52063,-186.15221 55.04033,-272.50665c35.26371,-83.37414 85.7271,-158.22246 149.98517,-222.48004c64.25807,-64.25758 139.10697,-114.70995 222.47109,-149.97339c86.36574,-36.53007 178.04287,-55.05056 272.50872,-55.05056c94.46586,0 186.14298,18.52049 272.49808,55.05056c83.36413,35.26344 158.22366,85.72645 222.47109,149.97339c64.25807,64.24694 114.71082,139.10591 149.97453,222.4694c36.53035,86.36509 55.05098,178.04151 55.05098,272.49601c0,94.4545 -18.52063,186.14156 -55.05098,272.49601c-35.26371,83.37414 -85.7271,158.22246 -149.97453,222.4694c-64.25807,64.25758 -139.10697,114.70995 -222.47109,149.97339c-86.36574,36.53007 -178.04287,55.05056 -272.49808,55.05056zM699.99468,194.75253c-68.24959,0 -134.41294,13.34753 -196.638,39.65939c-60.14947,25.43906 -114.19991,61.88398 -160.62921,108.32358c-46.4293,46.42895 -82.8745,100.47898 -108.31376,160.62799c-26.32271,62.22459 -39.65969,128.38744 -39.65969,196.63651c0,68.24907 13.34763,134.41192 39.65969,196.63651c25.43926,60.14902 61.88445,114.19904 108.31376,160.62799c46.4293,46.42895 100.47974,82.87387 160.62921,108.31293c62.22506,26.32251 128.38842,39.67004 196.638,39.67004c68.24959,0 134.41294,-13.34753 196.638,-39.65939c60.14947,-25.43906 114.19991,-61.88398 160.62921,-108.31293c46.4293,-46.42895 82.8745,-100.47898 108.3244,-160.62799c26.32271,-62.22459 39.65969,-128.38744 39.65969,-196.63651c0,-68.24907 -13.34763,-134.41192 -39.65969,-196.63651c-25.4499,-60.14902 -61.88445,-114.19904 -108.3244,-160.62799c-46.4293,-46.42895 -100.47974,-82.87387 -160.62921,-108.31293c-62.22506,-26.32251 -128.38842,-39.67004 -196.638,-39.67004z" style="stroke-width: 0; stroke-linecap: butt; stroke-linejoin: miter; fill: rgba(105, 10, 7, 0);" transform="translate(1960.6307404609277, 842.5410324128678) rotate(127)" vector-effect="non-scaling-stroke"/></g><g><defs><path id="path-16899144474181125" d="M810.7684486971887 244.9211127645666 C810.7684486971887 244.9211127645666 583.7609464810305 244.9211127645666 583.7609464810305 244.9211127645666 C583.7609464810305 244.9211127645666 583.7609464810305 381.77812148320714 583.7609464810305 381.77812148320714 C583.7609464810305 381.77812148320714 794.1856613541293 381.77812148320714 794.1856613541293 381.77812148320714 C794.1856613541293 381.77812148320714 778.7843177819807 411.8303155374564 778.7843177819807 411.8303155374564 C760.5943411649788 447.3145290425626 736.5716511564519 479.55447159863024 707.3442223733699 506.629193301624 C685.7695690072713 526.6177442475077 661.9703953878351 544.9201280554047 637.756119902944 557.83318018809 C636.2660106423353 558.622904037527 634.7759013817266 559.4019559430525 633.275148483542 560.1703359046669 C632.7748975174806 560.4264625585383 632.2640029138433 560.6825892124099 631.7531083102061 560.9387158662812 C630.7526063780831 561.4402972301128 629.7627480835357 561.9525505378558 628.7516025138372 562.4434599577759 C628.1449151720179 562.7422743872926 627.5382278301987 563.0304168728978 626.9315404883794 563.3185593585033 C626.0268312944382 563.7561090588671 625.1114784629217 564.204330703142 624.2067692689807 564.6312084595946 C623.5468637392825 564.9406948330223 622.8763145720085 565.2501812064506 622.2057654047346 565.5596675798785 C621.3436307610968 565.954529504597 620.481496117459 566.3600633732267 619.6193614738211 566.7549252979452 C618.9275250313956 567.0644116713731 618.2356885889703 567.3738980448013 617.5438521465447 567.683384418229 C616.7030047780586 568.0569024551252 615.8621574095722 568.4304204920209 615.0106664035098 568.8039385289168 C614.297542685933 569.1134249023448 613.5737753307801 569.4122393318614 612.8606516132033 569.7217257052895 C612.0304478822926 570.0738998543626 611.2002441513821 570.4260740034358 610.3700404204715 570.7675762085977 C609.6356294277427 571.0770625820257 608.8905747974384 571.365205067631 608.15616380471 571.6640194971478 C607.3366037113751 571.9948497583985 606.5170436180404 572.3256800196491 605.6974835247056 572.6565102808996 C604.9524288944014 572.9553247104162 604.1967306265212 573.2434671960216 603.4516759962167 573.5316096816272 C602.6321159028819 573.8517679989664 601.8231994471228 574.1612543723944 601.0036393537881 574.4707407458224 C600.2372974483322 574.7588832314277 599.4815991804522 575.0363537731218 598.7152572749964 575.3244962587272 C597.9063408192374 575.6233106882437 597.0974243634784 575.9221251177603 596.2778642701436 576.2209395472772 C595.5008787271119 576.4984100889714 594.7238931840802 576.7758806306653 593.9469076410486 577.0426792284482 C593.1379911852895 577.3308217140535 592.3397183671062 577.6082922557475 591.5308019113473 577.8857627974415 C590.74317273074 578.1525613952243 589.9555435501323 578.419359993007 589.167914369525 578.6861585907898 C588.3696415513417 578.9529571885726 587.5607250955826 579.2197557863553 586.7624522773993 579.4865543841381 C585.9641794592164 579.7426810380096 585.1659066410332 579.998807691881 584.3676338228497 580.2549343457524 C583.5693610046666 580.5110609996239 582.7604445489077 580.7671876534954 581.9621717307243 581.0126423634556 C581.1638989125411 581.2580970734157 580.3549824567823 581.5035517833759 579.5460660010232 581.749006493336 C578.74779318284 581.994461203296 577.9495203646568 582.2292439693449 577.1512475464735 582.4640267353936 C576.3316874531387 582.6988095014425 575.512127359804 582.9335922674915 574.692567266469 583.1683750335401 C573.8942944482859 583.3924858556777 573.1066652676785 583.6165966778151 572.3083924494953 583.8407074999527 C571.4781887185848 584.0648183220902 570.6586286252499 584.2889291442276 569.8284248943394 584.5130399663652 C569.040795713732 584.7264788445914 568.2425228955487 584.9292457789062 567.4548937149411 585.1426846571326 C566.6246899840306 585.3561235353587 565.7838426155442 585.5695624135849 564.9536388846337 585.7830012918112 C564.1660097040262 585.9857682261262 563.3677368858431 586.1778632165297 562.5801077052356 586.3699582069332 C561.7392603367495 586.572725141248 560.8984129682628 586.775492075563 560.0575655997765 586.9782590098779 C559.2699364191692 587.15968205637 558.4823072385615 587.3411051028623 557.6946780579541 587.5225281493547 C556.8431870518922 587.7146231397583 555.9916960458299 587.9067181301617 555.1402050397678 588.0988131205653 C554.3525758591604 588.2695642231463 553.5755903161287 588.4403153257274 552.7879611355213 588.6003944843972 C551.9258264918833 588.7818175308892 551.0636918482454 588.9632405773815 550.2015572046075 589.1446636238738 C549.4245716615759 589.3047427825434 548.6475861185443 589.4541499973017 547.8706005755126 589.6142291559715 C546.9978222942989 589.7849802585524 546.1250440130852 589.9557313611336 545.2522657318716 590.1264824637145 C544.4752801888397 590.2758896784727 543.7089382833839 590.4146249493198 542.9319527403524 590.5533602201668 C542.0485308215628 590.7134393788364 541.1651089027735 590.8735185375061 540.2923306215598 591.0229257522644 C539.5259887161037 591.1616610231115 538.759646810648 591.279052406136 537.9933049051921 591.4071157330717 C537.0992393488268 591.55652294783 536.2051737924614 591.7059301625883 535.3111082360964 591.8446654334354 C534.5554099682163 591.9620568164597 533.7997117003362 592.0794481994843 533.0440134324562 592.1968395825086 C532.139304238515 592.3355748533558 531.2239514069984 592.4743101242027 530.3192422130572 592.6023734511383 C529.5741875827529 592.7090928902517 528.8291329524486 592.8051403854535 528.0840783221444 592.9118598245664 C527.1580818530516 593.0399231515021 526.242729021535 593.1679864784378 525.3167325524423 593.2853778614623 C524.5823215597137 593.381425356664 523.8372669294095 593.4668009079545 523.1028559366808 593.5628484031563 C522.1662158300128 593.6802397861808 521.2295757233444 593.7976311692053 520.3035792542518 593.9043506083183 C519.8565464760692 593.9577103278747 519.4095136978866 594.0003981035201 518.962480919704 594.0537578230766 C518.962480919704 594.0537578230766 518.962480919704 594.0537578230766 518.962480919704 594.0537578230766 C518.6857463427339 594.0857736548105 518.4090117657637 594.1177894865444 518.1429208263693 594.139133374367 C517.1849934445494 594.2458528134803 516.2377097003052 594.3525722525934 515.2797823184854 594.4486197477951 C514.5879458760598 594.5126514112628 513.8961094336343 594.5766830747309 513.1936293536331 594.6407147381987 C512.2037710590857 594.7367622334004 511.22455640211444 594.8328097286021 510.2346981075673 594.9075133359813 C509.585436215445 594.9608730555377 508.9361743233225 595.0142327750946 508.28691243120016 595.0569205507397 C507.25447958635004 595.1422961020302 506.22204674149964 595.2276716533207 505.1896138966493 595.3023752606998 C504.6148574675574 595.345063036345 504.0401010384654 595.3770788680791 503.47598824694927 595.409094699813 C502.36904993906853 595.4837983071922 501.2514679936121 595.5585019145713 500.1338860481555 595.6225335780392 C499.77200237057923 595.6438774658618 499.4101186930028 595.6545494097732 499.0482350154265 595.6758932975957 C494.450183582691 595.9213480075559 489.8414885123799 596.0814271662255 485.2221498044929 596.1561307736047 C483.41273141661094 596.1881466053386 481.6033130287291 596.19881854925 479.79389464084704 596.19881854925 C348.40883240546356 596.19881854925 234.97958676041478 514.9639814963575 183.15571540395965 403.30343235232004 C182.75125717608014 409.73861453084 182.51709714941308 416.2164844850053 182.51709714941308 422.7583861026383 C182.51709714941308 589.1766794556081 316.637574241771 724.1767699336808 482.4122294844879 725.0625412783193 C483.32758231600474 725.051869334408 484.24293514752156 725.0411973904968 485.1582879790383 725.0305254465856 C485.1582879790383 725.0305254465856 485.1582879790383 725.0732132222308 485.1582879790383 725.0732132222308 C496.5895547354221 725.0305254465856 507.86116692816915 724.326177148439 518.962480919704 723.0455438790817 C518.962480919704 723.0455438790817 518.962480919704 723.7819080089622 518.962480919704 723.7819080089622 C569.743275793733 719.5771621079059 619.0233177695775 707.1763632829637 665.9298285660238 686.7502626367162 C722.8094277709727 661.970008874654 773.6434408328806 625.5253204175301 817.0269075917452 580.5217329435354 C817.0269075917452 580.5217329435354 846.0201763481601 549.3062970029534 855.1417737506006 535.5181454695407 C869.436179014868 513.9181309930491 887.2749155918693 484.27147080742975 889.0311157918724 481.283326512263 C889.0311157918724 481.283326512263 889.0311157918724 695.7893991295958 889.0311157918724 695.7893991295958 C889.0311157918724 695.7893991295958 1025.5251240636285 695.7893991295958 1025.5251240636285 695.7893991295958 C1025.5251240636285 695.7893991295958 1025.5251240636285 244.9211127645666 1025.5251240636285 244.9211127645666 C1025.5251240636285 244.9211127645666 810.811023247492 244.9211127645666 810.811023247492 244.9211127645666 C810.811023247492 244.9211127645666 810.7684486971887 244.9211127645666 810.7684486971887 244.9211127645666 Z" vector-effect="non-scaling-stroke"/></defs> <path d="M802.8535296173907 1253.953609477858 C802.8535296173907 1253.953609477858 939.4700548192966 1072.6573571608947 939.4700548192966 1072.6573571608947 C939.4700548192966 1072.6573571608947 830.1711878577382 990.2947532903659 830.1711878577382 990.2947532903659 C830.1711878577382 990.2947532903659 703.5344332046211 1158.3474027795992 703.5344332046211 1158.3474027795992 C703.5344332046211 1158.3474027795992 688.8024438165108 1127.961481039915 688.8024438165108 1127.961481039915 C671.4104920641295 1092.0793870145396 660.119744840625 1053.4915319510712 656.0864163937315 1013.8554951890012 C653.1068003289753 984.5958006436006 652.812566924255 954.5742859462507 657.0722597095503 927.4646369257534 C657.338328339431 925.7993150796485 657.6129199626806 924.1404157697156 657.902440080293 922.4794386090304 C657.9989467861637 921.9257795554687 658.1018589930286 921.3636201149831 658.2047711998935 920.8014606744973 C658.406307605004 919.7005651035461 658.5929155157517 918.6017473833466 658.809380415225 917.4987739616436 C658.9358501575612 916.8344208941527 659.0708428932667 916.1764903628342 659.205835628972 915.5185598315153 C659.4008604853484 914.532702959913 659.5937678493501 913.5319231652151 659.7973156990952 912.5524888297848 C659.9472899530335 911.8392112915016 660.1036697079654 911.1174333662939 660.2600494628978 910.3956554410867 C660.463544288773 909.4694902618693 660.6585161212795 908.5369025464797 660.8620109471549 907.6107373672622 C661.0312017040754 906.8719586682067 661.2003924609955 906.1331799691512 661.3695832179162 905.3944012700957 C661.5773130285405 904.4980819370704 661.7850428391653 903.6017626040452 661.9991781507844 902.6969428840957 C662.1811799096927 901.9411634111921 662.3781101629644 901.1833060875364 662.5601119218726 900.4275266146327 C662.7784822182412 899.5525527408756 662.9968525146095 898.6775788671188 663.2237458043465 897.8090275295338 C663.4185585652433 897.0362472827818 663.6368228138717 896.2678117214498 663.840158568137 895.50145401087 C664.069169350249 894.6478255963813 664.2981801323606 893.7941971818924 664.5271909144726 892.9405687674038 C664.7369321697322 892.1657106698999 664.9616019193547 891.388774721644 665.1798661679829 890.6203391603118 C665.4173999434637 889.773133281995 665.6570512113192 888.9408503267745 665.9031079801684 888.10006698463 C666.134183230785 887.3146306494498 666.3673759737761 886.544117237366 666.5984512243929 885.7586809021859 C666.846625485617 884.9328204831376 667.0947997468414 884.1069600640892 667.3493795090593 883.2725992581164 C667.5953832540388 882.4850850721842 667.8413869990184 881.6975708862523 668.0959137373666 880.9164792364923 C668.3526109919595 880.0970413536157 668.6114257389271 879.2925263938354 668.8766459868889 878.4795110471312 C669.1375782262312 877.689919010447 669.3985104655738 876.900326973763 669.6594427049162 876.1107349370789 C669.9267804452526 875.3126425134707 670.2005236865832 874.5060497029382 670.4678614269196 873.70795727933 C670.7437221606247 872.9162873918941 671.01958289433 872.1246175044579 671.2954436280354 871.3329476170215 C671.5713043617407 870.5412777295855 671.8535705964398 869.7411074552252 672.1379543235138 868.955860103961 C672.4223380505879 868.1706127526968 672.713127278656 867.3768650145089 673.0039165067242 866.5831172763206 C673.2883002337983 865.7978699250566 673.5812069542412 865.0190451099646 673.8741136746842 864.2402202948726 C674.1798313971151 863.4443947059323 674.485549119546 862.6485691169921 674.7912668419773 861.8527435280519 C675.092696555789 861.080341249132 675.3877207686066 860.3164393571362 675.6891504824181 859.5440370782161 C676.0097966992121 858.7461336385239 676.3240374150121 857.9567305857558 676.644683631806 857.1588271460636 C676.9482308379922 856.4013477902397 677.2667065385417 855.641790583664 677.5702537447279 854.8843112278399 C677.8994229548907 854.0928303243198 678.2349976660478 853.2928490338757 678.5641668762103 852.5013681303553 C678.8762370757654 851.7503113107035 679.2032357696835 850.9971766402998 679.5238289626077 850.2525423568203 C679.8679266671332 849.4589836025482 680.212024371659 848.6654248482757 680.5561220761847 847.8718660940035 C680.8852382624774 847.1336543466961 681.2143544487703 846.3954425993883 681.5434706350632 845.6572308520807 C681.9024968339514 844.8615942470565 682.2615230328403 844.0659576420323 682.6205492317288 843.2703210370081 C682.9581884113904 842.5385318258726 683.2894220900579 841.815243001661 683.6355842630883 841.0898763266975 C684.00953895634 840.2921618709213 684.3834936495912 839.494447415145 684.7574483428425 838.6967329593687 C685.0972050148791 837.9798666713294 685.4454846802842 837.2694229194622 685.7852413523203 836.5525566314227 C686.1741245399346 835.7527643248942 686.5630077275488 834.9529720183659 686.9518909151632 834.1531797118377 C687.3001705805685 833.4427359599703 687.6505677383484 832.747215131199 688.0073703971223 832.0431939155039 C688.4111820790995 831.2413237582236 688.8149937610766 830.4394536009434 689.2209229354287 829.6525063667593 C689.5713200932087 828.9569855379879 689.9387632377259 828.2743097815608 690.2976833888745 827.5852114889617 C690.7164235652148 826.7812634809294 691.135163741555 825.977315472897 691.5624269112637 825.1797900010367 C691.9234645547872 824.5056146315338 692.2845021983104 823.8314392620307 692.6455398418339 823.157263892528 C693.0792085125368 822.3512380337434 693.519282684234 821.5367117880352 693.9614743483058 820.7371084654228 C694.3246294842037 820.0778560190157 694.6963076134706 819.4250261087811 695.0594627493687 818.7657736623744 C695.5144654154287 817.9491695659137 695.9630625804946 817.1410658563774 696.4265882399235 816.3308842960889 C696.7918608681964 815.6865547727783 697.172061990832 815.0401473987157 697.5373346191047 814.3958178754049 C698.0072657795275 813.5771359281927 698.4771969399505 812.7584539809801 698.9492455927482 811.9546949568637 C699.175661667656 811.5655660251917 699.4106007359322 811.1828596296917 699.6370168108399 810.7937306980198 C699.6370168108399 810.7937306980198 699.6370168108399 810.7937306980198 699.6370168108399 810.7937306980198 C699.7779908565797 810.5534530294772 699.9189649023197 810.3131753609348 700.0620564404344 810.0878206154885 C700.5533215962139 809.2585604305997 701.0381812509997 808.4378006326351 701.5379694001484 807.6149629839188 C701.9031890045516 807.0239026168206 702.2684086089544 806.4328422497223 702.6400337143513 805.8332814957001 C703.1590383664823 804.9849426862111 703.671637517619 804.1451042636465 704.2076881564877 803.309610526502 C704.5558087502831 802.7589742432724 704.9039293440782 802.2083379600423 705.2605729312425 801.6641242129848 C705.8137225807184 800.7882063919718 706.3668722301945 799.9122885709586 706.9285448730395 799.0427932861177 C707.240349953245 798.5580822475285 707.5606780268192 798.0797937451115 707.8746005993996 797.6100056296186 C708.481111749203 796.681007636309 709.0940284000008 795.7435092560754 709.715468044167 794.8124334120134 C709.9162090912282 794.5105751842505 710.1254731316584 794.2151394926593 710.3262141787199 793.9132812648963 C712.8973617606832 790.0933957817324 715.5430987905914 786.3163902010212 718.2634252684437 782.5822645227622 C719.3267914573323 781.117931137151 720.4072036329584 779.6664428238839 721.4961388019533 778.2213770467888 C800.5656430729739 673.292600855838 933.7060926903137 631.5923227475641 1054.0705566483368 657.4029347824658 C1049.1746006847227 653.2071307675967 1044.1420647317277 649.1216427988247 1038.91746979665 645.1846281253505 C906.0099112035012 545.0315990582087 717.4783270616138 570.8998921120603 617.0052406290845 702.7603479524605 C616.4628905369618 703.4978037641042 615.920540444839 704.2352595757479 615.3781903527162 704.9727153873915 C615.3781903527162 704.9727153873915 615.3440983792409 704.9470252427034 615.3440983792409 704.9470252427034 C608.4986822850658 714.1021309438628 602.2777742946679 723.5279280838288 596.6195959620909 733.164535986301 C596.6195959620909 733.164535986301 596.0315094196433 732.7213809904285 596.0315094196433 732.7213809904285 C568.8289235641596 775.8072062570484 549.0751722560843 822.6269847475153 537.1591386830323 872.3809241553016 C522.7185319729927 932.7201208691606 521.2318815796989 995.2509298462014 531.0645225640483 1056.9823419863742 C531.0645225640483 1056.9823419863742 538.5456934599083 1098.9233142708747 544.0678865404712 1114.5060625991234 C552.7158372838732 1138.9212954504287 565.6570931963229 1171.0097494211911 566.9866236755638 1174.210623391843 C566.9866236755638 1174.210623391843 395.67445696257846 1045.117646333388 395.67445696257846 1045.117646333388 C395.67445696257846 1045.117646333388 313.53031221439574 1154.1266082479012 313.53031221439574 1154.1266082479012 C313.53031221439574 1154.1266082479012 673.6097360596797 1425.4659164451957 673.6097360596797 1425.4659164451957 C673.6097360596797 1425.4659164451957 802.8279076134141 1253.9876110255548 802.8279076134141 1253.9876110255548 C802.8279076134141 1253.9876110255548 802.8535296173907 1253.953609477858 802.8535296173907 1253.953609477858 Z" style="stroke-width: 0; stroke-linecap: butt; stroke-linejoin: miter; fill: rgb(72, 129, 191);" vector-effect="non-scaling-stroke"/></g></svg>