<svg version="1.2" xmlns="http://www.w3.org/2000/svg" xmlns:xlink="http://www.w3.org/1999/xlink" overflow="visible" preserveAspectRatio="none" viewBox="0 0 1440 90" width="1440" height="90"><g transform="translate(0, 0)"><defs><path id="path-16818868192691708" d="M0 0 C0 0 1439.9999999999998 0 1439.9999999999998 0 C1439.9999999999998 0 1439.9999999999998 90 1439.9999999999998 90 C1439.9999999999998 90 0 90 0 90 C0 90 0 0 0 0 Z" vector-effect="non-scaling-stroke"/><linearGradient id="gradient-16818868194741782" x1="50%" y1="100%" x2="50%" y2="0%" vector-effect="non-scaling-stroke"><stop offset="5%" stop-color="rgb(29,34,70)" stop-opacity="1" vector-effect="non-scaling-stroke"/><stop offset="52%" stop-color="rgba(29,34,70,0.4)" stop-opacity="0.4" vector-effect="non-scaling-stroke"/><stop offset="95%" stop-color="rgba(29,34,70,0)" stop-opacity="0" vector-effect="non-scaling-stroke"/></linearGradient></defs><g transform="translate(0, 0)"><path style="stroke: rgb(140, 140, 140); stroke-width: 0; stroke-linecap: butt; stroke-linejoin: miter; fill: url(&quot;#gradient-16818868194741782&quot;);" d="M0 0 C0 0 1439.9999999999998 0 1439.9999999999998 0 C1439.9999999999998 0 1439.9999999999998 90 1439.9999999999998 90 C1439.9999999999998 90 0 90 0 90 C0 90 0 0 0 0 Z" vector-effect="non-scaling-stroke"/></g></g></svg>