<svg height="710" overflow="visible" viewBox="-1 -1 377.9999999999991 710" width="377.9999999999991" xmlns="http://www.w3.org/2000/svg"><g><defs><path id="path-16817933303341166" d="M-1330.531810766668 -36.64406779661017 C-1330.531810766668 -36.64406779661017 -1330.531810766668 339.3559322033898 -1330.531810766668 339.3559322033898" vector-effect="non-scaling-stroke"/></defs> <path style="stroke: rgb(72, 129, 191); stroke-width: 1; stroke-linecap: butt; stroke-linejoin: miter; fill: none;" d="M375.9999999999982 294.51876019575866 C375.9999999999982 294.51876019575866 -1.8189894035458565e-12 294.51876019575866 -1.8189894035458565e-12 294.51876019575866" vector-effect="non-scaling-stroke"/></g><g><defs><path id="path-16817933303331163" d="M-1330.5318107666683 -36.54661016949162 C-1330.5318107666683 -36.54661016949162 -1330.5318107666683 338.4533898305093 -1330.5318107666683 338.4533898305093" vector-effect="non-scaling-stroke"/></defs> <path style="stroke: rgb(72, 129, 191); stroke-width: 1; stroke-linecap: butt; stroke-linejoin: miter; fill: none;" d="M375 353.42251223490894 C375 353.42251223490894 -9.094947017729282e-13 353.42251223490894 -9.094947017729282e-13 353.42251223490894" vector-effect="non-scaling-stroke"/></g><g><defs><path id="path-16817933303331160" d="M-1330.531810766668 -36.54661016949162 C-1330.531810766668 -36.54661016949162 -1330.531810766668 338.4533898305093 -1330.531810766668 338.4533898305093" vector-effect="non-scaling-stroke"/></defs> <path style="stroke: rgb(72, 129, 191); stroke-width: 1; stroke-linecap: butt; stroke-linejoin: miter; fill: none;" d="M375.0000000000002 412.32626427406285 C375.0000000000002 412.32626427406285 -6.821210263296962e-13 412.32626427406285 -6.821210263296962e-13 412.32626427406285" vector-effect="non-scaling-stroke"/></g><g><defs><path id="path-16817933303321157" d="M-1330.5318107666678 -36.54661016949162 C-1330.5318107666678 -36.54661016949162 -1330.5318107666678 338.4533898305093 -1330.5318107666678 338.4533898305093" vector-effect="non-scaling-stroke"/></defs> <path style="stroke: rgb(72, 129, 191); stroke-width: 1; stroke-linecap: butt; stroke-linejoin: miter; fill: none;" d="M375.0000000000002 471.2300163132131 C375.0000000000002 471.2300163132131 -6.821210263296962e-13 471.2300163132131 -6.821210263296962e-13 471.2300163132131" vector-effect="non-scaling-stroke"/></g><g><defs><path id="path-16817933303321154" d="M-1330.531810767716 -36.54661016949171 C-1330.531810767716 -36.54661016949171 -1330.531810767716 338.45338983051016 -1330.531810767716 338.45338983051016" vector-effect="non-scaling-stroke"/></defs> <path style="stroke: rgb(72, 129, 191); stroke-width: 1; stroke-linecap: butt; stroke-linejoin: miter; fill: none;" d="M375.0000000000016 530.1337683523652 C375.0000000000016 530.1337683523652 -2.2737367544323206e-13 530.1337683523652 -2.2737367544323206e-13 530.1337683523652" vector-effect="non-scaling-stroke"/></g><g><defs><path id="path-16817933303321151" d="M-1330.5318107677156 -36.5466101694917 C-1330.5318107677156 -36.5466101694917 -1330.5318107677156 338.45338983051016 -1330.5318107677156 338.45338983051016" vector-effect="non-scaling-stroke"/></defs> <path style="stroke: rgb(72, 129, 191); stroke-width: 1; stroke-linecap: butt; stroke-linejoin: miter; fill: none;" d="M375.0000000000016 589.0375203915173 C375.0000000000016 589.0375203915173 -2.2737367544323206e-13 589.0375203915173 -2.2737367544323206e-13 589.0375203915173" vector-effect="non-scaling-stroke"/></g><g><defs><path id="path-16817933303311148" d="M-1330.5318107677156 -36.54661016949171 C-1330.5318107677156 -36.54661016949171 -1330.5318107677156 338.45338983051016 -1330.5318107677156 338.45338983051016" vector-effect="non-scaling-stroke"/></defs> <path style="stroke: rgb(72, 129, 191); stroke-width: 1; stroke-linecap: butt; stroke-linejoin: miter; fill: none;" d="M375.0000000000018 647.9412724306694 C375.0000000000018 647.9412724306694 0 647.9412724306694 0 647.9412724306694" vector-effect="non-scaling-stroke"/></g><g><defs><path id="path-16817933303311145" d="M-1330.5318107677158 -36.5466101694917 C-1330.5318107677158 -36.5466101694917 -1330.5318107677158 338.45338983051016 -1330.5318107677158 338.45338983051016" vector-effect="non-scaling-stroke"/></defs> <path style="stroke: rgb(72, 129, 191); stroke-width: 1; stroke-linecap: butt; stroke-linejoin: miter; fill: none;" d="M375.0000000000016 706.8450244698197 C375.0000000000016 706.8450244698197 -2.2737367544323206e-13 706.8450244698197 -2.2737367544323206e-13 706.8450244698197" vector-effect="non-scaling-stroke"/></g><g><defs><path id="path-16817933303301142" d="M-1330.531810766668 -36.54661016949162 C-1330.531810766668 -36.54661016949162 -1330.531810766668 338.4533898305093 -1330.531810766668 338.4533898305093" vector-effect="non-scaling-stroke"/></defs> <path style="stroke: rgb(72, 129, 191); stroke-width: 1; stroke-linecap: butt; stroke-linejoin: miter; fill: none;" d="M375.9999999999991 0 C375.9999999999991 0 0.999999999998181 0 0.999999999998181 0" vector-effect="non-scaling-stroke"/></g><g><defs><path id="path-16817933303301139" d="M-1330.531810766668 -36.54661016949162 C-1330.531810766668 -36.54661016949162 -1330.531810766668 338.4533898305093 -1330.531810766668 338.4533898305093" vector-effect="non-scaling-stroke"/></defs> <path style="stroke: rgb(72, 129, 191); stroke-width: 1; stroke-linecap: butt; stroke-linejoin: miter; fill: none;" d="M375.9999999999991 58.903752039152096 C375.9999999999991 58.903752039152096 0.999999999998181 58.903752039152096 0.999999999998181 58.903752039152096" vector-effect="non-scaling-stroke"/></g><g><defs><path id="path-16817933303291136" d="M-1330.531810766668 -36.54661016949153 C-1330.531810766668 -36.54661016949153 -1330.531810766668 338.45338983050846 -1330.531810766668 338.45338983050846" vector-effect="non-scaling-stroke"/></defs> <path style="stroke: rgb(72, 129, 191); stroke-width: 1; stroke-linecap: butt; stroke-linejoin: miter; fill: none;" d="M375.00000000000045 117.80750407830419 C375.00000000000045 117.80750407830419 4.547473508864641e-13 117.80750407830419 4.547473508864641e-13 117.80750407830419" vector-effect="non-scaling-stroke"/></g><g><defs><path id="path-16817933303291133" d="M-1330.5318107666678 -36.54661016949153 C-1330.5318107666678 -36.54661016949153 -1330.5318107666678 338.45338983050846 -1330.5318107666678 338.45338983050846" vector-effect="non-scaling-stroke"/></defs> <path style="stroke: rgb(72, 129, 191); stroke-width: 1; stroke-linecap: butt; stroke-linejoin: miter; fill: none;" d="M375.00000000000045 176.71125611745447 C375.00000000000045 176.71125611745447 4.547473508864641e-13 176.71125611745447 4.547473508864641e-13 176.71125611745447" vector-effect="non-scaling-stroke"/></g><g><defs><path id="path-16817933303291130" d="M-1330.531810766668 -36.54661016949153 C-1330.531810766668 -36.54661016949153 -1330.531810766668 338.45338983050846 -1330.531810766668 338.45338983050846" vector-effect="non-scaling-stroke"/></defs> <path style="stroke: rgb(72, 129, 191); stroke-width: 1; stroke-linecap: butt; stroke-linejoin: miter; fill: none;" d="M375.00000000000045 235.61500815660656 C375.00000000000045 235.61500815660656 4.547473508864641e-13 235.61500815660656 4.547473508864641e-13 235.61500815660656" vector-effect="non-scaling-stroke"/></g></svg>