<svg height="50" overflow="visible" viewBox="0 0 206.40999999999985 50" width="206.40999999999985" xmlns="http://www.w3.org/2000/svg"><g><defs><path id="path-1681451069594534" d="M7.82834,6.20447h-5.69804l-0.99276,1.79553h-1.13754l4.48811,-8h1.02378l4.48811,8h-1.1789zM4.97415,1.03408l-2.40951,4.36193h4.82937l-2.38883,-4.36193z" vector-effect="non-scaling-stroke"/></defs><path style="stroke-width: 0; stroke-linecap: butt; stroke-linejoin: miter; fill: rgb(255, 255, 255);" d="M7.82834,6.20447h-5.69804l-0.99276,1.79553h-1.13754l4.48811,-8h1.02378l4.48811,8h-1.1789zM4.97415,1.03408l-2.40951,4.36193h4.82937l-2.38883,-4.36193z" transform="translate(0, 39) rotate(0)" vector-effect="non-scaling-stroke"/></g><g><defs><path id="path-1681451069594532" d="M41.23 51.73 C41.23 51.73 41.23 52.809999999999995 41.23 52.809999999999995 C41.23 52.809999999999995 41.169999999999995 52.809999999999995 41.169999999999995 52.809999999999995 C40.48 52.08 39.41 51.709999999999994 38.17999999999999 51.709999999999994 C35.81999999999999 51.709999999999994 34.25999999999999 53.14999999999999 34.25999999999999 55.23 C34.25999999999999 57.31 35.82999999999999 58.75 38.17999999999999 58.75 C39.38999999999999 58.75 40.46999999999999 58.39 41.169999999999995 57.65 C41.169999999999995 57.65 41.23 57.65 41.23 57.65 C41.23 57.65 41.23 58.73 41.23 58.73 C40.48 59.29 39.41 59.61 38.14 59.61 C35.21 59.61 33.2 57.79 33.2 55.23 C33.2 52.669999999999995 35.2 50.849999999999994 38.14 50.849999999999994 C39.47 50.849999999999994 40.480000000000004 51.13999999999999 41.230000000000004 51.73" vector-effect="non-scaling-stroke"/></defs> <path style="stroke-width: 0; stroke-linecap: butt; stroke-linejoin: miter; fill: rgb(255, 255, 255);" d="M27.309999999999746 39.68000000000001 C27.309999999999746 39.68000000000001 27.309999999999746 40.76000000000002 27.309999999999746 40.76000000000002 C27.309999999999746 40.76000000000002 27.249999999999744 40.76000000000002 27.249999999999744 40.76000000000002 C26.559999999999746 40.030000000000015 25.489999999999725 39.66000000000001 24.259999999999735 39.66000000000001 C21.89999999999975 39.66000000000001 20.339999999999748 41.10000000000001 20.339999999999748 43.18000000000001 C20.339999999999748 45.26000000000002 21.90999999999974 46.70000000000002 24.259999999999735 46.70000000000002 C25.469999999999743 46.70000000000002 26.549999999999727 46.34000000000002 27.249999999999744 45.60000000000002 C27.249999999999744 45.60000000000002 27.309999999999746 45.60000000000002 27.309999999999746 45.60000000000002 C27.309999999999746 45.60000000000002 27.309999999999746 46.68000000000001 27.309999999999746 46.68000000000001 C26.559999999999746 47.24000000000001 25.489999999999725 47.56000000000002 24.219999999999743 47.56000000000002 C21.289999999999736 47.56000000000002 19.279999999999745 45.74000000000001 19.279999999999745 43.18000000000001 C19.279999999999745 40.620000000000005 21.279999999999745 38.80000000000001 24.219999999999743 38.80000000000001 C25.549999999999727 38.80000000000001 26.559999999999746 39.09 27.309999999999746 39.68000000000001" vector-effect="non-scaling-stroke"/></g><g><defs><path id="path-1681451069593530" d="M49.74999999999947 53.599999999999945 C49.74999999999947 53.599999999999945 49.74999999999947 54.469999999999935 49.74999999999947 54.469999999999935 C49.74999999999947 54.469999999999935 49.70999999999947 54.469999999999935 49.70999999999947 54.469999999999935 C49.40999999999948 54.279999999999944 49.07999999999947 54.18999999999994 48.66999999999948 54.18999999999994 C47.359999999999495 54.18999999999994 46.68999999999951 55.04999999999993 46.68999999999951 56.689999999999934 C46.68999999999951 56.689999999999934 46.68999999999951 59.47999999999993 46.68999999999951 59.47999999999993 C46.68999999999951 59.47999999999993 45.749999999999524 59.47999999999993 45.749999999999524 59.47999999999993 C45.749999999999524 59.47999999999993 45.749999999999524 53.49999999999994 45.749999999999524 53.49999999999994 C45.749999999999524 53.49999999999994 46.56999999999951 53.49999999999994 46.56999999999951 53.49999999999994 C46.56999999999951 53.49999999999994 46.59999999999951 54.579999999999934 46.59999999999951 54.579999999999934 C46.989999999999505 53.78999999999994 47.68999999999951 53.37999999999994 48.73999999999949 53.37999999999994 C49.17999999999948 53.37999999999994 49.51999999999948 53.47999999999994 49.759999999999486 53.609999999999935" vector-effect="non-scaling-stroke"/></defs> <path style="stroke-width: 0; stroke-linecap: butt; stroke-linejoin: miter; fill: rgb(255, 255, 255);" d="M35.82999999999987 41.549999999999926 C35.82999999999987 41.549999999999926 35.82999999999987 42.41999999999993 35.82999999999987 42.41999999999993 C35.82999999999987 42.41999999999993 35.78999999999988 42.41999999999993 35.78999999999988 42.41999999999993 C35.489999999999895 42.22999999999993 35.15999999999988 42.13999999999993 34.749999999999886 42.13999999999993 C33.43999999999991 42.13999999999993 32.769999999999925 42.999999999999915 32.769999999999925 44.63999999999993 C32.769999999999925 44.63999999999993 32.769999999999925 47.42999999999992 32.769999999999925 47.42999999999992 C32.769999999999925 47.42999999999992 31.829999999999927 47.42999999999992 31.829999999999927 47.42999999999992 C31.829999999999927 47.42999999999992 31.829999999999927 41.44999999999993 31.829999999999927 41.44999999999993 C31.829999999999927 41.44999999999993 32.64999999999992 41.44999999999993 32.64999999999992 41.44999999999993 C32.64999999999992 41.44999999999993 32.67999999999992 42.529999999999916 32.67999999999992 42.529999999999916 C33.06999999999991 41.739999999999924 33.769999999999925 41.32999999999993 34.81999999999991 41.32999999999993 C35.25999999999988 41.32999999999993 35.59999999999988 41.42999999999992 35.83999999999989 41.55999999999992" vector-effect="non-scaling-stroke"/></g><g><defs><path id="path-1681451069593528" d="M0.85081,3.80288c0.11521,1.4359 1.07238,2.34455 2.52585,2.34455c0.88626,0 1.62186,-0.3141 2.19793,-0.96474h0.03545v0.98718c-0.5229,0.52724 -1.33826,0.83013 -2.25997,0.83013c-2.0384,0 -3.35007,-1.37981 -3.35007,-3.48878c0,-2.10897 1.24963,-3.51122 3.03988,-3.51122c1.79025,0 2.96012,1.27885 2.96012,3.23077v0.5609h-5.14919zM0.85081,2.97276h4.37814c-0.11521,-1.27885 -0.9483,-2.09776 -2.17134,-2.09776c-1.15214,0 -2.01182,0.85256 -2.19793,2.09776z" vector-effect="non-scaling-stroke"/></defs><path style="stroke-width: 0; stroke-linecap: butt; stroke-linejoin: miter; fill: rgb(255, 255, 255);" d="M0.85081,3.80288c0.11521,1.4359 1.07238,2.34455 2.52585,2.34455c0.88626,0 1.62186,-0.3141 2.19793,-0.96474h0.03545v0.98718c-0.5229,0.52724 -1.33826,0.83013 -2.25997,0.83013c-2.0384,0 -3.35007,-1.37981 -3.35007,-3.48878c0,-2.10897 1.24963,-3.51122 3.03988,-3.51122c1.79025,0 2.96012,1.27885 2.96012,3.23077v0.5609h-5.14919zM0.85081,2.97276h4.37814c-0.11521,-1.27885 -0.9483,-2.09776 -2.17134,-2.09776c-1.15214,0 -2.01182,0.85256 -2.19793,2.09776z" transform="translate(40, 41) rotate(0)" vector-effect="non-scaling-stroke"/></g><g><defs><path id="path-1681451069593526" d="M6.17707,9.86799l-0.03048,-1.18812h-0.03048c-0.51814,0.81408 -1.47315,1.32013 -2.73295,1.32013c-1.96081,0 -3.38316,-1.41914 -3.38316,-3.42134c0,-2.0022 1.42235,-3.44334 3.38316,-3.44334c1.17852,0 2.10305,0.45105 2.63135,1.18812h0.03048v-4.32343h0.95501v9.86799h-0.83309zM6.07547,6.57866c0,-1.51815 -1.0566,-2.59626 -2.55007,-2.59626c-1.49347,0 -2.55007,1.06711 -2.55007,2.59626c0,1.52915 1.0566,2.57426 2.55007,2.57426c1.49347,0 2.55007,-1.05611 2.55007,-2.57426z" vector-effect="non-scaling-stroke"/></defs><path style="stroke-width: 0; stroke-linecap: butt; stroke-linejoin: miter; fill: rgb(255, 255, 255);" d="M6.17707,9.86799l-0.03048,-1.18812h-0.03048c-0.51814,0.81408 -1.47315,1.32013 -2.73295,1.32013c-1.96081,0 -3.38316,-1.41914 -3.38316,-3.42134c0,-2.0022 1.42235,-3.44334 3.38316,-3.44334c1.17852,0 2.10305,0.45105 2.63135,1.18812h0.03048v-4.32343h0.95501v9.86799h-0.83309zM6.07547,6.57866c0,-1.51815 -1.0566,-2.59626 -2.55007,-2.59626c-1.49347,0 -2.55007,1.06711 -2.55007,2.59626c0,1.52915 1.0566,2.57426 2.55007,2.57426c1.49347,0 2.55007,-1.05611 2.55007,-2.57426z" transform="translate(50, 38) rotate(0)" vector-effect="non-scaling-stroke"/></g><g><defs><path id="path-1681451069593524" d="M1.3,0.55726c0,0.33058 -0.28,0.55726 -0.65,0.55726c-0.37,0 -0.65,-0.22668 -0.65,-0.55726c0,-0.33058 0.27,-0.55726 0.65,-0.55726c0.38,0 0.65,0.24557 0.65,0.55726zM0,2.35183h0.94v5.64817h-0.94z" vector-effect="non-scaling-stroke"/></defs><path style="stroke-width: 0; stroke-linecap: butt; stroke-linejoin: miter; fill: rgb(255, 255, 255);" d="M1.3,0.55726c0,0.33058 -0.28,0.55726 -0.65,0.55726c-0.37,0 -0.65,-0.22668 -0.65,-0.55726c0,-0.33058 0.27,-0.55726 0.65,-0.55726c0.38,0 0.65,0.24557 0.65,0.55726zM0,2.35183h0.94v5.64817h-0.94z" transform="translate(62, 39) rotate(0)" vector-effect="non-scaling-stroke"/></g><g><defs><path id="path-1681451069592522" d="M84.81000000000027 59.38 C84.53000000000029 59.53 84.13000000000028 59.61 83.67000000000027 59.61 C82.36000000000027 59.61 81.62000000000027 58.89 81.62000000000027 57.62 C81.62000000000027 57.62 81.62000000000027 54.239999999999995 81.62000000000027 54.239999999999995 C81.62000000000027 54.239999999999995 80.35000000000026 54.239999999999995 80.35000000000026 54.239999999999995 C80.35000000000026 54.239999999999995 80.35000000000026 53.49999999999999 80.35000000000026 53.49999999999999 C80.35000000000026 53.49999999999999 81.65000000000028 53.49999999999999 81.65000000000028 53.49999999999999 C81.65000000000028 53.49999999999999 81.81000000000027 51.89999999999999 81.81000000000027 51.89999999999999 C81.81000000000027 51.89999999999999 82.57000000000028 51.89999999999999 82.57000000000028 51.89999999999999 C82.57000000000028 51.89999999999999 82.57000000000028 53.49999999999999 82.57000000000028 53.49999999999999 C82.57000000000028 53.49999999999999 84.78000000000027 53.49999999999999 84.78000000000027 53.49999999999999 C84.78000000000027 53.49999999999999 84.78000000000027 54.239999999999995 84.78000000000027 54.239999999999995 C84.78000000000027 54.239999999999995 82.57000000000028 54.239999999999995 82.57000000000028 54.239999999999995 C82.57000000000028 54.239999999999995 82.57000000000028 57.599999999999994 82.57000000000028 57.599999999999994 C82.57000000000028 58.379999999999995 83.04000000000029 58.839999999999996 83.78000000000029 58.839999999999996 C84.15000000000028 58.839999999999996 84.51000000000029 58.74999999999999 84.77000000000028 58.489999999999995 C84.77000000000028 58.489999999999995 84.81000000000027 58.489999999999995 84.81000000000027 58.489999999999995 C84.81000000000027 58.489999999999995 84.81000000000027 59.37 84.81000000000027 59.37 C84.81000000000027 59.37 84.81000000000027 59.38 84.81000000000027 59.38 Z" vector-effect="non-scaling-stroke"/></defs> <path style="stroke-width: 0; stroke-linecap: butt; stroke-linejoin: miter; fill: rgb(255, 255, 255);" d="M70.88999999999984 47.329999999999984 C70.60999999999984 47.479999999999976 70.20999999999987 47.559999999999974 69.74999999999983 47.559999999999974 C68.43999999999983 47.559999999999974 67.69999999999985 46.839999999999975 67.69999999999985 45.569999999999965 C67.69999999999985 45.569999999999965 67.69999999999985 42.18999999999997 67.69999999999985 42.18999999999997 C67.69999999999985 42.18999999999997 66.42999999999984 42.18999999999997 66.42999999999984 42.18999999999997 C66.42999999999984 42.18999999999997 66.42999999999984 41.44999999999996 66.42999999999984 41.44999999999996 C66.42999999999984 41.44999999999996 67.72999999999985 41.44999999999996 67.72999999999985 41.44999999999996 C67.72999999999985 41.44999999999996 67.88999999999984 39.849999999999966 67.88999999999984 39.849999999999966 C67.88999999999984 39.849999999999966 68.64999999999986 39.849999999999966 68.64999999999986 39.849999999999966 C68.64999999999986 39.849999999999966 68.64999999999986 41.44999999999996 68.64999999999986 41.44999999999996 C68.64999999999986 41.44999999999996 70.85999999999984 41.44999999999996 70.85999999999984 41.44999999999996 C70.85999999999984 41.44999999999996 70.85999999999984 42.18999999999997 70.85999999999984 42.18999999999997 C70.85999999999984 42.18999999999997 68.64999999999986 42.18999999999997 68.64999999999986 42.18999999999997 C68.64999999999986 42.18999999999997 68.64999999999986 45.54999999999997 68.64999999999986 45.54999999999997 C68.64999999999986 46.32999999999997 69.11999999999986 46.789999999999964 69.85999999999984 46.789999999999964 C70.22999999999985 46.789999999999964 70.58999999999986 46.69999999999996 70.84999999999985 46.43999999999997 C70.84999999999985 46.43999999999997 70.88999999999984 46.43999999999997 70.88999999999984 46.43999999999997 C70.88999999999984 46.43999999999997 70.88999999999984 47.319999999999965 70.88999999999984 47.319999999999965 C70.88999999999984 47.319999999999965 70.88999999999984 47.329999999999984 70.88999999999984 47.329999999999984 Z" vector-effect="non-scaling-stroke"/></g><g><defs><path id="path-1681451069592520" d="M95.32000000000076 51.59999999999996 C95.32000000000076 51.59999999999996 95.32000000000076 52.65999999999996 95.32000000000076 52.65999999999996 C95.32000000000076 52.65999999999996 95.26000000000076 52.65999999999996 95.26000000000076 52.65999999999996 C94.64000000000075 52.039999999999964 93.55000000000075 51.69999999999996 92.27000000000075 51.69999999999996 C90.85000000000073 51.69999999999996 89.87000000000072 52.33999999999996 89.87000000000072 53.29999999999996 C89.87000000000072 54.12999999999996 90.45000000000073 54.499999999999964 92.37000000000073 54.679999999999964 C94.92000000000075 54.90999999999996 95.80000000000076 55.609999999999964 95.80000000000076 57.12999999999997 C95.80000000000076 58.64999999999997 94.47000000000077 59.59999999999996 92.29000000000073 59.59999999999996 C90.77000000000073 59.59999999999996 89.53000000000071 59.279999999999966 88.7500000000007 58.679999999999964 C88.7500000000007 58.679999999999964 88.7500000000007 57.62999999999997 88.7500000000007 57.62999999999997 C88.7500000000007 57.62999999999997 88.81000000000071 57.62999999999997 88.81000000000071 57.62999999999997 C89.64000000000071 58.359999999999964 90.84000000000071 58.73999999999997 92.29000000000073 58.73999999999997 C93.84000000000074 58.73999999999997 94.76000000000076 58.139999999999965 94.76000000000076 57.139999999999965 C94.76000000000076 56.22999999999997 94.14000000000075 55.819999999999965 92.14000000000073 55.62999999999997 C89.66000000000071 55.39999999999997 88.84000000000071 54.749999999999964 88.84000000000071 53.33999999999997 C88.84000000000071 51.82999999999997 90.21000000000072 50.83999999999997 92.30000000000072 50.83999999999997 C93.58000000000074 50.83999999999997 94.73000000000076 51.11999999999997 95.33000000000075 51.599999999999966" vector-effect="non-scaling-stroke"/></defs> <path style="stroke-width: 0; stroke-linecap: butt; stroke-linejoin: miter; fill: rgb(255, 255, 255);" d="M81.39999999999998 39.54999999999997 C81.39999999999998 39.54999999999997 81.39999999999998 40.60999999999997 81.39999999999998 40.60999999999997 C81.39999999999998 40.60999999999997 81.33999999999997 40.60999999999997 81.33999999999997 40.60999999999997 C80.71999999999997 39.98999999999998 79.63 39.64999999999998 78.34999999999997 39.64999999999998 C76.92999999999995 39.64999999999998 75.94999999999993 40.289999999999964 75.94999999999993 41.24999999999997 C75.94999999999993 42.07999999999997 76.52999999999997 42.449999999999974 78.44999999999996 42.62999999999997 C81 42.85999999999997 81.88 43.559999999999974 81.88 45.079999999999984 C81.88 46.59999999999998 80.55000000000001 47.54999999999997 78.36999999999995 47.54999999999997 C76.84999999999997 47.54999999999997 75.60999999999996 47.229999999999976 74.82999999999993 46.62999999999997 C74.82999999999993 46.62999999999997 74.82999999999993 45.579999999999984 74.82999999999993 45.579999999999984 C74.82999999999993 45.579999999999984 74.88999999999993 45.579999999999984 74.88999999999993 45.579999999999984 C75.71999999999994 46.309999999999974 76.91999999999996 46.68999999999997 78.36999999999995 46.68999999999997 C79.91999999999996 46.68999999999997 80.83999999999997 46.089999999999975 80.83999999999997 45.089999999999975 C80.83999999999997 44.17999999999998 80.21999999999997 43.76999999999998 78.21999999999997 43.579999999999984 C75.73999999999995 43.34999999999998 74.91999999999996 42.699999999999974 74.91999999999996 41.28999999999998 C74.91999999999996 39.77999999999997 76.28999999999996 38.78999999999998 78.37999999999994 38.78999999999998 C79.65999999999997 38.78999999999998 80.81 39.06999999999998 81.40999999999997 39.54999999999998" vector-effect="non-scaling-stroke"/></g><g><defs><path id="path-1681451069591518" d="M103.75999999999966 59.38 C103.47999999999966 59.53 103.07999999999966 59.61 102.61999999999968 59.61 C101.30999999999968 59.61 100.56999999999968 58.89 100.56999999999968 57.62 C100.56999999999968 57.62 100.56999999999968 54.239999999999995 100.56999999999968 54.239999999999995 C100.56999999999968 54.239999999999995 99.29999999999968 54.239999999999995 99.29999999999968 54.239999999999995 C99.29999999999968 54.239999999999995 99.29999999999968 53.49999999999999 99.29999999999968 53.49999999999999 C99.29999999999968 53.49999999999999 100.59999999999968 53.49999999999999 100.59999999999968 53.49999999999999 C100.59999999999968 53.49999999999999 100.75999999999968 51.89999999999999 100.75999999999968 51.89999999999999 C100.75999999999968 51.89999999999999 101.51999999999968 51.89999999999999 101.51999999999968 51.89999999999999 C101.51999999999968 51.89999999999999 101.51999999999968 53.49999999999999 101.51999999999968 53.49999999999999 C101.51999999999968 53.49999999999999 103.72999999999966 53.49999999999999 103.72999999999966 53.49999999999999 C103.72999999999966 53.49999999999999 103.72999999999966 54.239999999999995 103.72999999999966 54.239999999999995 C103.72999999999966 54.239999999999995 101.51999999999968 54.239999999999995 101.51999999999968 54.239999999999995 C101.51999999999968 54.239999999999995 101.51999999999968 57.599999999999994 101.51999999999968 57.599999999999994 C101.51999999999968 58.379999999999995 101.98999999999968 58.839999999999996 102.72999999999968 58.839999999999996 C103.09999999999967 58.839999999999996 103.45999999999968 58.74999999999999 103.71999999999967 58.489999999999995 C103.71999999999967 58.489999999999995 103.75999999999966 58.489999999999995 103.75999999999966 58.489999999999995 C103.75999999999966 58.489999999999995 103.75999999999966 59.37 103.75999999999966 59.37 C103.75999999999966 59.37 103.75999999999966 59.38 103.75999999999966 59.38 Z" vector-effect="non-scaling-stroke"/></defs> <path style="stroke-width: 0; stroke-linecap: butt; stroke-linejoin: miter; fill: rgb(255, 255, 255);" d="M89.84000000000009 47.329999999999984 C89.56000000000009 47.479999999999976 89.16000000000008 47.559999999999974 88.7000000000001 47.559999999999974 C87.3900000000001 47.559999999999974 86.65000000000009 46.839999999999975 86.65000000000009 45.569999999999965 C86.65000000000009 45.569999999999965 86.65000000000009 42.18999999999997 86.65000000000009 42.18999999999997 C86.65000000000009 42.18999999999997 85.38000000000011 42.18999999999997 85.38000000000011 42.18999999999997 C85.38000000000011 42.18999999999997 85.38000000000011 41.44999999999996 85.38000000000011 41.44999999999996 C85.38000000000011 41.44999999999996 86.68000000000012 41.44999999999996 86.68000000000012 41.44999999999996 C86.68000000000012 41.44999999999996 86.84000000000009 39.849999999999966 86.84000000000009 39.849999999999966 C86.84000000000009 39.849999999999966 87.60000000000011 39.849999999999966 87.60000000000011 39.849999999999966 C87.60000000000011 39.849999999999966 87.60000000000011 41.44999999999996 87.60000000000011 41.44999999999996 C87.60000000000011 41.44999999999996 89.81000000000009 41.44999999999996 89.81000000000009 41.44999999999996 C89.81000000000009 41.44999999999996 89.81000000000009 42.18999999999997 89.81000000000009 42.18999999999997 C89.81000000000009 42.18999999999997 87.60000000000011 42.18999999999997 87.60000000000011 42.18999999999997 C87.60000000000011 42.18999999999997 87.60000000000011 45.54999999999997 87.60000000000011 45.54999999999997 C87.60000000000011 46.32999999999997 88.0700000000001 46.789999999999964 88.81000000000012 46.789999999999964 C89.18000000000009 46.789999999999964 89.5400000000001 46.69999999999996 89.8000000000001 46.43999999999997 C89.8000000000001 46.43999999999997 89.84000000000009 46.43999999999997 89.84000000000009 46.43999999999997 C89.84000000000009 46.43999999999997 89.84000000000009 47.319999999999965 89.84000000000009 47.319999999999965 C89.84000000000009 47.319999999999965 89.84000000000009 47.329999999999984 89.84000000000009 47.329999999999984 Z" vector-effect="non-scaling-stroke"/></g><g><defs><path id="path-1681451069591516" d="M112.0800000000008 53.599999999999945 C112.0800000000008 53.599999999999945 112.0800000000008 54.469999999999935 112.0800000000008 54.469999999999935 C112.0800000000008 54.469999999999935 112.04000000000079 54.469999999999935 112.04000000000079 54.469999999999935 C111.74000000000078 54.279999999999944 111.4100000000008 54.18999999999994 111.00000000000077 54.18999999999994 C109.69000000000077 54.18999999999994 109.02000000000076 55.04999999999993 109.02000000000076 56.689999999999934 C109.02000000000076 56.689999999999934 109.02000000000076 59.47999999999993 109.02000000000076 59.47999999999993 C109.02000000000076 59.47999999999993 108.08000000000075 59.47999999999993 108.08000000000075 59.47999999999993 C108.08000000000075 59.47999999999993 108.08000000000075 53.49999999999994 108.08000000000075 53.49999999999994 C108.08000000000075 53.49999999999994 108.90000000000074 53.49999999999994 108.90000000000074 53.49999999999994 C108.90000000000074 53.49999999999994 108.93000000000075 54.579999999999934 108.93000000000075 54.579999999999934 C109.32000000000076 53.78999999999994 110.02000000000076 53.37999999999994 111.07000000000076 53.37999999999994 C111.51000000000077 53.37999999999994 111.85000000000079 53.47999999999994 112.09000000000079 53.609999999999935" vector-effect="non-scaling-stroke"/></defs> <path style="stroke-width: 0; stroke-linecap: butt; stroke-linejoin: miter; fill: rgb(255, 255, 255);" d="M98.15999999999991 41.549999999999926 C98.15999999999991 41.549999999999926 98.15999999999991 42.41999999999993 98.15999999999991 42.41999999999993 C98.15999999999991 42.41999999999993 98.11999999999989 42.41999999999993 98.11999999999989 42.41999999999993 C97.81999999999988 42.22999999999993 97.4899999999999 42.13999999999993 97.07999999999987 42.13999999999993 C95.76999999999987 42.13999999999993 95.09999999999985 42.999999999999915 95.09999999999985 44.63999999999993 C95.09999999999985 44.63999999999993 95.09999999999985 47.42999999999992 95.09999999999985 47.42999999999992 C95.09999999999985 47.42999999999992 94.15999999999985 47.42999999999992 94.15999999999985 47.42999999999992 C94.15999999999985 47.42999999999992 94.15999999999985 41.44999999999993 94.15999999999985 41.44999999999993 C94.15999999999985 41.44999999999993 94.97999999999985 41.44999999999993 94.97999999999985 41.44999999999993 C94.97999999999985 41.44999999999993 95.00999999999985 42.529999999999916 95.00999999999985 42.529999999999916 C95.39999999999986 41.739999999999924 96.09999999999985 41.32999999999993 97.14999999999986 41.32999999999993 C97.58999999999986 41.32999999999993 97.9299999999999 41.42999999999992 98.1699999999999 41.55999999999992" vector-effect="non-scaling-stroke"/></g><g><defs><path id="path-1681451069591514" d="M7,3.51122c0,2.04167 -1.46043,3.48878 -3.50504,3.48878c-2.0446,0 -3.49496,-1.44712 -3.49496,-3.48878c0,-2.04167 1.45036,-3.51122 3.49496,-3.51122c2.0446,0 3.50504,1.44712 3.50504,3.51122zM0.96691,3.51122c0,1.54808 1.04748,2.625 2.52806,2.625c1.48058,0 2.53813,-1.07692 2.53813,-2.625c0,-1.54808 -1.04748,-2.64744 -2.53813,-2.64744c-1.49065,0 -2.52806,1.08814 -2.52806,2.64744z" vector-effect="non-scaling-stroke"/></defs><path style="stroke-width: 0; stroke-linecap: butt; stroke-linejoin: miter; fill: rgb(255, 255, 255);" d="M7,3.51122c0,2.04167 -1.46043,3.48878 -3.50504,3.48878c-2.0446,0 -3.49496,-1.44712 -3.49496,-3.48878c0,-2.04167 1.45036,-3.51122 3.49496,-3.51122c2.0446,0 3.50504,1.44712 3.50504,3.51122zM0.96691,3.51122c0,1.54808 1.04748,2.625 2.52806,2.625c1.48058,0 2.53813,-1.07692 2.53813,-2.625c0,-1.54808 -1.04748,-2.64744 -2.53813,-2.64744c-1.49065,0 -2.52806,1.08814 -2.52806,2.64744z" transform="translate(101, 41) rotate(0)" vector-effect="non-scaling-stroke"/></g><g><defs><path id="path-1681451069590512" d="M132.83000000000064 56.039999999999935 C132.83000000000064 56.039999999999935 132.83000000000064 59.48999999999994 132.83000000000064 59.48999999999994 C132.83000000000064 59.48999999999994 131.89000000000064 59.48999999999994 131.89000000000064 59.48999999999994 C131.89000000000064 59.48999999999994 131.89000000000064 56.12999999999994 131.89000000000064 56.12999999999994 C131.89000000000064 54.88999999999994 131.1400000000006 54.139999999999944 129.8700000000006 54.139999999999944 C128.5200000000006 54.139999999999944 127.6700000000006 55.009999999999934 127.6700000000006 56.40999999999994 C127.6700000000006 56.40999999999994 127.6700000000006 59.48999999999994 127.6700000000006 59.48999999999994 C127.6700000000006 59.48999999999994 126.7200000000006 59.48999999999994 126.7200000000006 59.48999999999994 C126.7200000000006 59.48999999999994 126.7200000000006 53.50999999999995 126.7200000000006 53.50999999999995 C126.7200000000006 53.50999999999995 127.5400000000006 53.50999999999995 127.5400000000006 53.50999999999995 C127.5400000000006 53.50999999999995 127.5700000000006 54.56999999999994 127.5700000000006 54.56999999999994 C127.5700000000006 54.56999999999994 127.60000000000058 54.56999999999994 127.60000000000058 54.56999999999994 C128.0700000000006 53.79999999999995 128.9100000000006 53.37999999999995 130.07000000000062 53.37999999999995 C131.7800000000006 53.37999999999995 132.8300000000006 54.38999999999995 132.8300000000006 56.04999999999995" vector-effect="non-scaling-stroke"/></defs> <path style="stroke-width: 0; stroke-linecap: butt; stroke-linejoin: miter; fill: rgb(255, 255, 255);" d="M118.90999999999977 43.98999999999991 C118.90999999999977 43.98999999999991 118.90999999999977 47.43999999999991 118.90999999999977 47.43999999999991 C118.90999999999977 47.43999999999991 117.96999999999977 47.43999999999991 117.96999999999977 47.43999999999991 C117.96999999999977 47.43999999999991 117.96999999999977 44.07999999999991 117.96999999999977 44.07999999999991 C117.96999999999977 42.83999999999992 117.21999999999974 42.08999999999992 115.94999999999973 42.08999999999992 C114.59999999999974 42.08999999999992 113.74999999999972 42.95999999999991 113.74999999999972 44.359999999999914 C113.74999999999972 44.359999999999914 113.74999999999972 47.43999999999991 113.74999999999972 47.43999999999991 C113.74999999999972 47.43999999999991 112.79999999999973 47.43999999999991 112.79999999999973 47.43999999999991 C112.79999999999973 47.43999999999991 112.79999999999973 41.45999999999992 112.79999999999973 41.45999999999992 C112.79999999999973 41.45999999999992 113.61999999999972 41.45999999999992 113.61999999999972 41.45999999999992 C113.61999999999972 41.45999999999992 113.64999999999975 42.519999999999925 113.64999999999975 42.519999999999925 C113.64999999999975 42.519999999999925 113.67999999999972 42.519999999999925 113.67999999999972 42.519999999999925 C114.14999999999972 41.749999999999915 114.98999999999972 41.32999999999993 116.14999999999975 41.32999999999993 C117.85999999999973 41.32999999999993 118.90999999999974 42.33999999999992 118.90999999999974 43.999999999999915" vector-effect="non-scaling-stroke"/></g><g><defs><path id="path-1681451069590510" d="M7,5.84793c0,1.98041 -1.31884,3.15207 -3.56087,3.15207c-1.18696,0 -2.20145,-0.3318 -2.82029,-0.88134v-0.94355h0.04058c0.56812,0.65323 1.53188,1.0265 2.68841,1.0265c1.71449,0 2.68841,-0.85023 2.68841,-2.39516v-0.47696h-0.03043c-0.52754,0.6947 -1.44058,1.09908 -2.62754,1.09908c-1.95797,0 -3.37826,-1.32719 -3.37826,-3.21429c0,-1.8871 1.42029,-3.21429 3.37826,-3.21429c1.25797,0 2.22174,0.47696 2.72899,1.26498h0.03043l0.03043,-1.13018h0.83188zM6.06667,3.21429c0,-1.43088 -1.05507,-2.4159 -2.54638,-2.4159c-1.4913,0 -2.54638,0.98502 -2.54638,2.4159c0,1.43088 1.05507,2.4159 2.54638,2.4159c1.4913,0 2.54638,-0.98502 2.54638,-2.4159z" vector-effect="non-scaling-stroke"/></defs><path style="stroke-width: 0; stroke-linecap: butt; stroke-linejoin: miter; fill: rgb(255, 255, 255);" d="M7,5.84793c0,1.98041 -1.31884,3.15207 -3.56087,3.15207c-1.18696,0 -2.20145,-0.3318 -2.82029,-0.88134v-0.94355h0.04058c0.56812,0.65323 1.53188,1.0265 2.68841,1.0265c1.71449,0 2.68841,-0.85023 2.68841,-2.39516v-0.47696h-0.03043c-0.52754,0.6947 -1.44058,1.09908 -2.62754,1.09908c-1.95797,0 -3.37826,-1.32719 -3.37826,-3.21429c0,-1.8871 1.42029,-3.21429 3.37826,-3.21429c1.25797,0 2.22174,0.47696 2.72899,1.26498h0.03043l0.03043,-1.13018h0.83188zM6.06667,3.21429c0,-1.43088 -1.05507,-2.4159 -2.54638,-2.4159c-1.4913,0 -2.54638,0.98502 -2.54638,2.4159c0,1.43088 1.05507,2.4159 2.54638,2.4159c1.4913,0 2.54638,-0.98502 2.54638,-2.4159z" transform="translate(124, 41) rotate(0)" vector-effect="non-scaling-stroke"/></g><g><defs><path id="path-1681451069590508" d="M3.85144,0c2.07978,0 3.14856,0.84606 3.14856,2.47239c0,1.62632 -1.06878,2.45358 -3.14856,2.45358h-2.85007v3.07403h-1.00138v-8h3.86107zM3.81293,4.11751c1.45392,0 2.17607,-0.55464 2.17607,-1.65452c0,-1.09988 -0.72215,-1.66392 -2.17607,-1.66392h-2.81155v3.30905h2.81155z" vector-effect="non-scaling-stroke"/></defs><path style="stroke-width: 0; stroke-linecap: butt; stroke-linejoin: miter; fill: rgb(255, 255, 255);" d="M3.85144,0c2.07978,0 3.14856,0.84606 3.14856,2.47239c0,1.62632 -1.06878,2.45358 -3.14856,2.45358h-2.85007v3.07403h-1.00138v-8h3.86107zM3.81293,4.11751c1.45392,0 2.17607,-0.55464 2.17607,-1.65452c0,-1.09988 -0.72215,-1.66392 -2.17607,-1.66392h-2.81155v3.30905h2.81155z" transform="translate(141, 39) rotate(0)" vector-effect="non-scaling-stroke"/></g><g><defs><path id="path-1681451069589506" d="M170.31000000000003 53.599999999999945 C170.31000000000003 53.599999999999945 170.31000000000003 54.469999999999935 170.31000000000003 54.469999999999935 C170.31000000000003 54.469999999999935 170.27 54.469999999999935 170.27 54.469999999999935 C169.97 54.279999999999944 169.64000000000001 54.18999999999994 169.23000000000002 54.18999999999994 C167.92000000000002 54.18999999999994 167.25000000000003 55.04999999999993 167.25000000000003 56.689999999999934 C167.25000000000003 56.689999999999934 167.25000000000003 59.47999999999993 167.25000000000003 59.47999999999993 C167.25000000000003 59.47999999999993 166.31000000000003 59.47999999999993 166.31000000000003 59.47999999999993 C166.31000000000003 59.47999999999993 166.31000000000003 53.49999999999994 166.31000000000003 53.49999999999994 C166.31000000000003 53.49999999999994 167.13000000000005 53.49999999999994 167.13000000000005 53.49999999999994 C167.13000000000005 53.49999999999994 167.16000000000003 54.579999999999934 167.16000000000003 54.579999999999934 C167.55000000000004 53.78999999999994 168.25000000000003 53.37999999999994 169.3 53.37999999999994 C169.74 53.37999999999994 170.08 53.47999999999994 170.32000000000002 53.609999999999935" vector-effect="non-scaling-stroke"/></defs> <path style="stroke-width: 0; stroke-linecap: butt; stroke-linejoin: miter; fill: rgb(255, 255, 255);" d="M156.38999999999987 41.549999999999926 C156.38999999999987 41.549999999999926 156.38999999999987 42.41999999999993 156.38999999999987 42.41999999999993 C156.38999999999987 42.41999999999993 156.34999999999985 42.41999999999993 156.34999999999985 42.41999999999993 C156.04999999999984 42.22999999999993 155.71999999999986 42.13999999999993 155.30999999999983 42.13999999999993 C153.9999999999999 42.13999999999993 153.32999999999987 42.999999999999915 153.32999999999987 44.63999999999993 C153.32999999999987 44.63999999999993 153.32999999999987 47.42999999999992 153.32999999999987 47.42999999999992 C153.32999999999987 47.42999999999992 152.38999999999987 47.42999999999992 152.38999999999987 47.42999999999992 C152.38999999999987 47.42999999999992 152.38999999999987 41.44999999999993 152.38999999999987 41.44999999999993 C152.38999999999987 41.44999999999993 153.20999999999992 41.44999999999993 153.20999999999992 41.44999999999993 C153.20999999999992 41.44999999999993 153.2399999999999 42.529999999999916 153.2399999999999 42.529999999999916 C153.62999999999988 41.739999999999924 154.32999999999987 41.32999999999993 155.37999999999988 41.32999999999993 C155.81999999999982 41.32999999999993 156.15999999999985 41.42999999999992 156.39999999999986 41.55999999999992" vector-effect="non-scaling-stroke"/></g><g><defs><path id="path-1681451069589504" d="M7,3.51122c0,2.04167 -1.46043,3.48878 -3.50504,3.48878c-2.0446,0 -3.49496,-1.44712 -3.49496,-3.48878c0,-2.04167 1.45036,-3.51122 3.49496,-3.51122c2.0446,0 3.50504,1.44712 3.50504,3.51122zM0.96691,3.51122c0,1.54808 1.04748,2.625 2.52806,2.625c1.48058,0 2.53813,-1.07692 2.53813,-2.625c0,-1.54808 -1.04748,-2.64744 -2.53813,-2.64744c-1.49065,0 -2.52806,1.08814 -2.52806,2.64744z" vector-effect="non-scaling-stroke"/></defs><path style="stroke-width: 0; stroke-linecap: butt; stroke-linejoin: miter; fill: rgb(255, 255, 255);" d="M7,3.51122c0,2.04167 -1.46043,3.48878 -3.50504,3.48878c-2.0446,0 -3.49496,-1.44712 -3.49496,-3.48878c0,-2.04167 1.45036,-3.51122 3.49496,-3.51122c2.0446,0 3.50504,1.44712 3.50504,3.51122zM0.96691,3.51122c0,1.54808 1.04748,2.625 2.52806,2.625c1.48058,0 2.53813,-1.07692 2.53813,-2.625c0,-1.54808 -1.04748,-2.64744 -2.53813,-2.64744c-1.49065,0 -2.52806,1.08814 -2.52806,2.64744z" transform="translate(160, 41) rotate(0)" vector-effect="non-scaling-stroke"/></g><g><defs><path id="path-1681451069589502" d="M6.17707,9.86799l-0.03048,-1.18812h-0.03048c-0.51814,0.81408 -1.47315,1.32013 -2.73295,1.32013c-1.96081,0 -3.38316,-1.41914 -3.38316,-3.42134c0,-2.0022 1.42235,-3.44334 3.38316,-3.44334c1.17852,0 2.10305,0.45105 2.63135,1.18812h0.03048v-4.32343h0.95501v9.86799h-0.83309zM6.07547,6.57866c0,-1.51815 -1.0566,-2.59626 -2.55007,-2.59626c-1.49347,0 -2.55007,1.06711 -2.55007,2.59626c0,1.52915 1.0566,2.57426 2.55007,2.57426c1.49347,0 2.55007,-1.05611 2.55007,-2.57426z" vector-effect="non-scaling-stroke"/></defs><path style="stroke-width: 0; stroke-linecap: butt; stroke-linejoin: miter; fill: rgb(255, 255, 255);" d="M6.17707,9.86799l-0.03048,-1.18812h-0.03048c-0.51814,0.81408 -1.47315,1.32013 -2.73295,1.32013c-1.96081,0 -3.38316,-1.41914 -3.38316,-3.42134c0,-2.0022 1.42235,-3.44334 3.38316,-3.44334c1.17852,0 2.10305,0.45105 2.63135,1.18812h0.03048v-4.32343h0.95501v9.86799h-0.83309zM6.07547,6.57866c0,-1.51815 -1.0566,-2.59626 -2.55007,-2.59626c-1.49347,0 -2.55007,1.06711 -2.55007,2.59626c0,1.52915 1.0566,2.57426 2.55007,2.57426c1.49347,0 2.55007,-1.05611 2.55007,-2.57426z" transform="translate(170, 38) rotate(0)" vector-effect="non-scaling-stroke"/></g><g><defs><path id="path-1681451069588500" d="M201.33 59.49 C201.33 59.49 201.29000000000002 58.410000000000004 201.29000000000002 58.410000000000004 C201.29000000000002 58.410000000000004 201.26000000000002 58.410000000000004 201.26000000000002 58.410000000000004 C200.79000000000002 59.18000000000001 199.95000000000002 59.61000000000001 198.79000000000002 59.61000000000001 C197.08 59.61000000000001 196.04000000000002 58.61000000000001 196.04000000000002 56.96000000000001 C196.04000000000002 56.96000000000001 196.04000000000002 53.50000000000001 196.04000000000002 53.50000000000001 C196.04000000000002 53.50000000000001 196.98000000000002 53.50000000000001 196.98000000000002 53.50000000000001 C196.98000000000002 53.50000000000001 196.98000000000002 56.86000000000001 196.98000000000002 56.86000000000001 C196.98000000000002 58.120000000000005 197.74 58.85000000000001 198.98000000000002 58.85000000000001 C200.33 58.85000000000001 201.18 57.99000000000001 201.18 56.580000000000005 C201.18 56.580000000000005 201.18 53.50000000000001 201.18 53.50000000000001 C201.18 53.50000000000001 202.12 53.50000000000001 202.12 53.50000000000001 C202.12 53.50000000000001 202.12 59.480000000000004 202.12 59.480000000000004 C202.12 59.480000000000004 201.32 59.480000000000004 201.32 59.480000000000004 C201.32 59.480000000000004 201.33 59.49 201.33 59.49 Z" vector-effect="non-scaling-stroke"/></defs> <path style="stroke-width: 0; stroke-linecap: butt; stroke-linejoin: miter; fill: rgb(255, 255, 255);" d="M187.40999999999985 47.43999999999998 C187.40999999999985 47.43999999999998 187.3699999999999 46.359999999999985 187.3699999999999 46.359999999999985 C187.3699999999999 46.359999999999985 187.33999999999992 46.359999999999985 187.33999999999992 46.359999999999985 C186.8699999999999 47.129999999999995 186.02999999999986 47.55999999999999 184.8699999999999 47.55999999999999 C183.15999999999985 47.55999999999999 182.1199999999999 46.55999999999999 182.1199999999999 44.91 C182.1199999999999 44.91 182.1199999999999 41.44999999999999 182.1199999999999 41.44999999999999 C182.1199999999999 41.44999999999999 183.0599999999999 41.44999999999999 183.0599999999999 41.44999999999999 C183.0599999999999 41.44999999999999 183.0599999999999 44.80999999999999 183.0599999999999 44.80999999999999 C183.0599999999999 46.06999999999999 183.81999999999988 46.79999999999998 185.0599999999999 46.79999999999998 C186.40999999999985 46.79999999999998 187.25999999999988 45.94 187.25999999999988 44.52999999999999 C187.25999999999988 44.52999999999999 187.25999999999988 41.44999999999999 187.25999999999988 41.44999999999999 C187.25999999999988 41.44999999999999 188.19999999999987 41.44999999999999 188.19999999999987 41.44999999999999 C188.19999999999987 41.44999999999999 188.19999999999987 47.42999999999998 188.19999999999987 47.42999999999998 C188.19999999999987 47.42999999999998 187.39999999999986 47.42999999999998 187.39999999999986 47.42999999999998 C187.39999999999986 47.42999999999998 187.40999999999985 47.43999999999998 187.40999999999985 47.43999999999998 Z" vector-effect="non-scaling-stroke"/></g><g><defs><path id="path-1681451069588498" d="M212.20000000000104 54.010000000000055 C212.20000000000104 54.010000000000055 212.20000000000104 54.97000000000006 212.20000000000104 54.97000000000006 C212.20000000000104 54.97000000000006 212.16000000000108 54.97000000000006 212.16000000000108 54.97000000000006 C211.64000000000104 54.41000000000006 210.96000000000106 54.14000000000006 210.09000000000106 54.14000000000006 C208.47000000000105 54.14000000000006 207.44000000000102 55.11000000000006 207.44000000000102 56.500000000000064 C207.44000000000102 57.890000000000065 208.47000000000105 58.84000000000007 210.09000000000106 58.84000000000007 C210.96000000000106 58.84000000000007 211.66000000000105 58.570000000000064 212.16000000000108 58.01000000000007 C212.16000000000108 58.01000000000007 212.20000000000104 58.01000000000007 212.20000000000104 58.01000000000007 C212.20000000000104 58.01000000000007 212.20000000000104 58.98000000000007 212.20000000000104 58.98000000000007 C211.69000000000105 59.40000000000007 210.93000000000103 59.61000000000007 210.00000000000102 59.61000000000007 C207.87000000000103 59.61000000000007 206.47000000000102 58.30000000000007 206.47000000000102 56.50000000000007 C206.47000000000102 54.700000000000074 207.87000000000103 53.37000000000006 210.00000000000102 53.37000000000006 C210.93000000000106 53.37000000000006 211.68000000000106 53.59000000000006 212.20000000000104 54.01000000000006" vector-effect="non-scaling-stroke"/></defs> <path style="stroke-width: 0; stroke-linecap: butt; stroke-linejoin: miter; fill: rgb(255, 255, 255);" d="M198.2800000000002 41.960000000000036 C198.2800000000002 41.960000000000036 198.2800000000002 42.920000000000044 198.2800000000002 42.920000000000044 C198.2800000000002 42.920000000000044 198.24000000000024 42.920000000000044 198.24000000000024 42.920000000000044 C197.7200000000002 42.36000000000004 197.0400000000002 42.090000000000046 196.1700000000002 42.090000000000046 C194.55000000000018 42.090000000000046 193.5200000000002 43.06000000000006 193.5200000000002 44.450000000000045 C193.5200000000002 45.84000000000006 194.55000000000018 46.79000000000005 196.1700000000002 46.79000000000005 C197.0400000000002 46.79000000000005 197.74000000000024 46.52000000000005 198.24000000000024 45.960000000000065 C198.24000000000024 45.960000000000065 198.2800000000002 45.960000000000065 198.2800000000002 45.960000000000065 C198.2800000000002 45.960000000000065 198.2800000000002 46.930000000000064 198.2800000000002 46.930000000000064 C197.7700000000002 47.35000000000005 197.01000000000022 47.56000000000006 196.08000000000015 47.56000000000006 C193.95000000000016 47.56000000000006 192.55000000000018 46.25000000000006 192.55000000000018 44.45000000000006 C192.55000000000018 42.65000000000006 193.95000000000016 41.32000000000005 196.08000000000015 41.32000000000005 C197.01000000000022 41.32000000000005 197.76000000000022 41.54000000000005 198.2800000000002 41.96000000000005" vector-effect="non-scaling-stroke"/></g><g><defs><path id="path-1681451069588496" d="M220.3300000000014 59.38 C220.0500000000014 59.53 219.65000000000143 59.61 219.19000000000142 59.61 C217.8800000000014 59.61 217.14000000000138 58.89 217.14000000000138 57.62 C217.14000000000138 57.62 217.14000000000138 54.239999999999995 217.14000000000138 54.239999999999995 C217.14000000000138 54.239999999999995 215.8700000000014 54.239999999999995 215.8700000000014 54.239999999999995 C215.8700000000014 54.239999999999995 215.8700000000014 53.49999999999999 215.8700000000014 53.49999999999999 C215.8700000000014 53.49999999999999 217.17000000000138 53.49999999999999 217.17000000000138 53.49999999999999 C217.17000000000138 53.49999999999999 217.33000000000138 51.89999999999999 217.33000000000138 51.89999999999999 C217.33000000000138 51.89999999999999 218.0900000000014 51.89999999999999 218.0900000000014 51.89999999999999 C218.0900000000014 51.89999999999999 218.0900000000014 53.49999999999999 218.0900000000014 53.49999999999999 C218.0900000000014 53.49999999999999 220.30000000000143 53.49999999999999 220.30000000000143 53.49999999999999 C220.30000000000143 53.49999999999999 220.30000000000143 54.239999999999995 220.30000000000143 54.239999999999995 C220.30000000000143 54.239999999999995 218.0900000000014 54.239999999999995 218.0900000000014 54.239999999999995 C218.0900000000014 54.239999999999995 218.0900000000014 57.599999999999994 218.0900000000014 57.599999999999994 C218.0900000000014 58.379999999999995 218.5600000000014 58.839999999999996 219.3000000000014 58.839999999999996 C219.6700000000014 58.839999999999996 220.0300000000014 58.74999999999999 220.2900000000014 58.489999999999995 C220.2900000000014 58.489999999999995 220.3300000000014 58.489999999999995 220.3300000000014 58.489999999999995 C220.3300000000014 58.489999999999995 220.3300000000014 59.37 220.3300000000014 59.37 C220.3300000000014 59.37 220.3300000000014 59.38 220.3300000000014 59.38 Z" vector-effect="non-scaling-stroke"/></defs> <path style="stroke-width: 0; stroke-linecap: butt; stroke-linejoin: miter; fill: rgb(255, 255, 255);" d="M206.40999999999985 47.329999999999984 C206.12999999999982 47.479999999999976 205.72999999999985 47.559999999999974 205.26999999999987 47.559999999999974 C203.9599999999998 47.559999999999974 203.2199999999998 46.839999999999975 203.2199999999998 45.569999999999965 C203.2199999999998 45.569999999999965 203.2199999999998 42.18999999999997 203.2199999999998 42.18999999999997 C203.2199999999998 42.18999999999997 201.94999999999982 42.18999999999997 201.94999999999982 42.18999999999997 C201.94999999999982 42.18999999999997 201.94999999999982 41.44999999999996 201.94999999999982 41.44999999999996 C201.94999999999982 41.44999999999996 203.24999999999977 41.44999999999996 203.24999999999977 41.44999999999996 C203.24999999999977 41.44999999999996 203.4099999999998 39.849999999999966 203.4099999999998 39.849999999999966 C203.4099999999998 39.849999999999966 204.16999999999985 39.849999999999966 204.16999999999985 39.849999999999966 C204.16999999999985 39.849999999999966 204.16999999999985 41.44999999999996 204.16999999999985 41.44999999999996 C204.16999999999985 41.44999999999996 206.37999999999988 41.44999999999996 206.37999999999988 41.44999999999996 C206.37999999999988 41.44999999999996 206.37999999999988 42.18999999999997 206.37999999999988 42.18999999999997 C206.37999999999988 42.18999999999997 204.16999999999985 42.18999999999997 204.16999999999985 42.18999999999997 C204.16999999999985 42.18999999999997 204.16999999999985 45.54999999999997 204.16999999999985 45.54999999999997 C204.16999999999985 46.32999999999997 204.63999999999982 46.789999999999964 205.37999999999982 46.789999999999964 C205.74999999999983 46.789999999999964 206.1099999999998 46.69999999999996 206.36999999999983 46.43999999999997 C206.36999999999983 46.43999999999997 206.40999999999985 46.43999999999997 206.40999999999985 46.43999999999997 C206.40999999999985 46.43999999999997 206.40999999999985 47.319999999999965 206.40999999999985 47.319999999999965 C206.40999999999985 47.319999999999965 206.40999999999985 47.329999999999984 206.40999999999985 47.329999999999984 Z" vector-effect="non-scaling-stroke"/></g><g><defs><path id="path-1681451069717848" d="M44.33000000000002 43.92000000000001 C44.33000000000002 43.92000000000001 44.33000000000002 20.840000000000003 44.33000000000002 20.840000000000003 C44.33000000000002 20.840000000000003 44.240000000000016 20.840000000000003 44.240000000000016 20.840000000000003 C44.240000000000016 20.840000000000003 35.38000000000002 43.92000000000001 35.38000000000002 43.92000000000001 C35.38000000000002 43.92000000000001 29.19000000000001 43.92000000000001 29.19000000000001 43.92000000000001 C29.19000000000001 43.92000000000001 20.610000000000007 21.490000000000002 20.610000000000007 21.490000000000002 C20.610000000000007 21.490000000000002 20.520000000000007 21.490000000000002 20.520000000000007 21.490000000000002 C20.520000000000007 21.490000000000002 20.520000000000007 43.92000000000001 20.520000000000007 43.92000000000001 C20.520000000000007 43.92000000000001 13.920000000000007 43.92000000000001 13.920000000000007 43.92000000000001 C13.920000000000007 43.92000000000001 13.920000000000007 13.270000000000003 13.920000000000007 13.270000000000003 C13.920000000000007 13.270000000000003 24.16000000000001 13.270000000000003 24.16000000000001 13.270000000000003 C24.16000000000001 13.270000000000003 32.38000000000002 34.64000000000001 32.38000000000002 34.64000000000001 C32.38000000000002 34.64000000000001 32.47000000000001 34.64000000000001 32.47000000000001 34.64000000000001 C32.47000000000001 34.64000000000001 40.69000000000001 13.270000000000003 40.69000000000001 13.270000000000003 C40.69000000000001 13.270000000000003 51.16000000000002 13.270000000000003 51.16000000000002 13.270000000000003 C51.16000000000002 13.270000000000003 51.16000000000002 43.92000000000001 51.16000000000002 43.92000000000001 C51.16000000000002 43.92000000000001 44.33000000000002 43.92000000000001 44.33000000000002 43.92000000000001 Z" vector-effect="non-scaling-stroke"/></defs> <path style="stroke-width: 0; stroke-linecap: butt; stroke-linejoin: miter; fill: rgb(255, 255, 255);" d="M30.410000000000025 31.870000000000033 C30.410000000000025 31.870000000000033 30.410000000000025 8.790000000000035 30.410000000000025 8.790000000000035 C30.410000000000025 8.790000000000035 30.32000000000002 8.790000000000035 30.32000000000002 8.790000000000035 C30.32000000000002 8.790000000000035 21.460000000000008 31.870000000000033 21.460000000000008 31.870000000000033 C21.460000000000008 31.870000000000033 15.27000000000001 31.870000000000033 15.27000000000001 31.870000000000033 C15.27000000000001 31.870000000000033 6.689999999999998 9.440000000000026 6.689999999999998 9.440000000000026 C6.689999999999998 9.440000000000026 6.6000000000000085 9.440000000000026 6.6000000000000085 9.440000000000026 C6.6000000000000085 9.440000000000026 6.6000000000000085 31.870000000000033 6.6000000000000085 31.870000000000033 C6.6000000000000085 31.870000000000033 0 31.870000000000033 0 31.870000000000033 C0 31.870000000000033 0 1.2200000000000308 0 1.2200000000000308 C0 1.2200000000000308 10.240000000000009 1.2200000000000308 10.240000000000009 1.2200000000000308 C10.240000000000009 1.2200000000000308 18.460000000000008 22.590000000000032 18.460000000000008 22.590000000000032 C18.460000000000008 22.590000000000032 18.55000000000001 22.590000000000032 18.55000000000001 22.590000000000032 C18.55000000000001 22.590000000000032 26.77000000000001 1.2200000000000308 26.77000000000001 1.2200000000000308 C26.77000000000001 1.2200000000000308 37.24000000000001 1.2200000000000308 37.24000000000001 1.2200000000000308 C37.24000000000001 1.2200000000000308 37.24000000000001 31.870000000000033 37.24000000000001 31.870000000000033 C37.24000000000001 31.870000000000033 30.410000000000025 31.870000000000033 30.410000000000025 31.870000000000033 Z" vector-effect="non-scaling-stroke"/></g><g><defs><path id="path-1681451069717846" d="M23.50947,25.76926h-14.20049l-2.0978,5.23074h-7.21119l13.17176,-31h6.65648l13.17176,31h-7.40281l-2.0978,-5.23074zM16.33863,7.93211l-4.69988,11.90829h9.54095l-4.75031,-11.90829z" vector-effect="non-scaling-stroke"/></defs><path style="stroke-width: 0; stroke-linecap: butt; stroke-linejoin: miter; fill: rgb(255, 255, 255);" d="M23.50947,25.76926h-14.20049l-2.0978,5.23074h-7.21119l13.17176,-31h6.65648l13.17176,31h-7.40281l-2.0978,-5.23074zM16.33863,7.93211l-4.69988,11.90829h9.54095l-4.75031,-11.90829z" transform="translate(41, 1) rotate(0)" vector-effect="non-scaling-stroke"/></g><g><defs><path id="path-1681451069716844" d="M128.77000000000007 21.170000000000005 C128.77000000000007 21.170000000000005 128.68000000000006 21.170000000000005 128.68000000000006 21.170000000000005 C128.68000000000006 21.170000000000005 128.68000000000006 43.92000000000001 128.68000000000006 43.92000000000001 C128.68000000000006 43.92000000000001 122.08000000000007 43.92000000000001 122.08000000000007 43.92000000000001 C122.08000000000007 43.92000000000001 122.08000000000007 13.270000000000003 122.08000000000007 13.270000000000003 C122.08000000000007 13.270000000000003 131.45000000000005 13.270000000000003 131.45000000000005 13.270000000000003 C131.45000000000005 13.270000000000003 143.0300000000001 33.86000000000001 143.0300000000001 33.86000000000001 C143.0300000000001 33.86000000000001 143.12000000000006 33.86000000000001 143.12000000000006 33.86000000000001 C143.12000000000006 33.86000000000001 143.12000000000006 13.270000000000003 143.12000000000006 13.270000000000003 C143.12000000000006 13.270000000000003 149.73000000000008 13.270000000000003 149.73000000000008 13.270000000000003 C149.73000000000008 13.270000000000003 149.73000000000008 43.92000000000001 149.73000000000008 43.92000000000001 C149.73000000000008 43.92000000000001 141.51000000000005 43.92000000000001 141.51000000000005 43.92000000000001 C141.51000000000005 43.92000000000001 128.77000000000007 21.170000000000005 128.77000000000007 21.170000000000005 Z" vector-effect="non-scaling-stroke"/></defs> <path style="stroke-width: 0; stroke-linecap: butt; stroke-linejoin: miter; fill: rgb(255, 255, 255);" d="M114.84999999999985 9.120000000000033 C114.84999999999985 9.120000000000033 114.75999999999985 9.120000000000033 114.75999999999985 9.120000000000033 C114.75999999999985 9.120000000000033 114.75999999999985 31.870000000000033 114.75999999999985 31.870000000000033 C114.75999999999985 31.870000000000033 108.15999999999985 31.870000000000033 108.15999999999985 31.870000000000033 C108.15999999999985 31.870000000000033 108.15999999999985 1.2200000000000308 108.15999999999985 1.2200000000000308 C108.15999999999985 1.2200000000000308 117.52999999999983 1.2200000000000308 117.52999999999983 1.2200000000000308 C117.52999999999983 1.2200000000000308 129.10999999999987 21.81000000000003 129.10999999999987 21.81000000000003 C129.10999999999987 21.81000000000003 129.19999999999985 21.81000000000003 129.19999999999985 21.81000000000003 C129.19999999999985 21.81000000000003 129.19999999999985 1.2200000000000308 129.19999999999985 1.2200000000000308 C129.19999999999985 1.2200000000000308 135.80999999999986 1.2200000000000308 135.80999999999986 1.2200000000000308 C135.80999999999986 1.2200000000000308 135.80999999999986 31.870000000000033 135.80999999999986 31.870000000000033 C135.80999999999986 31.870000000000033 127.58999999999983 31.870000000000033 127.58999999999983 31.870000000000033 C127.58999999999983 31.870000000000033 114.84999999999985 9.120000000000033 114.84999999999985 9.120000000000033 Z" vector-effect="non-scaling-stroke"/></g><g><defs><path id="path-1681451069716842" d="M179.7 30.860000000000007 C179.7 39.86000000000001 175.21999999999997 44.38 166.26999999999995 44.38 C157.31999999999996 44.38 153.01999999999998 39.86000000000001 153.01999999999998 30.860000000000003 C153.01999999999998 30.860000000000003 153.01999999999998 13.270000000000003 153.01999999999998 13.270000000000003 C153.01999999999998 13.270000000000003 159.84999999999997 13.270000000000003 159.84999999999997 13.270000000000003 C159.84999999999997 13.270000000000003 159.84999999999997 30.400000000000006 159.84999999999997 30.400000000000006 C159.84999999999997 35.61000000000001 162.10999999999996 38.290000000000006 166.45 38.290000000000006 C170.79 38.290000000000006 173.09999999999997 35.61000000000001 173.09999999999997 30.400000000000006 C173.09999999999997 30.400000000000006 173.09999999999997 13.270000000000003 173.09999999999997 13.270000000000003 C173.09999999999997 13.270000000000003 179.7 13.270000000000003 179.7 13.270000000000003 C179.7 13.270000000000003 179.7 30.860000000000007 179.7 30.860000000000007 Z" vector-effect="non-scaling-stroke"/></defs> <path style="stroke-width: 0; stroke-linecap: butt; stroke-linejoin: miter; fill: rgb(255, 255, 255);" d="M165.77999999999992 18.81000000000003 C165.77999999999992 27.81000000000003 161.2999999999999 32.33000000000003 152.3499999999999 32.33000000000003 C143.39999999999986 32.33000000000003 139.0999999999999 27.81000000000003 139.0999999999999 18.81000000000003 C139.0999999999999 18.81000000000003 139.0999999999999 1.2200000000000308 139.0999999999999 1.2200000000000308 C139.0999999999999 1.2200000000000308 145.9299999999999 1.2200000000000308 145.9299999999999 1.2200000000000308 C145.9299999999999 1.2200000000000308 145.9299999999999 18.350000000000037 145.9299999999999 18.350000000000037 C145.9299999999999 23.56000000000003 148.18999999999988 26.240000000000038 152.52999999999992 26.240000000000038 C156.8699999999999 26.240000000000038 159.1799999999999 23.56000000000003 159.1799999999999 18.350000000000037 C159.1799999999999 18.350000000000037 159.1799999999999 1.2200000000000308 159.1799999999999 1.2200000000000308 C159.1799999999999 1.2200000000000308 165.77999999999992 1.2200000000000308 165.77999999999992 1.2200000000000308 C165.77999999999992 1.2200000000000308 165.77999999999992 18.81000000000003 165.77999999999992 18.81000000000003 Z" vector-effect="non-scaling-stroke"/></g><g><defs><path id="path-1681451069715840" d="M213.41 43.92000000000001 C213.41 43.92000000000001 213.41 20.840000000000003 213.41 20.840000000000003 C213.41 20.840000000000003 213.32 20.840000000000003 213.32 20.840000000000003 C213.32 20.840000000000003 204.46 43.92000000000001 204.46 43.92000000000001 C204.46 43.92000000000001 198.28 43.92000000000001 198.28 43.92000000000001 C198.28 43.92000000000001 189.69 21.490000000000002 189.69 21.490000000000002 C189.69 21.490000000000002 189.6 21.490000000000002 189.6 21.490000000000002 C189.6 21.490000000000002 189.6 43.92000000000001 189.6 43.92000000000001 C189.6 43.92000000000001 183 43.92000000000001 183 43.92000000000001 C183 43.92000000000001 183 13.270000000000003 183 13.270000000000003 C183 13.270000000000003 193.24 13.270000000000003 193.24 13.270000000000003 C193.24 13.270000000000003 201.46 34.64000000000001 201.46 34.64000000000001 C201.46 34.64000000000001 201.55 34.64000000000001 201.55 34.64000000000001 C201.55 34.64000000000001 209.77 13.270000000000003 209.77 13.270000000000003 C209.77 13.270000000000003 220.24 13.270000000000003 220.24 13.270000000000003 C220.24 13.270000000000003 220.24 43.92000000000001 220.24 43.92000000000001 C220.24 43.92000000000001 213.41 43.92000000000001 213.41 43.92000000000001 Z" vector-effect="non-scaling-stroke"/></defs> <path style="stroke-width: 0; stroke-linecap: butt; stroke-linejoin: miter; fill: rgb(255, 255, 255);" d="M199.4899999999999 31.870000000000033 C199.4899999999999 31.870000000000033 199.4899999999999 8.790000000000035 199.4899999999999 8.790000000000035 C199.4899999999999 8.790000000000035 199.39999999999992 8.790000000000035 199.39999999999992 8.790000000000035 C199.39999999999992 8.790000000000035 190.53999999999996 31.870000000000033 190.53999999999996 31.870000000000033 C190.53999999999996 31.870000000000033 184.3599999999999 31.870000000000033 184.3599999999999 31.870000000000033 C184.3599999999999 31.870000000000033 175.76999999999992 9.440000000000026 175.76999999999992 9.440000000000026 C175.76999999999992 9.440000000000026 175.67999999999995 9.440000000000026 175.67999999999995 9.440000000000026 C175.67999999999995 9.440000000000026 175.67999999999995 31.870000000000033 175.67999999999995 31.870000000000033 C175.67999999999995 31.870000000000033 169.07999999999993 31.870000000000033 169.07999999999993 31.870000000000033 C169.07999999999993 31.870000000000033 169.07999999999993 1.2200000000000308 169.07999999999993 1.2200000000000308 C169.07999999999993 1.2200000000000308 179.31999999999994 1.2200000000000308 179.31999999999994 1.2200000000000308 C179.31999999999994 1.2200000000000308 187.53999999999996 22.590000000000032 187.53999999999996 22.590000000000032 C187.53999999999996 22.590000000000032 187.62999999999994 22.590000000000032 187.62999999999994 22.590000000000032 C187.62999999999994 22.590000000000032 195.8499999999999 1.2200000000000308 195.8499999999999 1.2200000000000308 C195.8499999999999 1.2200000000000308 206.31999999999994 1.2200000000000308 206.31999999999994 1.2200000000000308 C206.31999999999994 1.2200000000000308 206.31999999999994 31.870000000000033 206.31999999999994 31.870000000000033 C206.31999999999994 31.870000000000033 199.4899999999999 31.870000000000033 199.4899999999999 31.870000000000033 Z" vector-effect="non-scaling-stroke"/></g><g><defs><path id="path-1681451069715838" d="M88.21999999999996 34.1 C88.21999999999996 25.880000000000003 94.89999999999996 19.200000000000003 103.11999999999996 19.200000000000003 C103.81999999999996 19.200000000000003 107.84999999999997 19.410000000000004 110.69999999999996 21.28 C110.86999999999996 21.380000000000003 111.02999999999996 21.48 111.19999999999995 21.59 C111.19999999999995 21.59 115.79999999999994 16.009999999999998 115.79999999999994 16.009999999999998 C112.69999999999996 13.449999999999998 108.77999999999996 12.049999999999997 104.75999999999995 12.049999999999997 C95.18999999999996 12.049999999999997 87.40999999999995 19.83 87.40999999999995 29.4 C87.40999999999995 31.229999999999997 87.69999999999996 32.989999999999995 88.21999999999996 34.65 C88.21999999999996 34.47 88.20999999999997 34.29 88.20999999999997 34.11" vector-effect="non-scaling-stroke"/></defs> <path style="stroke-width: 0; stroke-linecap: butt; stroke-linejoin: miter; fill: rgb(255, 255, 255);" d="M74.29999999999978 22.050000000000004 C74.29999999999978 13.830000000000005 80.97999999999979 7.150000000000006 89.19999999999979 7.150000000000006 C89.8999999999998 7.150000000000006 93.92999999999978 7.3600000000000065 96.7799999999998 9.230000000000004 C96.94999999999979 9.330000000000005 97.10999999999979 9.430000000000007 97.27999999999977 9.540000000000006 C97.27999999999977 9.540000000000006 101.87999999999977 3.960000000000001 101.87999999999977 3.960000000000001 C98.7799999999998 1.3999999999999986 94.85999999999979 0 90.83999999999978 0 C81.26999999999978 0 73.48999999999978 7.780000000000001 73.48999999999978 17.35 C73.48999999999978 19.18 73.7799999999998 20.939999999999998 74.29999999999978 22.6 C74.29999999999978 22.42 74.2899999999998 22.240000000000002 74.2899999999998 22.060000000000002" vector-effect="non-scaling-stroke"/></g><g><defs><path id="path-1681451069714836" d="M104.36999999999995 28.77 C104.36999999999995 28.77 104.36999999999995 34.81 104.36999999999995 34.81 C104.36999999999995 34.81 109.29999999999995 34.81 109.29999999999995 34.81 C107.82999999999996 36.89 105.39999999999995 38.260000000000005 102.65999999999995 38.260000000000005 C98.17999999999995 38.260000000000005 94.52999999999996 34.61000000000001 94.52999999999996 30.130000000000003 C94.52999999999996 27.64 95.64999999999998 25.42 97.41999999999996 23.92 C93.41999999999996 25.490000000000002 90.57999999999997 29.380000000000003 90.57999999999997 33.93 C90.57999999999997 35.82 91.06999999999995 37.59 91.92999999999996 39.14 C94.49999999999994 42.2 98.35999999999997 44.15 102.65999999999995 44.15 C106.60999999999996 44.15 110.17999999999994 42.51 112.72999999999995 39.87 C112.72999999999995 39.87 112.72999999999995 44.04 112.72999999999995 44.04 C112.72999999999995 44.04 118.76999999999995 44.04 118.76999999999995 44.04 C118.76999999999995 44.04 118.76999999999995 28.77 118.76999999999995 28.77 C118.76999999999995 28.77 104.35999999999997 28.77 104.35999999999997 28.77 C104.35999999999997 28.77 104.36999999999995 28.77 104.36999999999995 28.77 Z" vector-effect="non-scaling-stroke"/></defs> <path style="stroke-width: 0; stroke-linecap: butt; stroke-linejoin: miter; fill: rgb(255, 255, 255);" d="M90.44999999999982 16.72 C90.44999999999982 16.72 90.44999999999982 22.760000000000005 90.44999999999982 22.760000000000005 C90.44999999999982 22.760000000000005 95.37999999999982 22.760000000000005 95.37999999999982 22.760000000000005 C93.90999999999985 24.840000000000003 91.47999999999985 26.210000000000008 88.73999999999984 26.210000000000008 C84.25999999999982 26.210000000000008 80.60999999999984 22.56000000000001 80.60999999999984 18.080000000000005 C80.60999999999984 15.590000000000003 81.72999999999985 13.370000000000005 83.49999999999983 11.870000000000005 C79.49999999999983 13.440000000000005 76.65999999999985 17.330000000000005 76.65999999999985 21.880000000000003 C76.65999999999985 23.770000000000003 77.14999999999984 25.540000000000006 78.00999999999985 27.090000000000003 C80.57999999999981 30.150000000000006 84.43999999999986 32.1 88.73999999999984 32.1 C92.68999999999983 32.1 96.25999999999982 30.46 98.80999999999983 27.82 C98.80999999999983 27.82 98.80999999999983 31.990000000000002 98.80999999999983 31.990000000000002 C98.80999999999983 31.990000000000002 104.84999999999985 31.990000000000002 104.84999999999985 31.990000000000002 C104.84999999999985 31.990000000000002 104.84999999999985 16.72 104.84999999999985 16.72 C104.84999999999985 16.72 90.43999999999986 16.72 90.43999999999986 16.72 C90.43999999999986 16.72 90.44999999999982 16.72 90.44999999999982 16.72 Z" vector-effect="non-scaling-stroke"/></g></svg>