<svg version="1.2" xmlns="http://www.w3.org/2000/svg" xmlns:xlink="http://www.w3.org/1999/xlink" overflow="visible" preserveAspectRatio="none" viewBox="0 0 100 1" width="100" height="1"><g transform="translate(0, 0)"><defs><path id="path-1682582808340659" d="M0 0.5 C0 0.2238576251 0.2238576251 0 0.5 0 C0.5 0 99.50000000000003 0 99.50000000000003 0 C99.77614237490003 0 100.00000000000003 0.2238576251 100.00000000000003 0.5 C100.00000000000003 0.5 100.00000000000003 0.5 100.00000000000003 0.5 C100.00000000000003 0.7761423749 99.77614237490003 1 99.50000000000003 1 C99.50000000000003 1 0.5 1 0.5 1 C0.2238576251 1 0 0.7761423749 0 0.5 C0 0.5 0 0.5 0 0.5 Z" vector-effect="non-scaling-stroke"/><linearGradient id="gradient-16825828090044955" x1="0%" y1="50%" x2="100%" y2="50%" vector-effect="non-scaling-stroke"><stop offset="0%" stop-color="rgba(72,129,191,0)" stop-opacity="0" vector-effect="non-scaling-stroke"/><stop offset="53%" stop-color="rgb(72,129,191)" stop-opacity="1" vector-effect="non-scaling-stroke"/><stop offset="100%" stop-color="rgba(72,129,191,0)" stop-opacity="0" vector-effect="non-scaling-stroke"/></linearGradient></defs><g transform="translate(0, 0)"><path d="M0 0.5 C0 0.2238576251 0.2238576251 0 0.5 0 C0.5 0 99.50000000000003 0 99.50000000000003 0 C99.77614237490003 0 100.00000000000003 0.2238576251 100.00000000000003 0.5 C100.00000000000003 0.5 100.00000000000003 0.5 100.00000000000003 0.5 C100.00000000000003 0.7761423749 99.77614237490003 1 99.50000000000003 1 C99.50000000000003 1 0.5 1 0.5 1 C0.2238576251 1 0 0.7761423749 0 0.5 C0 0.5 0 0.5 0 0.5 Z" style="stroke: rgb(140, 140, 140); stroke-width: 0; stroke-linecap: butt; stroke-linejoin: miter; fill: url(&quot;#gradient-16825828090044955&quot;);" vector-effect="non-scaling-stroke"/></g></g></svg>