<svg height="40.00001999999995" overflow="visible" viewBox="0 0 36 40.00001999999995" width="36" xmlns="http://www.w3.org/2000/svg"><g><defs><path id="path-1681968448398441" d="M26.56702,6.13766l0.77347,-1.33867l0.98365,0.57251c0.10089,0.05893 0.21018,0.08419 0.31107,0.08419c0.21859,0 0.42877,-0.10945 0.54647,-0.31993c0.17655,-0.30309 0.06726,-0.69038 -0.227,-0.85877l-3.06866,-1.77647c-0.30266,-0.1768 -0.6894,-0.06735 -0.85754,0.22732c-0.17655,0.30309 -0.06726,0.69038 0.227,0.85877l0.99206,0.57251l-0.81551,1.41444c-2.09341,-0.9598 -4.3886,-1.51547 -6.81831,-1.59966v-2.71101h1.8412c0.3447,0 0.63055,-0.28626 0.63055,-0.63145c0,-0.34519 -0.28585,-0.63145 -0.63055,-0.63145h-4.94348c-0.3447,0 -0.63055,0.28626 -0.63055,0.63145c0,0.34519 0.28585,0.63145 0.63055,0.63145h1.8412v2.71101c-2.47174,0.08419 -4.81738,0.67354 -6.93601,1.6586l-0.84914,-1.47337l0.99206,-0.57251c0.30266,-0.1768 0.40355,-0.56409 0.227,-0.85877c-0.17655,-0.30309 -0.56329,-0.40413 -0.85754,-0.22732l-3.06866,1.77647c-0.30266,0.1768 -0.40355,0.56409 -0.227,0.85877c0.1177,0.20206 0.32788,0.31993 0.54647,0.31993c0.10929,0 0.21859,-0.02526 0.31107,-0.08419l0.99206,-0.57251l0.81551,1.40602c-5.5404,3.07304 -9.29846,8.99179 -9.29846,15.76931c0,9.93475 8.07099,18.02568 18,18.02568c9.92901,0 18,-8.08251 18,-18.02568c0,-6.82804 -3.8085,-12.78047 -9.41616,-15.83667zM17.98319,38.73711c-9.2312,0 -16.73891,-7.51842 -16.73891,-16.76279c0,-9.24437 7.50771,-16.76279 16.73891,-16.76279c9.2312,0 16.73891,7.51842 16.73891,16.76279c0,9.24437 -7.50771,16.76279 -16.73891,16.76279z" vector-effect="non-scaling-stroke"/></defs><path d="M26.56702,6.13766l0.77347,-1.33867l0.98365,0.57251c0.10089,0.05893 0.21018,0.08419 0.31107,0.08419c0.21859,0 0.42877,-0.10945 0.54647,-0.31993c0.17655,-0.30309 0.06726,-0.69038 -0.227,-0.85877l-3.06866,-1.77647c-0.30266,-0.1768 -0.6894,-0.06735 -0.85754,0.22732c-0.17655,0.30309 -0.06726,0.69038 0.227,0.85877l0.99206,0.57251l-0.81551,1.41444c-2.09341,-0.9598 -4.3886,-1.51547 -6.81831,-1.59966v-2.71101h1.8412c0.3447,0 0.63055,-0.28626 0.63055,-0.63145c0,-0.34519 -0.28585,-0.63145 -0.63055,-0.63145h-4.94348c-0.3447,0 -0.63055,0.28626 -0.63055,0.63145c0,0.34519 0.28585,0.63145 0.63055,0.63145h1.8412v2.71101c-2.47174,0.08419 -4.81738,0.67354 -6.93601,1.6586l-0.84914,-1.47337l0.99206,-0.57251c0.30266,-0.1768 0.40355,-0.56409 0.227,-0.85877c-0.17655,-0.30309 -0.56329,-0.40413 -0.85754,-0.22732l-3.06866,1.77647c-0.30266,0.1768 -0.40355,0.56409 -0.227,0.85877c0.1177,0.20206 0.32788,0.31993 0.54647,0.31993c0.10929,0 0.21859,-0.02526 0.31107,-0.08419l0.99206,-0.57251l0.81551,1.40602c-5.5404,3.07304 -9.29846,8.99179 -9.29846,15.76931c0,9.93475 8.07099,18.02568 18,18.02568c9.92901,0 18,-8.08251 18,-18.02568c0,-6.82804 -3.8085,-12.78047 -9.41616,-15.83667zM17.98319,38.73711c-9.2312,0 -16.73891,-7.51842 -16.73891,-16.76279c0,-9.24437 7.50771,-16.76279 16.73891,-16.76279c9.2312,0 16.73891,7.51842 16.73891,16.76279c0,9.24437 -7.50771,16.76279 -16.73891,16.76279z" style="stroke-width: 0; stroke-linecap: butt; stroke-linejoin: miter; fill: rgb(68, 149, 235);" transform="translate(0, 0.000009999999974752427) rotate(0)" vector-effect="non-scaling-stroke"/></g><g><defs><path id="path-1681968448397439" d="M25.116279069767984 15.036834350662758 C25.459534883721478 15.036834350662758 25.744186046512183 14.750578825510164 25.744186046512183 14.40538833929674 C25.744186046512183 14.40538833929674 25.744186046512183 12.15744053883372 25.744186046512183 12.15744053883372 C25.744186046512183 11.812250052620296 25.459534883721478 11.525994527467702 25.116279069767984 11.525994527467702 C24.773023255814486 11.525994527467702 24.488372093023784 11.812250052620296 24.488372093023784 12.15744053883372 C24.488372093023784 12.15744053883372 24.488372093023784 14.40538833929674 24.488372093023784 14.40538833929674 C24.488372093023784 14.750578825510164 24.773023255814486 15.036834350662758 25.116279069767984 15.036834350662758 Z" vector-effect="non-scaling-stroke"/></defs> <path d="M17.907906976744187 9.783213536097946 C18.251162790697663 9.783213536097946 18.5358139534884 9.496958010945491 18.5358139534884 9.151767524731895 C18.5358139534884 9.151767524731895 18.5358139534884 6.903819724268942 18.5358139534884 6.903819724268942 C18.5358139534884 6.558629238055573 18.251162790697663 6.2723737129028905 17.907906976744187 6.2723737129028905 C17.56465116279071 6.2723737129028905 17.279999999999973 6.558629238055573 17.279999999999973 6.903819724268942 C17.279999999999973 6.903819724268942 17.279999999999973 9.151767524731895 17.279999999999973 9.151767524731895 C17.279999999999973 9.496958010945491 17.56465116279071 9.783213536097946 17.907906976744187 9.783213536097946 Z" style="stroke-width: 0; stroke-linecap: butt; stroke-linejoin: miter; fill: rgb(68, 149, 235);" vector-effect="non-scaling-stroke"/></g><g><defs><path id="path-1681968448396437" d="M25.116279069767984 39.4274889496941 C24.773023255814486 39.4274889496941 24.488372093023784 39.71374447484669 24.488372093023784 40.05893496106012 C24.488372093023784 40.05893496106012 24.488372093023784 42.306882761523134 24.488372093023784 42.306882761523134 C24.488372093023784 42.65207324773656 24.773023255814486 42.93832877288915 25.116279069767984 42.93832877288915 C25.459534883721478 42.93832877288915 25.744186046512183 42.65207324773656 25.744186046512183 42.306882761523134 C25.744186046512183 42.306882761523134 25.744186046512183 40.05893496106012 25.744186046512183 40.05893496106012 C25.744186046512183 39.71374447484669 25.459534883721478 39.4274889496941 25.116279069767984 39.4274889496941 Z" vector-effect="non-scaling-stroke"/></defs> <path d="M17.907906976744187 34.173868135129624 C17.56465116279071 34.173868135129624 17.279999999999973 34.46012366028208 17.279999999999973 34.80531414649545 C17.279999999999973 34.80531414649545 17.279999999999973 37.05326194695863 17.279999999999973 37.05326194695863 C17.279999999999973 37.398452433172 17.56465116279071 37.68470795832468 17.907906976744187 37.68470795832468 C18.251162790697663 37.68470795832468 18.5358139534884 37.398452433172 18.5358139534884 37.05326194695863 C18.5358139534884 37.05326194695863 18.5358139534884 34.80531414649545 18.5358139534884 34.80531414649545 C18.5358139534884 34.46012366028208 18.251162790697663 34.173868135129624 17.907906976744187 34.173868135129624 Z" style="stroke-width: 0; stroke-linecap: butt; stroke-linejoin: miter; fill: rgb(68, 149, 235);" vector-effect="non-scaling-stroke"/></g><g><defs><path id="path-1681968448394435" d="M40.102325581395625 26.59650599873803 C40.102325581395625 26.59650599873803 37.8669767441863 26.59650599873803 37.8669767441863 26.59650599873803 C37.52372093023282 26.59650599873803 37.23906976744212 26.88276152389064 37.23906976744212 27.227952010104083 C37.23906976744212 27.573142496317526 37.52372093023282 27.859398021470135 37.8669767441863 27.859398021470135 C37.8669767441863 27.859398021470135 40.102325581395625 27.859398021470135 40.102325581395625 27.859398021470135 C40.445581395349116 27.859398021470135 40.73023255813982 27.573142496317523 40.73023255813982 27.227952010104083 C40.73023255813982 26.882761523890647 40.445581395349116 26.59650599873803 40.102325581395625 26.59650599873803 Z" vector-effect="non-scaling-stroke"/></defs> <path d="M32.893953488372176 21.34288518417202 C32.893953488372176 21.34288518417202 30.65860465116282 21.34288518417202 30.65860465116282 21.34288518417202 C30.315348837209342 21.34288518417202 30.03069767441866 21.6291407093247 30.03069767441866 21.97433119553807 C30.03069767441866 22.319521681751667 30.315348837209342 22.605777206904122 30.65860465116282 22.605777206904122 C30.65860465116282 22.605777206904122 32.893953488372176 22.605777206904122 32.893953488372176 22.605777206904122 C33.23720930232565 22.605777206904122 33.52186046511633 22.319521681751667 33.52186046511633 21.97433119553807 C33.52186046511633 21.6291407093247 33.23720930232565 21.34288518417202 32.893953488372176 21.34288518417202 Z" style="stroke-width: 0; stroke-linecap: butt; stroke-linejoin: miter; fill: rgb(68, 149, 235);" vector-effect="non-scaling-stroke"/></g><g><defs><path id="path-1681968448391433" d="M12.993488372093013 27.227952010104147 C12.993488372093013 26.882761523890707 12.708837209302317 26.596505998738095 12.365581395348828 26.596505998738095 C12.365581395348828 26.596505998738095 10.130232558139529 26.596505998738095 10.130232558139529 26.596505998738095 C9.786976744186038 26.596505998738095 9.502325581395342 26.882761523890707 9.502325581395342 27.227952010104147 C9.502325581395342 27.573142496317587 9.786976744186038 27.8593980214702 10.130232558139529 27.8593980214702 C10.130232558139529 27.8593980214702 12.365581395348828 27.8593980214702 12.365581395348828 27.8593980214702 C12.708837209302317 27.8593980214702 12.993488372093013 27.573142496317587 12.993488372093013 27.227952010104147 Z" vector-effect="non-scaling-stroke"/></defs> <path d="M5.785116279069825 21.97433119553807 C5.785116279069825 21.629140709324474 5.500465116279116 21.34288518417202 5.15720930232564 21.34288518417202 C5.15720930232564 21.34288518417202 2.921860465116339 21.34288518417202 2.921860465116339 21.34288518417202 C2.578604651162834 21.34288518417202 2.2939534883721535 21.629140709324474 2.2939534883721535 21.97433119553807 C2.2939534883721535 22.31952168175144 2.578604651162834 22.605777206904122 2.921860465116339 22.605777206904122 C2.921860465116339 22.605777206904122 5.15720930232564 22.605777206904122 5.15720930232564 22.605777206904122 C5.500465116279116 22.605777206904122 5.785116279069825 22.31952168175144 5.785116279069825 21.97433119553807 Z" style="stroke-width: 0; stroke-linecap: butt; stroke-linejoin: miter; fill: rgb(68, 149, 235);" vector-effect="non-scaling-stroke"/></g><g><defs><path id="path-1681968448388431" d="M18.167441860465193 13.858135129446675 C17.99162790697682 13.555041043990975 17.60651162790705 13.454009682172408 17.313488372093097 13.6308145653549 C17.012093023255886 13.807619448537393 16.911627906976815 14.194906335508565 17.087441860465187 14.489581140812714 C17.087441860465187 14.489581140812714 18.200930232558218 16.434434855820115 18.200930232558218 16.434434855820115 C18.318139534883798 16.636497579457245 18.5274418604652 16.754367501578905 18.745116279069848 16.754367501578905 C18.85395348837217 16.754367501578905 18.962790697674503 16.729109661124262 19.054883720930317 16.670174700063434 C19.356279069767524 16.49336981688094 19.456744186046596 16.106082929909768 19.280930232558223 15.81140812460562 C19.280930232558223 15.81140812460562 18.167441860465196 13.86655440959822 18.167441860465196 13.86655440959822 C18.167441860465196 13.86655440959822 18.167441860465193 13.858135129446675 18.167441860465193 13.858135129446675 Z" vector-effect="non-scaling-stroke"/></defs> <path d="M10.959069767441775 8.604514314881499 C10.783255813953389 8.30142022942573 10.398139534883626 8.200388867607217 10.105116279069676 8.37719375078973 C9.803720930232458 8.553998633972242 9.703255813953376 8.941285520943438 9.879069767441763 9.23596032624755 C9.879069767441763 9.23596032624755 10.992558139534793 11.180814041254962 10.992558139534793 11.180814041254962 C11.109767441860356 11.38287676489199 11.31906976744176 11.500746687013589 11.536744186046406 11.500746687013589 C11.645581395348756 11.500746687013589 11.754418604651079 11.475488846559074 11.846511627906892 11.41655388549816 C12.147906976744082 11.239749002315648 12.248372093023164 10.852462115344451 12.072558139534806 10.55778731004034 C12.072558139534806 10.55778731004034 10.959069767441775 8.612933595032928 10.959069767441775 8.612933595032928 C10.959069767441775 8.612933595032928 10.959069767441775 8.604514314881499 10.959069767441775 8.604514314881499 Z" style="stroke-width: 0; stroke-linecap: butt; stroke-linejoin: miter; fill: rgb(68, 149, 235);" vector-effect="non-scaling-stroke"/></g><g><defs><path id="path-1681968448387429" d="M32.0400000000003 38.02146916438707 C31.86418604651192 37.71837507893137 31.487441860465413 37.61734371711281 31.186046511628195 37.794148600295294 C30.884651162790984 37.970953483477786 30.784186046511913 38.358240370448954 30.96000000000028 38.65291517575311 C30.96000000000028 38.65291517575311 32.073488372093315 40.597768890760506 32.073488372093315 40.597768890760506 C32.1906976744189 40.79983161439764 32.4000000000003 40.9177015365193 32.61767441860495 40.9177015365193 C32.72651162790727 40.9177015365193 32.8353488372096 40.89244369606466 32.927441860465414 40.83350873500383 C33.228837209302625 40.65670385182134 33.32930232558169 40.269416964850166 33.15348837209332 39.97474215954602 C33.15348837209332 39.97474215954602 32.04000000000029 38.029888444538614 32.04000000000029 38.029888444538614 C32.04000000000029 38.029888444538614 32.0400000000003 38.02146916438707 32.0400000000003 38.02146916438707 Z" vector-effect="non-scaling-stroke"/></defs> <path d="M24.831627906976678 32.76784834982118 C24.655813953488348 32.46475426436541 24.279069767441797 32.3637229025469 23.97767441860458 32.54052778572941 C23.67627906976736 32.71733266891192 23.575813953488307 33.10461955588312 23.751627906976694 33.39929436118723 C23.751627906976694 33.39929436118723 24.865116279069696 35.34414807619464 24.865116279069696 35.34414807619464 C24.982325581395287 35.54621079983167 25.19162790697669 35.664080721953496 25.409302325581336 35.664080721953496 C25.518139534883687 35.664080721953496 25.62697674418598 35.638822881498754 25.719069767441795 35.57988792043784 C26.020465116279013 35.40308303725533 26.120930232558067 35.01579615028436 25.945116279069737 34.72112134498002 C25.945116279069737 34.72112134498002 24.831627906976678 32.77626762997261 24.831627906976678 32.77626762997261 C24.831627906976678 32.77626762997261 24.831627906976678 32.76784834982118 24.831627906976678 32.76784834982118 Z" style="stroke-width: 0; stroke-linecap: butt; stroke-linejoin: miter; fill: rgb(68, 149, 235);" vector-effect="non-scaling-stroke"/></g><g><defs><path id="path-1681968448385427" d="M14.383255813953516 20.2652073247734 C14.383255813953516 20.2652073247734 12.449302325581419 19.145443064617663 12.449302325581419 19.145443064617663 C12.14790697674421 18.968638181435175 11.76279069767444 19.078088823405288 11.595348837209324 19.37276362870943 C11.419534883720951 19.675857714165115 11.528372093023277 20.063144601136273 11.821395348837232 20.23153020416721 C11.821395348837232 20.23153020416721 13.755348837209329 21.351294464322947 13.755348837209329 21.351294464322947 C13.855813953488399 21.410229425383775 13.964651162790725 21.435487265838418 14.065116279069795 21.435487265838418 C14.282790697674448 21.435487265838418 14.492093023255844 21.32603662386831 14.609302325581423 21.115554620079635 C14.785116279069795 20.81246053462395 14.676279069767467 20.42517364765279 14.383255813953516 20.256788044621853 C14.383255813953516 20.256788044621853 14.383255813953516 20.2652073247734 14.383255813953516 20.2652073247734 Z" vector-effect="non-scaling-stroke"/></defs> <path d="M7.174883720930268 15.011586510208872 C7.174883720930268 15.011586510208872 5.240930232558156 13.89182225005311 5.240930232558156 13.89182225005311 C4.939534883720967 13.715017366870597 4.554418604651175 13.824468008840768 4.386976744186057 14.11914281414488 C4.211162790697699 14.422236899600648 4.320000000000022 14.809523786571617 4.613023255813971 14.9779093896027 C4.613023255813971 14.9779093896027 6.546976744186082 16.097673649758462 6.546976744186082 16.097673649758462 C6.647441860465136 16.15660861081915 6.756279069767459 16.18186645127389 6.856744186046541 16.18186645127389 C7.074418604651186 16.18186645127389 7.28372093023259 16.07241580930372 7.400930232558153 15.861933805515037 C7.57674418604654 15.558839720059495 7.467906976744217 15.171552833088299 7.174883720930268 15.003167230057215 C7.174883720930268 15.003167230057215 7.174883720930268 15.011586510208872 7.174883720930268 15.011586510208872 Z" style="stroke-width: 0; stroke-linecap: butt; stroke-linejoin: miter; fill: rgb(68, 149, 235);" vector-effect="non-scaling-stroke"/></g><g><defs><path id="path-1681968448383425" d="M38.41116279069775 34.21595453588662 C38.41116279069775 34.21595453588662 36.477209302325655 33.09619027573088 36.477209302325655 33.09619027573088 C36.17581395348844 32.9193853925484 35.790697674418674 33.028836034518505 35.623255813953556 33.32351083982265 C35.44744186046518 33.626604925278336 35.556279069767506 34.0138918122495 35.84930232558146 34.18227741528044 C35.84930232558146 34.18227741528044 37.78325581395356 35.30204167543617 37.78325581395356 35.30204167543617 C37.88372093023263 35.360976636497 37.99255813953496 35.38623447695164 38.093023255814025 35.38623447695164 C38.31069767441868 35.38623447695164 38.520000000000074 35.27678383498153 38.63720930232565 35.06630183119286 C38.813023255814024 34.76320774573717 38.7041860465117 34.375920858766015 38.411162790697745 34.207535255735074 C38.411162790697745 34.207535255735074 38.41116279069775 34.21595453588662 38.41116279069775 34.21595453588662 Z" vector-effect="non-scaling-stroke"/></defs> <path d="M31.202790697674402 28.96233372132201 C31.202790697674402 28.96233372132201 29.268837209302262 27.84256946116625 29.268837209302262 27.84256946116625 C28.9674418604651 27.665764577983737 28.58232558139531 27.775215219953907 28.414883720930163 28.06989002525802 C28.239069767441833 28.372984110713787 28.347906976744127 28.760270997684984 28.640930232558105 28.92865660071584 C28.640930232558105 28.92865660071584 30.57488372093019 30.0484208608716 30.57488372093019 30.0484208608716 C30.675348837209242 30.107355821932515 30.784186046511593 30.13261366238703 30.884651162790647 30.13261366238703 C31.10232558139529 30.13261366238703 31.311627906976696 30.02316302041686 31.428837209302287 29.812681016628403 C31.604651162790674 29.509586931172635 31.495813953488323 29.122300044201438 31.202790697674345 28.953914441170582 C31.202790697674345 28.953914441170582 31.202790697674402 28.96233372132201 31.202790697674402 28.96233372132201 Z" style="stroke-width: 0; stroke-linecap: butt; stroke-linejoin: miter; fill: rgb(68, 149, 235);" vector-effect="non-scaling-stroke"/></g><g><defs><path id="path-1681968448381423" d="M36.15906976744181 21.443906545990465 C36.267906976744136 21.443906545990465 36.37674418604645 21.418648705535826 36.468837209302265 21.359713744474995 C36.468837209302265 21.359713744474995 38.402790697674355 20.239949484319233 38.402790697674355 20.239949484319233 C38.70418604651157 20.06314460113674 38.80465116279064 19.675857714165573 38.62883720930227 19.381182908861426 C38.453023255813896 19.078088823405732 38.07627906976739 18.977057461587165 37.77488372093017 19.153862344769657 C37.77488372093017 19.153862344769657 35.84093023255809 20.27362660492542 35.84093023255809 20.27362660492542 C35.539534883720876 20.45043148810791 35.43906976744181 20.837718375079078 35.61488372093017 21.13239318038322 C35.73209302325576 21.334455904020352 35.941395348837155 21.452325826142012 36.1590697674418 21.452325826142012 C36.1590697674418 21.452325826142012 36.15906976744181 21.443906545990465 36.15906976744181 21.443906545990465 Z" vector-effect="non-scaling-stroke"/></defs> <path d="M28.95069767441879 16.19028573142532 C29.059534883721085 16.19028573142532 29.168372093023436 16.165027890970578 29.26046511627925 16.106092929909664 C29.26046511627925 16.106092929909664 31.194418604651332 14.986328669753902 31.194418604651332 14.986328669753902 C31.49581395348855 14.809523786571617 31.596279069767604 14.42223689960042 31.420465116279217 14.127562094296081 C31.244651162790888 13.82446800884054 30.867906976744337 13.723436647022027 30.56651162790712 13.900241530204312 C30.56651162790712 13.900241530204312 28.632558139535035 15.020005790360074 28.632558139535035 15.020005790360074 C28.331162790697817 15.196810673542586 28.230697674418764 15.584097560513783 28.40651162790715 15.878772365817895 C28.52372093023274 16.08083508945515 28.733023255814146 16.19870501157675 28.95069767441879 16.19870501157675 C28.95069767441879 16.19870501157675 28.95069767441879 16.19028573142532 28.95069767441879 16.19028573142532 Z" style="stroke-width: 0; stroke-linecap: butt; stroke-linejoin: miter; fill: rgb(68, 149, 235);" vector-effect="non-scaling-stroke"/></g><g><defs><path id="path-1681968448380421" d="M13.755348837209269 33.09619027573319 C13.755348837209269 33.09619027573319 11.82139534883718 34.21595453588901 11.82139534883718 34.21595453588901 C11.519999999999973 34.39275941907151 11.419534883720903 34.78004630604269 11.595348837209274 35.074721111346854 C11.712558139534856 35.276783834983995 11.92186046511625 35.394653757105665 12.1395348837209 35.394653757105665 C12.248372093023226 35.394653757105665 12.35720930232555 35.36939591665102 12.449302325581364 35.31046095559019 C12.449302325581364 35.31046095559019 14.383255813953452 34.19069669543437 14.383255813953452 34.19069669543437 C14.684651162790662 34.01389181225188 14.785116279069731 33.62660492528069 14.609302325581359 33.331930119976526 C14.433488372092986 33.028836034520815 14.056744186046476 32.92780467270225 13.755348837209269 33.10460955588474 C13.755348837209269 33.10460955588474 13.755348837209269 33.09619027573319 13.755348837209269 33.09619027573319 Z" vector-effect="non-scaling-stroke"/></defs> <path d="M6.546976744186111 27.84256946116625 C6.546976744186111 27.84256946116625 4.613023255814028 28.96233372132224 4.613023255814028 28.96233372132224 C4.311627906976838 29.13913860450475 4.211162790697756 29.526425491475948 4.386976744186143 29.82110029678006 C4.504186046511705 30.023163020417087 4.71348837209311 30.141032942538914 4.931162790697755 30.141032942538914 C5.040000000000077 30.141032942538914 5.1488372093024 30.11577510208417 5.240930232558213 30.056840141023258 C5.240930232558213 30.056840141023258 7.174883720930296 28.937075880867496 7.174883720930296 28.937075880867496 C7.476279069767514 28.760270997684984 7.5767441860465965 28.372984110713787 7.40093023255821 28.078309305409675 C7.2251162790698515 27.775215219953907 6.848372093023329 27.674183858135393 6.546976744186111 27.850988741317906 C6.546976744186111 27.850988741317906 6.546976744186111 27.84256946116625 6.546976744186111 27.84256946116625 Z" style="stroke-width: 0; stroke-linecap: butt; stroke-linejoin: miter; fill: rgb(68, 149, 235);" vector-effect="non-scaling-stroke"/></g><g><defs><path id="path-1681968448378419" d="M32.927441860465166 13.630814565353697 C32.62604651162796 13.45400968217122 32.24093023255819 13.563460324141326 32.07348837209307 13.85813512944545 C32.07348837209307 13.85813512944545 30.96000000000005 15.802988844452678 30.96000000000005 15.802988844452678 C30.784186046511675 16.10608292990835 30.893023255814004 16.493369816879486 31.18604651162796 16.661755419910413 C31.28651162790703 16.72069038097124 31.395348837209355 16.74594822142588 31.49581395348842 16.74594822142588 C31.713488372093067 16.74594822142588 31.922790697674465 16.636497579455778 32.04000000000005 16.426015575667115 C32.04000000000005 16.426015575667115 33.15348837209307 14.481161860659888 33.15348837209307 14.481161860659888 C33.329302325581445 14.178067775204218 33.220465116279115 13.79078088823308 32.927441860465166 13.62239528520215 C32.927441860465166 13.62239528520215 32.927441860465166 13.630814565353697 32.927441860465166 13.630814565353697 Z" vector-effect="non-scaling-stroke"/></defs> <path d="M25.719069767441738 8.37719375078973 C25.41767441860452 8.200388867607444 25.03255813953473 8.309839509577387 24.86511627906964 8.604514314881499 C24.86511627906964 8.604514314881499 23.75162790697658 10.54936802988891 23.75162790697658 10.54936802988891 C23.575813953488193 10.852462115344451 23.684651162790544 11.239749002315648 23.977674418604522 11.408134605346504 C24.078139534883576 11.467069566407417 24.186976744185927 11.492327406861932 24.28744186046498 11.492327406861932 C24.505116279069625 11.492327406861932 24.71441860465103 11.38287676489199 24.831627906976564 11.172394761103305 C24.831627906976564 11.172394761103305 25.945116279069623 9.227541046096121 25.945116279069623 9.227541046096121 C26.12093023255801 8.924446960640353 26.01209302325566 8.537160073669156 25.719069767441738 8.3687744706383 C25.719069767441738 8.3687744706383 25.719069767441738 8.37719375078973 25.719069767441738 8.37719375078973 Z" style="stroke-width: 0; stroke-linecap: butt; stroke-linejoin: miter; fill: rgb(68, 149, 235);" vector-effect="non-scaling-stroke"/></g><g><defs><path id="path-1681968448375417" d="M19.054883720930242 37.79414860029457 C18.75348837209303 37.617343717112085 18.368372093023265 37.7267943590822 18.20093023255815 38.021469164386346 C18.20093023255815 38.021469164386346 17.087441860465127 39.96632287939371 17.087441860465127 39.96632287939371 C16.911627906976754 40.2694169648494 17.02046511627908 40.65670385182056 17.313488372093033 40.82508945485151 C17.413953488372105 40.884024415912336 17.522790697674427 40.90928225636698 17.6232558139535 40.90928225636698 C17.84093023255815 40.90928225636698 18.050232558139548 40.799831614396865 18.167441860465125 40.58934961060819 C18.167441860465125 40.58934961060819 19.28093023255815 38.644495895600826 19.28093023255815 38.644495895600826 C19.45674418604652 38.34140181014513 19.34790697674419 37.95411492317397 19.054883720930242 37.78572932014303 C19.054883720930242 37.78572932014303 19.054883720930242 37.79414860029457 19.054883720930242 37.79414860029457 Z" vector-effect="non-scaling-stroke"/></defs> <path d="M11.846511627907006 32.54052778572964 C11.545116279069816 32.363722902547124 11.160000000000025 32.473173544517294 10.992558139534935 32.767848349821406 C10.992558139534935 32.767848349821406 9.879069767441905 34.71270206482859 9.879069767441905 34.71270206482859 C9.703255813953518 35.01579615028436 9.81209302325584 35.403083037255556 10.105116279069819 35.57146864028641 C10.205581395348872 35.630403601347325 10.314418604651195 35.65566144180207 10.414883720930277 35.65566144180207 C10.632558139534922 35.65566144180207 10.841860465116326 35.5462107998319 10.959069767441889 35.33572879604321 C10.959069767441889 35.33572879604321 12.07255813953492 33.3908750810358 12.07255813953492 33.3908750810358 C12.248372093023306 33.08778099558003 12.139534883720955 32.700494108609064 11.846511627907006 32.53210850557798 C11.846511627907006 32.53210850557798 11.846511627907006 32.54052778572964 11.846511627907006 32.54052778572964 Z" style="stroke-width: 0; stroke-linecap: butt; stroke-linejoin: miter; fill: rgb(68, 149, 235);" vector-effect="non-scaling-stroke"/></g><g><defs><path id="path-1681968448373415" d="M25.744186046511643 26.93327720479862 C25.744186046511643 26.93327720479862 25.744186046511643 17.907808882340312 25.744186046511643 17.907808882340312 C25.744186046511643 17.56261839612689 25.459534883720945 17.276362870974292 25.116279069767455 17.276362870974292 C24.773023255813964 17.276362870974292 24.48837209302327 17.56261839612689 24.48837209302327 17.907808882340312 C24.48837209302327 17.907808882340312 24.48837209302327 27.227952010102765 24.48837209302327 27.227952010102765 C24.48837209302327 27.227952010102765 24.48837209302327 27.24479057040586 24.48837209302327 27.253209850557404 C24.48837209302327 27.295306251315136 24.505116279069778 27.337402652072875 24.513488372093036 27.379499052830607 C24.521860465116294 27.413176173436796 24.53023255813955 27.455272574194534 24.546976744186058 27.48894969480072 C24.56372093023257 27.52262681540691 24.588837209302337 27.547884655861548 24.60558139534885 27.581561776467737 C24.630697674418617 27.615238897073922 24.655813953488384 27.65733529783166 24.68930232558141 27.682593138286297 C24.68930232558141 27.682593138286297 24.697674418604667 27.699431698589393 24.70604651162792 27.70785097874094 C24.70604651162792 27.70785097874094 28.96744186046513 31.302883603451473 28.96744186046513 31.302883603451473 C29.08465116279071 31.403914965270033 29.22697674418606 31.446011366027772 29.369302325581405 31.446011366027772 C29.545116279069784 31.446011366027772 29.72930232558141 31.370237844663848 29.854883720930246 31.218690801936003 C30.080930232558156 30.9492738370865 30.039069767441873 30.553567669963797 29.77953488372094 30.326247105872028 C29.77953488372094 30.326247105872028 25.744186046511636 26.924857924647068 25.744186046511636 26.924857924647068 C25.744186046511636 26.924857924647068 25.744186046511643 26.93327720479862 25.744186046511643 26.93327720479862 Z" vector-effect="non-scaling-stroke"/></defs> <path d="M18.535813953488343 21.67965639023373 C18.535813953488343 21.67965639023373 18.535813953488343 12.654188067775522 18.535813953488343 12.654188067775522 C18.535813953488343 12.308997581562153 18.251162790697663 12.02274205640947 17.907906976744187 12.02274205640947 C17.564651162790653 12.02274205640947 17.279999999999973 12.308997581562153 17.279999999999973 12.654188067775522 C17.279999999999973 12.654188067775522 17.279999999999973 21.97433119553807 17.279999999999973 21.97433119553807 C17.279999999999973 21.97433119553807 17.279999999999973 21.991169755841156 17.279999999999973 21.999589035992585 C17.279999999999973 22.041685436750413 17.29674418604651 22.083781837508013 17.30511627906975 22.12587823826584 C17.31348837209299 22.159555358872012 17.321860465116288 22.20165175962984 17.33860465116277 22.23532888023601 C17.355348837209306 22.269006000842182 17.380465116279026 22.294263841296697 17.397209302325564 22.32794096190287 C17.42232558139534 22.36161808250904 17.44744186046512 22.403714483266867 17.480930232558137 22.42897232372161 C17.480930232558137 22.42897232372161 17.489302325581377 22.445810884024695 17.497674418604618 22.454230164176124 C17.497674418604618 22.454230164176124 21.759069767441815 26.049262788886608 21.759069767441815 26.049262788886608 C21.876279069767406 26.15029415070535 22.018604651162775 26.19239055146295 22.160930232558144 26.19239055146295 C22.336744186046474 26.19239055146295 22.5209302325581 26.116617030099178 22.64651162790699 25.96506998737118 C22.872558139534874 25.69565302252181 22.830697674418616 25.299946855398957 22.571162790697656 25.072626291307188 C22.571162790697656 25.072626291307188 18.535813953488343 21.671237110082302 18.535813953488343 21.671237110082302 C18.535813953488343 21.671237110082302 18.535813953488343 21.67965639023373 18.535813953488343 21.67965639023373 Z" style="stroke-width: 0; stroke-linecap: butt; stroke-linejoin: miter; fill: rgb(68, 149, 235);" vector-effect="non-scaling-stroke"/></g></svg>