<svg height="40.000009999999975" overflow="visible" viewBox="0 0 44 40.000009999999975" width="44" xmlns="http://www.w3.org/2000/svg"><g><defs><path id="path-1681968448153219" d="M16.000769230769244 10.138947368419515 C16.000769230769244 10.138947368419515 26.518461538461565 10.138947368419515 26.518461538461565 10.138947368419515 C26.86538461538464 10.138947368419515 27.153076923076952 9.852631578945875 27.153076923076952 9.50736842105119 C27.153076923076952 9.162105263156505 26.865384615384645 8.875789473682865 26.518461538461565 8.875789473682865 C26.518461538461565 8.875789473682865 16.000769230769247 8.875789473682865 16.000769230769247 8.875789473682865 C15.653846153846171 8.875789473682865 15.366153846153864 9.162105263156505 15.366153846153864 9.50736842105119 C15.366153846153864 9.852631578945875 15.653846153846168 10.138947368419515 16.000769230769244 10.138947368419515 Z" vector-effect="non-scaling-stroke"/></defs> <path d="M12.565384615384687 4.875799473684538 C12.565384615384687 4.875799473684538 23.083076923076987 4.875799473684538 23.083076923076987 4.875799473684538 C23.430000000000064 4.875799473684538 23.717692307692346 4.589483684210791 23.717692307692346 4.244220526316212 C23.717692307692346 3.8989573684214065 23.430000000000064 3.612641578947887 23.083076923076987 3.612641578947887 C23.083076923076987 3.612641578947887 12.565384615384687 3.612641578947887 12.565384615384687 3.612641578947887 C12.21846153846161 3.612641578947887 11.930769230769329 3.8989573684214065 11.930769230769329 4.244220526316212 C11.930769230769329 4.589483684210791 12.21846153846161 4.875799473684538 12.565384615384687 4.875799473684538 Z" style="stroke-width: 0; stroke-linecap: butt; stroke-linejoin: miter; fill: rgb(68, 149, 235);" vector-effect="non-scaling-stroke"/></g><g><defs><path id="path-1681968448151217" d="M27.000769230769226 39.98315789473685 C27.000769230769226 39.98315789473685 6.016153846153846 39.98315789473685 6.016153846153846 39.98315789473685 C5.296923076923076 39.98315789473685 4.704615384615384 39.4021052631579 4.704615384615384 38.67789473684211 C4.704615384615384 38.67789473684211 4.704615384615384 17.364210526315794 4.704615384615384 17.364210526315794 C4.704615384615384 17.364210526315794 38.00076923076922 17.364210526315794 38.00076923076922 17.364210526315794 C38.00076923076922 17.364210526315794 38.00076923076922 24.235789473684218 38.00076923076922 24.235789473684218 C38.00076923076922 24.581052631578952 38.28846153846153 24.86736842105264 38.63538461538461 24.86736842105264 C38.98230769230768 24.86736842105264 39.26999999999999 24.581052631578952 39.26999999999999 24.235789473684218 C39.26999999999999 24.235789473684218 39.26999999999999 11.435789473684213 39.26999999999999 11.435789473684213 C39.26999999999999 10.02105263157895 38.11076923076922 8.867368421052634 36.68923076923076 8.867368421052634 C36.68923076923076 8.867368421052634 35.53846153846153 8.867368421052634 35.53846153846153 8.867368421052634 C35.19153846153846 8.867368421052634 34.903846153846146 9.153684210526318 34.903846153846146 9.498947368421055 C34.903846153846146 9.844210526315793 35.19153846153846 10.130526315789476 35.53846153846153 10.130526315789476 C35.53846153846153 10.130526315789476 36.68923076923076 10.130526315789476 36.68923076923076 10.130526315789476 C37.40846153846153 10.130526315789476 38.00076923076922 10.711578947368423 38.00076923076922 11.435789473684215 C38.00076923076922 11.435789473684215 38.00076923076922 16.101052631578952 38.00076923076922 16.101052631578952 C38.00076923076922 16.101052631578952 4.7046153846153835 16.101052631578952 4.7046153846153835 16.101052631578952 C4.7046153846153835 16.101052631578952 4.7046153846153835 11.435789473684215 4.7046153846153835 11.435789473684215 C4.7046153846153835 10.720000000000004 5.288461538461537 10.130526315789476 6.016153846153845 10.130526315789476 C6.016153846153845 10.130526315789476 7.192307692307692 10.130526315789476 7.192307692307692 10.130526315789476 C7.539230769230768 10.130526315789476 7.826923076923076 9.844210526315793 7.826923076923076 9.498947368421055 C7.826923076923076 9.153684210526318 7.539230769230768 8.867368421052634 7.192307692307692 8.867368421052634 C7.192307692307692 8.867368421052634 6.016153846153846 8.867368421052634 6.016153846153846 8.867368421052634 C4.594615384615384 8.867368421052634 3.4353846153846153 10.021052631578952 3.4353846153846153 11.435789473684215 C3.4353846153846153 11.435789473684215 3.4353846153846153 16.724210526315794 3.4353846153846153 16.724210526315794 C3.4353846153846153 16.724210526315794 3.4353846153846153 16.724210526315794 3.4353846153846153 16.724210526315794 C3.4353846153846153 16.724210526315794 3.4353846153846153 16.724210526315794 3.4353846153846153 16.724210526315794 C3.4353846153846153 16.724210526315794 3.4353846153846153 38.66105263157896 3.4353846153846153 38.66105263157896 C3.4353846153846153 40.075789473684225 4.594615384615384 41.22947368421053 6.016153846153846 41.22947368421053 C6.016153846153846 41.22947368421053 27.000769230769226 41.22947368421053 27.000769230769226 41.22947368421053 C27.347692307692306 41.22947368421053 27.63538461538461 40.94315789473685 27.63538461538461 40.597894736842115 C27.63538461538461 40.25263157894738 27.3476923076923 39.96631578947369 27.000769230769222 39.96631578947369 C27.000769230769222 39.96631578947369 27.000769230769226 39.98315789473685 27.000769230769226 39.98315789473685 Z" vector-effect="non-scaling-stroke"/></defs> <path d="M23.565384615384687 34.72001000000023 C23.565384615384687 34.72001000000023 2.580769230769306 34.72001000000023 2.580769230769306 34.72001000000023 C1.8615384615385437 34.72001000000023 1.2692307692308304 34.13895736842119 1.2692307692308304 33.41474684210539 C1.2692307692308304 33.41474684210539 1.2692307692308304 12.101062631579225 1.2692307692308304 12.101062631579225 C1.2692307692308304 12.101062631579225 34.56538461538469 12.101062631579225 34.56538461538469 12.101062631579225 C34.56538461538469 12.101062631579225 34.56538461538469 18.97264157894756 34.56538461538469 18.97264157894756 C34.56538461538469 19.317904736842365 34.85307692307697 19.604220526315885 35.200000000000045 19.604220526315885 C35.54692307692312 19.604220526315885 35.834615384615404 19.317904736842365 35.834615384615404 18.97264157894756 C35.834615384615404 18.97264157894756 35.834615384615404 6.172641578947605 35.834615384615404 6.172641578947605 C35.834615384615404 4.7579047368421925 34.6753846153847 3.604220526315885 33.25384615384621 3.604220526315885 C33.25384615384621 3.604220526315885 32.10307692307697 3.604220526315885 32.10307692307697 3.604220526315885 C31.756153846153893 3.604220526315885 31.46846153846161 3.8905363157896318 31.46846153846161 4.2357994736844375 C31.46846153846161 4.581062631579016 31.756153846153893 4.867378421052763 32.10307692307697 4.867378421052763 C32.10307692307697 4.867378421052763 33.25384615384621 4.867378421052763 33.25384615384621 4.867378421052763 C33.973076923076974 4.867378421052763 34.56538461538469 5.448431052631804 34.56538461538469 6.172641578947605 C34.56538461538469 6.172641578947605 34.56538461538469 10.837904736842347 34.56538461538469 10.837904736842347 C34.56538461538469 10.837904736842347 1.2692307692308304 10.837904736842347 1.2692307692308304 10.837904736842347 C1.2692307692308304 10.837904736842347 1.2692307692308304 6.172641578947605 1.2692307692308304 6.172641578947605 C1.2692307692308304 5.456852105263351 1.8530769230769693 4.867378421052763 2.580769230769306 4.867378421052763 C2.580769230769306 4.867378421052763 3.756923076923158 4.867378421052763 3.756923076923158 4.867378421052763 C4.103846153846234 4.867378421052763 4.3915384615385165 4.581062631579016 4.3915384615385165 4.2357994736844375 C4.3915384615385165 3.8905363157896318 4.103846153846234 3.604220526315885 3.756923076923158 3.604220526315885 C3.756923076923158 3.604220526315885 2.580769230769306 3.604220526315885 2.580769230769306 3.604220526315885 C1.1592307692308168 3.604220526315885 0 4.7579047368421925 0 6.172641578947605 C0 6.172641578947605 0 11.461062631579125 0 11.461062631579125 C0 11.461062631579125 0 11.461062631579125 0 11.461062631579125 C0 11.461062631579125 0 11.461062631579125 0 11.461062631579125 C0 11.461062631579125 0 33.39790473684229 0 33.39790473684229 C0 34.81264157894748 1.1592307692308168 35.966325789473785 2.580769230769306 35.966325789473785 C2.580769230769306 35.966325789473785 23.565384615384687 35.966325789473785 23.565384615384687 35.966325789473785 C23.912307692307763 35.966325789473785 24.200000000000045 35.680010000000266 24.200000000000045 35.33474684210546 C24.200000000000045 34.989483684210654 23.912307692307763 34.70316789473691 23.565384615384687 34.70316789473691 C23.565384615384687 34.70316789473691 23.565384615384687 34.72001000000023 23.565384615384687 34.72001000000023 Z" style="stroke-width: 0; stroke-linecap: butt; stroke-linejoin: miter; fill: rgb(68, 149, 235);" vector-effect="non-scaling-stroke"/></g><g><defs><path id="path-1681968448150215" d="M1.8189,9h0.3622c1.00787,0 1.8189,-0.84629 1.8189,-1.87975v-5.24051c0,-1.03345 -0.8189,-1.87975 -1.8189,-1.87975h-0.3622c-1,0 -1.8189,0.84629 -1.8189,1.87975v5.24051c0,1.03345 0.8189,1.87975 1.8189,1.87975zM1.1811,1.87975c0,-0.36618 0.28346,-0.65913 0.6378,-0.65913h0.3622c0.35433,0 0.6378,0.29295 0.6378,0.65913v5.24051c0,0.36618 -0.28346,0.65913 -0.6378,0.65913h-0.3622c-0.35433,0 -0.6378,-0.29295 -0.6378,-0.65913z" vector-effect="non-scaling-stroke"/></defs><path d="M1.8189,9h0.3622c1.00787,0 1.8189,-0.84629 1.8189,-1.87975v-5.24051c0,-1.03345 -0.8189,-1.87975 -1.8189,-1.87975h-0.3622c-1,0 -1.8189,0.84629 -1.8189,1.87975v5.24051c0,1.03345 0.8189,1.87975 1.8189,1.87975zM1.1811,1.87975c0,-0.36618 0.28346,-0.65913 0.6378,-0.65913h0.3622c0.35433,0 0.6378,0.29295 0.6378,0.65913v5.24051c0,0.36618 -0.28346,0.65913 -0.6378,0.65913h-0.3622c-0.35433,0 -0.6378,-0.29295 -0.6378,-0.65913z" style="stroke-width: 0; stroke-linecap: butt; stroke-linejoin: miter; fill: rgb(68, 149, 235);" transform="translate(6, 0.000009999999974752427) rotate(0)" vector-effect="non-scaling-stroke"/></g><g><defs><path id="path-1681968448150213" d="M2.27362,9h0.45276c1.25,0 2.27362,-0.84629 2.27362,-1.87975v-5.24051c0,-1.03345 -1.02362,-1.87975 -2.27362,-1.87975h-0.45276c-1.25,0 -2.27362,0.84629 -2.27362,1.87975v5.24051c0,1.03345 1.02362,1.87975 2.27362,1.87975zM1.47638,1.87975c0,-0.36618 0.35433,-0.65913 0.79724,-0.65913h0.45276c0.44291,0 0.79724,0.29295 0.79724,0.65913v5.24051c0,0.36618 -0.35433,0.65913 -0.79724,0.65913h-0.45276c-0.44291,0 -0.79724,-0.29295 -0.79724,-0.65913z" vector-effect="non-scaling-stroke"/></defs><path d="M2.27362,9h0.45276c1.25,0 2.27362,-0.84629 2.27362,-1.87975v-5.24051c0,-1.03345 -1.02362,-1.87975 -2.27362,-1.87975h-0.45276c-1.25,0 -2.27362,0.84629 -2.27362,1.87975v5.24051c0,1.03345 1.02362,1.87975 2.27362,1.87975zM1.47638,1.87975c0,-0.36618 0.35433,-0.65913 0.79724,-0.65913h0.45276c0.44291,0 0.79724,0.29295 0.79724,0.65913v5.24051c0,0.36618 -0.35433,0.65913 -0.79724,0.65913h-0.45276c-0.44291,0 -0.79724,-0.29295 -0.79724,-0.65913z" style="stroke-width: 0; stroke-linecap: butt; stroke-linejoin: miter; fill: rgb(68, 149, 235);" transform="translate(25, 0.000009999999974752427) rotate(0)" vector-effect="non-scaling-stroke"/></g><g><defs><path id="path-1681968448149211" d="M4.43517,5c0.85842,0 1.56483,-0.61526 1.56483,-1.36293v-2.27414c0,-0.74766 -0.70641,-1.36293 -1.56483,-1.36293h-2.87034c-0.85842,0 -1.56483,0.61526 -1.56483,1.36293v2.27414c0,0.74766 0.70641,1.36293 1.56483,1.36293zM1.34128,3.63707v-2.27414c0,-0.10903 0.09836,-0.1947 0.22355,-0.1947h2.87034c0.12519,0 0.22355,0.08567 0.22355,0.1947v2.27414c0,0.10903 -0.09836,0.1947 -0.22355,0.1947h-2.87034c-0.12519,0 -0.22355,-0.08567 -0.22355,-0.1947z" vector-effect="non-scaling-stroke"/></defs><path d="M4.43517,5c0.85842,0 1.56483,-0.61526 1.56483,-1.36293v-2.27414c0,-0.74766 -0.70641,-1.36293 -1.56483,-1.36293h-2.87034c-0.85842,0 -1.56483,0.61526 -1.56483,1.36293v2.27414c0,0.74766 0.70641,1.36293 1.56483,1.36293zM1.34128,3.63707v-2.27414c0,-0.10903 0.09836,-0.1947 0.22355,-0.1947h2.87034c0.12519,0 0.22355,0.08567 0.22355,0.1947v2.27414c0,0.10903 -0.09836,0.1947 -0.22355,0.1947h-2.87034c-0.12519,0 -0.22355,-0.08567 -0.22355,-0.1947z" style="stroke-width: 0; stroke-linecap: butt; stroke-linejoin: miter; fill: rgb(68, 149, 235);" transform="translate(5, 16.000009999999975) rotate(0)" vector-effect="non-scaling-stroke"/></g><g><defs><path id="path-1681968448148209" d="M5,1.36293c0,-0.74766 -0.58867,-1.36293 -1.30402,-1.36293h-2.39195c-0.71535,0 -1.30402,0.61526 -1.30402,1.36293v2.27414c0,0.74766 0.58867,1.36293 1.30402,1.36293h2.39195c0.71535,0 1.30402,-0.61526 1.30402,-1.36293zM3.88227,3.63707c0,0.10903 -0.08197,0.1947 -0.18629,0.1947h-2.39195c-0.10432,0 -0.18629,-0.08567 -0.18629,-0.1947v-2.27414c0,-0.10903 0.08197,-0.1947 0.18629,-0.1947h2.39195c0.10432,0 0.18629,0.08567 0.18629,0.1947z" vector-effect="non-scaling-stroke"/></defs><path d="M5,1.36293c0,-0.74766 -0.58867,-1.36293 -1.30402,-1.36293h-2.39195c-0.71535,0 -1.30402,0.61526 -1.30402,1.36293v2.27414c0,0.74766 0.58867,1.36293 1.30402,1.36293h2.39195c0.71535,0 1.30402,-0.61526 1.30402,-1.36293zM3.88227,3.63707c0,0.10903 -0.08197,0.1947 -0.18629,0.1947h-2.39195c-0.10432,0 -0.18629,-0.08567 -0.18629,-0.1947v-2.27414c0,-0.10903 0.08197,-0.1947 0.18629,-0.1947h2.39195c0.10432,0 0.18629,0.08567 0.18629,0.1947z" style="stroke-width: 0; stroke-linecap: butt; stroke-linejoin: miter; fill: rgb(68, 149, 235);" transform="translate(15, 16.000009999999975) rotate(0)" vector-effect="non-scaling-stroke"/></g><g><defs><path id="path-1681968448147207" d="M3.69598,5c0.71535,0 1.30402,-0.61526 1.30402,-1.36293v-2.27414c0,-0.74766 -0.58867,-1.36293 -1.30402,-1.36293h-2.39195c-0.71535,0 -1.30402,0.61526 -1.30402,1.36293v2.27414c0,0.74766 0.58867,1.36293 1.30402,1.36293zM1.11773,3.63707v-2.27414c0,-0.10903 0.08197,-0.1947 0.18629,-0.1947h2.39195c0.10432,0 0.18629,0.08567 0.18629,0.1947v2.27414c0,0.10903 -0.08197,0.1947 -0.18629,0.1947h-2.39195c-0.10432,0 -0.18629,-0.08567 -0.18629,-0.1947z" vector-effect="non-scaling-stroke"/></defs><path d="M3.69598,5c0.71535,0 1.30402,-0.61526 1.30402,-1.36293v-2.27414c0,-0.74766 -0.58867,-1.36293 -1.30402,-1.36293h-2.39195c-0.71535,0 -1.30402,0.61526 -1.30402,1.36293v2.27414c0,0.74766 0.58867,1.36293 1.30402,1.36293zM1.11773,3.63707v-2.27414c0,-0.10903 0.08197,-0.1947 0.18629,-0.1947h2.39195c0.10432,0 0.18629,0.08567 0.18629,0.1947v2.27414c0,0.10903 -0.08197,0.1947 -0.18629,0.1947h-2.39195c-0.10432,0 -0.18629,-0.08567 -0.18629,-0.1947z" style="stroke-width: 0; stroke-linecap: butt; stroke-linejoin: miter; fill: rgb(68, 149, 235);" transform="translate(25, 16.000009999999975) rotate(0)" vector-effect="non-scaling-stroke"/></g><g><defs><path id="path-1681968448147205" d="M0,1.54672v3.90657c0,0.84848 0.66627,1.54672 1.4759,1.54672h4.04819c0.80964,0 1.4759,-0.69823 1.4759,-1.54672v-3.90657c0,-0.84848 -0.66627,-1.54672 -1.4759,-1.54672h-4.04819c-0.80964,0 -1.4759,0.69823 -1.4759,1.54672zM1.26506,1.54672c0,-0.12374 0.09277,-0.22096 0.21084,-0.22096h4.04819c0.11807,0 0.21084,0.09722 0.21084,0.22096v3.90657c0,0.12374 -0.09277,0.22096 -0.21084,0.22096h-4.04819c-0.11807,0 -0.21084,-0.09722 -0.21084,-0.22096z" vector-effect="non-scaling-stroke"/></defs><path d="M0,1.54672v3.90657c0,0.84848 0.66627,1.54672 1.4759,1.54672h4.04819c0.80964,0 1.4759,-0.69823 1.4759,-1.54672v-3.90657c0,-0.84848 -0.66627,-1.54672 -1.4759,-1.54672h-4.04819c-0.80964,0 -1.4759,0.69823 -1.4759,1.54672zM1.26506,1.54672c0,-0.12374 0.09277,-0.22096 0.21084,-0.22096h4.04819c0.11807,0 0.21084,0.09722 0.21084,0.22096v3.90657c0,0.12374 -0.09277,0.22096 -0.21084,0.22096h-4.04819c-0.11807,0 -0.21084,-0.09722 -0.21084,-0.22096z" style="stroke-width: 0; stroke-linecap: butt; stroke-linejoin: miter; fill: rgb(68, 149, 235);" transform="translate(5, 25.000009999999975) rotate(0)" vector-effect="non-scaling-stroke"/></g><g><defs><path id="path-1681968448146203" d="M3.69598,0h-2.39195c-0.71535,0 -1.30402,0.61526 -1.30402,1.36293v2.27414c0,0.74766 0.58867,1.36293 1.30402,1.36293h2.39195c0.71535,0 1.30402,-0.61526 1.30402,-1.36293v-2.27414c0,-0.74766 -0.58867,-1.36293 -1.30402,-1.36293zM3.88227,3.63707c0,0.10903 -0.08197,0.1947 -0.18629,0.1947h-2.39195c-0.10432,0 -0.18629,-0.08567 -0.18629,-0.1947v-2.27414c0,-0.10903 0.08197,-0.1947 0.18629,-0.1947h2.39195c0.10432,0 0.18629,0.08567 0.18629,0.1947z" vector-effect="non-scaling-stroke"/></defs><path d="M3.69598,0h-2.39195c-0.71535,0 -1.30402,0.61526 -1.30402,1.36293v2.27414c0,0.74766 0.58867,1.36293 1.30402,1.36293h2.39195c0.71535,0 1.30402,-0.61526 1.30402,-1.36293v-2.27414c0,-0.74766 -0.58867,-1.36293 -1.30402,-1.36293zM3.88227,3.63707c0,0.10903 -0.08197,0.1947 -0.18629,0.1947h-2.39195c-0.10432,0 -0.18629,-0.08567 -0.18629,-0.1947v-2.27414c0,-0.10903 0.08197,-0.1947 0.18629,-0.1947h2.39195c0.10432,0 0.18629,0.08567 0.18629,0.1947z" style="stroke-width: 0; stroke-linecap: butt; stroke-linejoin: miter; fill: rgb(68, 149, 235);" transform="translate(15, 26.000009999999975) rotate(0)" vector-effect="non-scaling-stroke"/></g><g><defs><path id="path-1681968448145201" d="M3.40966,4.97779v-2.72894c0.59586,0.15161 0.94345,0.61485 0.9931,1.12021h1.51448c-0.10759,-1.42343 -1.07586,-2.22358 -2.50759,-2.34992v-1.01914h-0.80276v1.03599c-1.53931,0.13476 -2.6069,1.11179 -2.6069,2.5268c0,1.77718 1.36552,2.13093 2.6069,2.451v2.77948c-0.69517,-0.12634 -1.04276,-0.58959 -1.09241,-1.22129h-1.51448c0,1.42343 1.09241,2.27412 2.6069,2.40888v1.01914h0.80276v-1.03599c1.67172,-0.15161 2.59034,-1.3392 2.59034,-2.56049c0,-1.77718 -1.34897,-2.12251 -2.59034,-2.42573zM2.6069,4.75881c-0.67034,-0.21057 -1.1669,-0.53905 -1.1669,-1.27182c0,-0.76646 0.48,-1.1876 1.1669,-1.27182v2.55207zM3.40966,8.78484v-2.56049c0.67034,0.21899 1.1669,0.53063 1.1669,1.24655c0,0.65697 -0.42207,1.1876 -1.1669,1.31394z" vector-effect="non-scaling-stroke"/></defs><path d="M3.40966,4.97779v-2.72894c0.59586,0.15161 0.94345,0.61485 0.9931,1.12021h1.51448c-0.10759,-1.42343 -1.07586,-2.22358 -2.50759,-2.34992v-1.01914h-0.80276v1.03599c-1.53931,0.13476 -2.6069,1.11179 -2.6069,2.5268c0,1.77718 1.36552,2.13093 2.6069,2.451v2.77948c-0.69517,-0.12634 -1.04276,-0.58959 -1.09241,-1.22129h-1.51448c0,1.42343 1.09241,2.27412 2.6069,2.40888v1.01914h0.80276v-1.03599c1.67172,-0.15161 2.59034,-1.3392 2.59034,-2.56049c0,-1.77718 -1.34897,-2.12251 -2.59034,-2.42573zM2.6069,4.75881c-0.67034,-0.21057 -1.1669,-0.53905 -1.1669,-1.27182c0,-0.76646 0.48,-1.1876 1.1669,-1.27182v2.55207zM3.40966,8.78484v-2.56049c0.67034,0.21899 1.1669,0.53063 1.1669,1.24655c0,0.65697 -0.42207,1.1876 -1.1669,1.31394z" style="stroke-width: 0; stroke-linecap: butt; stroke-linejoin: miter; fill: rgb(68, 149, 235);" transform="translate(32, 25.000009999999975) rotate(0)" vector-effect="non-scaling-stroke"/></g><g><defs><path id="path-1681968448144199" d="M9,0c-4.95989,0 -9,4.04011 -9,9c0,4.95989 4.04011,9 9,9c4.95989,0 9,-4.04011 9,-9c0,-4.95989 -4.04011,-9 -9,-9zM9,16.7106c-4.25501,0 -7.7106,-3.45559 -7.7106,-7.7106c0,-4.25501 3.45559,-7.7106 7.7106,-7.7106c4.25501,0 7.7106,3.45559 7.7106,7.7106c0,4.25501 -3.45559,7.7106 -7.7106,7.7106z" vector-effect="non-scaling-stroke"/></defs><path d="M9,0c-4.95989,0 -9,4.04011 -9,9c0,4.95989 4.04011,9 9,9c4.95989,0 9,-4.04011 9,-9c0,-4.95989 -4.04011,-9 -9,-9zM9,16.7106c-4.25501,0 -7.7106,-3.45559 -7.7106,-7.7106c0,-4.25501 3.45559,-7.7106 7.7106,-7.7106c4.25501,0 7.7106,3.45559 7.7106,7.7106c0,4.25501 -3.45559,7.7106 -7.7106,7.7106z" style="stroke-width: 0; stroke-linecap: butt; stroke-linejoin: miter; fill: rgb(68, 149, 235);" transform="translate(26, 22.000009999999975) rotate(0)" vector-effect="non-scaling-stroke"/></g><g><defs><path id="path-1681968448142197" d="M10.732307692307739 34.661052631582066 C10.660510674833738 34.661052631582066 10.602307692307738 34.60284964905607 10.602307692307738 34.531052631582064 C10.602307692307738 34.531052631582064 10.602307692307738 32.6605263157924 10.602307692307738 32.6605263157924 C10.602307692307738 32.5887292983184 10.660510674833738 32.5305263157924 10.732307692307739 32.5305263157924 C10.732307692307739 32.5305263157924 12.773846153846208 32.5305263157924 12.773846153846208 32.5305263157924 C12.845643171320209 32.5305263157924 12.903846153846208 32.5887292983184 12.903846153846208 32.6605263157924 C12.903846153846208 32.6605263157924 12.903846153846208 34.531052631582064 12.903846153846208 34.531052631582064 C12.903846153846208 34.60284964905607 12.845643171320209 34.661052631582066 12.773846153846208 34.661052631582066 C12.773846153846208 34.661052631582066 10.732307692307739 34.661052631582066 10.732307692307739 34.661052631582066 Z" vector-effect="non-scaling-stroke"/></defs> <path d="M7.2969230769230125 29.397904736842747 C7.225126059449012 29.397904736842747 7.166923076923013 29.33970175431675 7.166923076923013 29.26790473684275 C7.166923076923013 29.26790473684275 7.166923076923013 27.39737842105308 7.166923076923013 27.39737842105308 C7.166923076923013 27.32558140357908 7.225126059449012 27.26737842105308 7.2969230769230125 27.26737842105308 C7.2969230769230125 27.26737842105308 9.338461538461496 27.26737842105308 9.338461538461496 27.26737842105308 C9.410258555935497 27.26737842105308 9.468461538461497 27.32558140357908 9.468461538461497 27.39737842105308 C9.468461538461497 27.39737842105308 9.468461538461497 29.26790473684275 9.468461538461497 29.26790473684275 C9.468461538461497 29.33970175431675 9.410258555935497 29.397904736842747 9.338461538461496 29.397904736842747 C9.338461538461496 29.397904736842747 7.2969230769230125 29.397904736842747 7.2969230769230125 29.397904736842747 Z" style="stroke-width: 0; stroke-linecap: butt; stroke-linejoin: miter; fill: rgb(68, 149, 235);" vector-effect="non-scaling-stroke"/></g></svg>