<svg height="40.0000100000002" overflow="visible" viewBox="0 0 34.99999251135819 40.0000100000002" width="34.99999251135819" xmlns="http://www.w3.org/2000/svg"><g><defs><path id="path-1682337473344225" d="M25.98422,18.15386c-0.10021,-1.20821 -0.36228,-2.66748 -1.59558,-5.17805l-2.92138,-5.94691c-0.27749,-0.57272 -0.77081,-0.99638 -1.37205,-1.19252c-0.59353,-0.19614 -1.24101,-0.14907 -1.8037,0.14122c-0.46249,0.23537 -0.81706,0.61195 -1.0406,1.04346c-0.70144,-0.62764 -1.74204,-0.80809 -2.63618,-0.3452c-0.46249,0.23537 -0.81706,0.60411 -1.0483,1.05915c-0.23895,-0.20398 -0.51644,-0.36089 -0.82477,-0.45504c-0.60123,-0.18829 -1.25642,-0.13337 -1.83453,0.16476c-0.41624,0.21183 -0.74769,0.5335 -0.97893,0.91008l-3.46095,-7.03744c-0.27749,-0.57272 -0.7631,-0.99638 -1.35663,-1.19252c-0.59353,-0.20398 -1.22559,-0.15691 -1.78828,0.13337c-0.56269,0.28244 -0.97893,0.77671 -1.17163,1.38081c-0.20041,0.60411 -0.15416,1.24744 0.13104,1.82016l6.32837,12.86667c0.18499,0.41581 0.33145,1.11407 0.12333,1.27098c-0.21583,0.16476 -0.81706,-0.19614 -1.11768,-0.47073l-3.81552,-3.09898c-0.48561,-0.40012 -1.10226,-0.58057 -1.71891,-0.50996c-0.62436,0.07061 -1.17934,0.38443 -1.57246,0.8787c-0.80164,1.02776 -0.63977,2.53411 0.36999,3.35004l8.52518,6.9276c0.10021,0.07846 2.39723,1.91431 3.87718,2.66748c0.86331,0.43935 2.05036,0.65902 3.26824,0.65902c1.39517,0 2.852,-0.28244 3.94656,-0.83947c2.09661,-1.06699 3.57657,-2.79301 4.20863,-3.93846c0.98664,-1.80447 1.40288,-3.45988 1.27184,-5.05252zM23.70261,22.63366c-0.59353,1.08268 -1.97328,2.57333 -3.71531,3.45988c-1.74204,0.88654 -4.63258,0.97285 -6.18191,0.18045c-1.37975,-0.69825 -3.66136,-2.51841 -3.67677,-2.53411l-8.52518,-6.91976c-0.50874,-0.41581 -0.59353,-1.17683 -0.18499,-1.69463c0.20041,-0.25106 0.4779,-0.40797 0.79394,-0.4472c0.31603,-0.03923 0.62436,0.05492 0.87102,0.2589l3.78469,3.07545c0.15416,0.14122 1.49538,1.32589 2.5591,0.5178c1.05601,-0.80809 0.31603,-2.51841 0.22354,-2.7224l-6.33608,-12.88236c-0.13875,-0.29028 -0.16187,-0.61195 -0.06166,-0.91793c0.10021,-0.30598 0.30832,-0.55703 0.59353,-0.69825c0.2852,-0.14122 0.60894,-0.16476 0.90185,-0.06276c0.30062,0.10199 0.54728,0.31382 0.68602,0.60411l5.26465,10.70915v0l0.07708,0.15691c0.10021,0.20398 0.30832,0.32167 0.51644,0.32167c0.08479,0 0.17729,-0.02354 0.25437,-0.06276c0.2852,-0.14907 0.40082,-0.50211 0.25437,-0.7924l-0.99435,-2.0163c-0.29291,-0.59626 -0.02312,-1.34159 0.60894,-1.66325c0.30832,-0.15691 0.65519,-0.18829 0.97122,-0.0863c0.30832,0.09415 0.55498,0.30598 0.69373,0.58841l0.43936,0.89439v0l0.58582,1.18467c0.10021,0.20398 0.30832,0.32167 0.51644,0.32167c0.08479,0 0.17729,-0.02354 0.25437,-0.06276c0.2852,-0.14907 0.40082,-0.50211 0.26208,-0.7924l-0.03083,-0.06276v0l-0.43936,-0.88654l-0.11562,-0.23537c-0.13875,-0.29028 -0.16187,-0.61195 -0.06166,-0.91793c0.10791,-0.31382 0.32374,-0.56488 0.61665,-0.71394c0.60123,-0.30598 1.3258,-0.07061 1.61871,0.52565l0.45478,0.92577c0,0 0,0.00785 0,0.01569l0.11562,0.23537v0v0c0.14645,0.29028 0.48561,0.41581 0.77852,0.26675c0.2852,-0.14907 0.40082,-0.50211 0.25437,-0.7924l-0.13104,-0.2589c-0.27749,-0.58841 -0.03083,-1.31805 0.56269,-1.61618c0.29291,-0.14907 0.62436,-0.1726 0.93268,-0.07846c0.30062,0.10199 0.54728,0.31382 0.68602,0.59626l2.92138,5.94691c1.14851,2.33012 1.38746,3.65602 1.47996,4.74655c0.10791,1.35728 -0.25437,2.78516 -1.13309,4.38565z" vector-effect="non-scaling-stroke"/></defs><path d="M25.98422,18.15386c-0.10021,-1.20821 -0.36228,-2.66748 -1.59558,-5.17805l-2.92138,-5.94691c-0.27749,-0.57272 -0.77081,-0.99638 -1.37205,-1.19252c-0.59353,-0.19614 -1.24101,-0.14907 -1.8037,0.14122c-0.46249,0.23537 -0.81706,0.61195 -1.0406,1.04346c-0.70144,-0.62764 -1.74204,-0.80809 -2.63618,-0.3452c-0.46249,0.23537 -0.81706,0.60411 -1.0483,1.05915c-0.23895,-0.20398 -0.51644,-0.36089 -0.82477,-0.45504c-0.60123,-0.18829 -1.25642,-0.13337 -1.83453,0.16476c-0.41624,0.21183 -0.74769,0.5335 -0.97893,0.91008l-3.46095,-7.03744c-0.27749,-0.57272 -0.7631,-0.99638 -1.35663,-1.19252c-0.59353,-0.20398 -1.22559,-0.15691 -1.78828,0.13337c-0.56269,0.28244 -0.97893,0.77671 -1.17163,1.38081c-0.20041,0.60411 -0.15416,1.24744 0.13104,1.82016l6.32837,12.86667c0.18499,0.41581 0.33145,1.11407 0.12333,1.27098c-0.21583,0.16476 -0.81706,-0.19614 -1.11768,-0.47073l-3.81552,-3.09898c-0.48561,-0.40012 -1.10226,-0.58057 -1.71891,-0.50996c-0.62436,0.07061 -1.17934,0.38443 -1.57246,0.8787c-0.80164,1.02776 -0.63977,2.53411 0.36999,3.35004l8.52518,6.9276c0.10021,0.07846 2.39723,1.91431 3.87718,2.66748c0.86331,0.43935 2.05036,0.65902 3.26824,0.65902c1.39517,0 2.852,-0.28244 3.94656,-0.83947c2.09661,-1.06699 3.57657,-2.79301 4.20863,-3.93846c0.98664,-1.80447 1.40288,-3.45988 1.27184,-5.05252zM23.70261,22.63366c-0.59353,1.08268 -1.97328,2.57333 -3.71531,3.45988c-1.74204,0.88654 -4.63258,0.97285 -6.18191,0.18045c-1.37975,-0.69825 -3.66136,-2.51841 -3.67677,-2.53411l-8.52518,-6.91976c-0.50874,-0.41581 -0.59353,-1.17683 -0.18499,-1.69463c0.20041,-0.25106 0.4779,-0.40797 0.79394,-0.4472c0.31603,-0.03923 0.62436,0.05492 0.87102,0.2589l3.78469,3.07545c0.15416,0.14122 1.49538,1.32589 2.5591,0.5178c1.05601,-0.80809 0.31603,-2.51841 0.22354,-2.7224l-6.33608,-12.88236c-0.13875,-0.29028 -0.16187,-0.61195 -0.06166,-0.91793c0.10021,-0.30598 0.30832,-0.55703 0.59353,-0.69825c0.2852,-0.14122 0.60894,-0.16476 0.90185,-0.06276c0.30062,0.10199 0.54728,0.31382 0.68602,0.60411l5.26465,10.70915v0l0.07708,0.15691c0.10021,0.20398 0.30832,0.32167 0.51644,0.32167c0.08479,0 0.17729,-0.02354 0.25437,-0.06276c0.2852,-0.14907 0.40082,-0.50211 0.25437,-0.7924l-0.99435,-2.0163c-0.29291,-0.59626 -0.02312,-1.34159 0.60894,-1.66325c0.30832,-0.15691 0.65519,-0.18829 0.97122,-0.0863c0.30832,0.09415 0.55498,0.30598 0.69373,0.58841l0.43936,0.89439v0l0.58582,1.18467c0.10021,0.20398 0.30832,0.32167 0.51644,0.32167c0.08479,0 0.17729,-0.02354 0.25437,-0.06276c0.2852,-0.14907 0.40082,-0.50211 0.26208,-0.7924l-0.03083,-0.06276v0l-0.43936,-0.88654l-0.11562,-0.23537c-0.13875,-0.29028 -0.16187,-0.61195 -0.06166,-0.91793c0.10791,-0.31382 0.32374,-0.56488 0.61665,-0.71394c0.60123,-0.30598 1.3258,-0.07061 1.61871,0.52565l0.45478,0.92577c0,0 0,0.00785 0,0.01569l0.11562,0.23537v0v0c0.14645,0.29028 0.48561,0.41581 0.77852,0.26675c0.2852,-0.14907 0.40082,-0.50211 0.25437,-0.7924l-0.13104,-0.2589c-0.27749,-0.58841 -0.03083,-1.31805 0.56269,-1.61618c0.29291,-0.14907 0.62436,-0.1726 0.93268,-0.07846c0.30062,0.10199 0.54728,0.31382 0.68602,0.59626l2.92138,5.94691c1.14851,2.33012 1.38746,3.65602 1.47996,4.74655c0.10791,1.35728 -0.25437,2.78516 -1.13309,4.38565z" style="stroke-width: 0; stroke-linecap: butt; stroke-linejoin: miter; fill: rgb(68, 149, 235);" transform="translate(9, 12) rotate(0)" vector-effect="non-scaling-stroke"/></g><g><defs><path id="path-1682337473344223" d="M14.948888888888913 23.172739969159462 C15.158888888888912 23.172739969159462 15.368888888888911 23.055231145786443 15.470000000000026 22.851549185273207 C15.617777777777803 22.561694087619756 15.501111111111136 22.2091676175007 15.21333333333336 22.060323107894874 C12.965555555555577 20.90090271728108 11.565555555555575 18.605563700728098 11.565555555555575 16.067373115870875 C11.565555555555575 12.361928218841658 14.560000000000025 9.345868418934156 18.23888888888892 9.345868418934156 C21.917777777777815 9.345868418934156 24.912222222222262 12.361928218841658 24.912222222222262 16.067373115870875 C24.912222222222262 16.38856389975713 25.17666666666671 16.654917232735976 25.495555555555594 16.654917232735976 C25.814444444444483 16.654917232735976 26.07888888888893 16.38856389975713 26.07888888888893 16.067373115870875 C26.07888888888893 11.711712729510952 22.563333333333368 8.17078018520396 18.23888888888892 8.17078018520396 C13.914444444444468 8.17078018520396 10.398888888888907 11.71171272951095 10.398888888888907 16.067373115870875 C10.398888888888907 19.052097229545573 12.04000000000002 21.754800167125023 14.68444444444447 23.11006859669385 C14.770000000000026 23.157072126043058 14.863333333333356 23.172739969159462 14.948888888888913 23.172739969159462 Z" vector-effect="non-scaling-stroke"/></defs> <path d="M9.177777777777692 19.67097703264335 C9.387777777777728 19.67097703264335 9.597777777777765 19.55346820927025 9.69888888888886 19.349786248757027 C9.846666666666579 19.059931151103683 9.730000000000018 18.70740468098461 9.442222222222199 18.55856017137876 C7.194444444444457 17.399139780764926 5.794444444444366 15.103800764211883 5.794444444444366 12.565610179354735 C5.794444444444366 8.860165282325625 8.788888888888891 5.844105482417945 12.46777777777777 5.844105482417945 C16.146666666666647 5.844105482417945 19.14111111111106 8.860165282325625 19.14111111111106 12.565610179354735 C19.14111111111106 12.886800963241058 19.405555555555566 13.153154296219782 19.72444444444443 13.153154296219782 C20.043333333333294 13.153154296219782 20.3077777777778 12.886800963241058 20.3077777777778 12.565610179354735 C20.3077777777778 8.209949792994848 16.79222222222222 4.669017248687851 12.46777777777777 4.669017248687851 C8.143333333333317 4.669017248687851 4.627777777777737 8.209949792994848 4.627777777777737 12.565610179354735 C4.627777777777737 15.550334293029437 6.268888888888796 18.253037230608925 8.913333333333298 19.608305660177848 C8.998888888888814 19.65530918952686 9.092222222222176 19.67097703264335 9.177777777777692 19.67097703264335 Z" style="stroke-width: 0; stroke-linecap: butt; stroke-linejoin: miter; fill: rgb(68, 149, 235);" vector-effect="non-scaling-stroke"/></g><g><defs><path id="path-1682337473343221" d="M6.9377777777777725 16.06737311587064 C6.9377777777777725 9.784568026193288 12.008888888888878 4.676851170246112 18.246666666666652 4.676851170246112 C24.484444444444428 4.676851170246112 29.555555555555532 9.784568026193288 29.555555555555532 16.06737311587064 C29.555555555555532 16.388563899756893 29.81999999999998 16.65491723273573 30.138888888888864 16.65491723273573 C30.45777777777775 16.65491723273573 30.7222222222222 16.388563899756893 30.7222222222222 16.06737311587064 C30.7222222222222 9.14218645842079 25.12999999999998 3.501762936515934 18.246666666666652 3.501762936515934 C11.363333333333323 3.501762936515934 5.7711111111111055 9.142186458420788 5.7711111111111055 16.06737311587064 C5.7711111111111055 20.01566958120404 7.559999999999993 23.658443105767596 10.686666666666659 26.063457024135364 C10.795555555555547 26.141796239717376 10.919999999999991 26.18096584750838 11.036666666666656 26.18096584750838 C11.215555555555545 26.18096584750838 11.386666666666656 26.102626631926366 11.503333333333323 25.953782122320543 C11.697777777777766 25.695262710899907 11.6511111111111 25.32706839766445 11.394444444444433 25.13122035870942 C8.563333333333324 22.95339016552949 6.937777777777771 19.65530918952679 6.937777777777771 16.075207037428843 C6.937777777777771 16.075207037428843 6.9377777777777725 16.06737311587064 6.9377777777777725 16.06737311587064 Z" vector-effect="non-scaling-stroke"/></defs> <path d="M1.1666666666667425 12.565610179354735 C1.1666666666667425 6.2828050896773675 6.237777777777865 1.175088233730321 12.475555555555616 1.175088233730321 C18.713333333333367 1.175088233730321 23.78444444444449 6.2828050896773675 23.78444444444449 12.565610179354735 C23.78444444444449 12.886800963241058 24.048888888888882 13.153154296219782 24.36777777777786 13.153154296219782 C24.686666666666724 13.153154296219782 24.951111111111118 12.886800963241058 24.951111111111118 12.565610179354735 C24.951111111111118 5.64042352190495 19.35888888888894 0 12.475555555555616 0 C5.59222222222229 0 0 5.64042352190495 0 12.565610179354735 C0 16.513906644688177 1.7888888888888914 20.156680169251786 4.915555555555557 22.56169408761957 C5.024444444444498 22.640033303201562 5.148888888888905 22.679202910992444 5.265555555555579 22.679202910992444 C5.444444444444457 22.679202910992444 5.615555555555602 22.600863695410453 5.732222222222276 22.452019185804602 C5.926666666666733 22.19349977438401 5.8799999999999955 21.825305461148673 5.623333333333335 21.629457422193582 C2.7922222222222217 19.45162722901364 1.1666666666667425 16.153546253010973 1.1666666666667425 12.573444100912866 C1.1666666666667425 12.573444100912866 1.1666666666667425 12.565610179354735 1.1666666666667425 12.565610179354735 Z" style="stroke-width: 0; stroke-linecap: butt; stroke-linejoin: miter; fill: rgb(68, 149, 235);" vector-effect="non-scaling-stroke"/></g></svg>