<svg version="1.2" xmlns="http://www.w3.org/2000/svg" xmlns:xlink="http://www.w3.org/1999/xlink" overflow="visible" preserveAspectRatio="none" viewBox="0 0 1557 800" width="1557" height="800"><g transform="translate(0, 0)"><g transform="rotate(0) translate(-120,-5590) translate(-627, 5217) rotate(0)"><g transform="translate(0, 0)"><path d="M1556.9999999999973 0 C1556.9999999999973 0 -5.90034687775186e-13 0 -5.90034687775186e-13 0 C-5.90034687775186e-13 0 -5.90034687775186e-13 799.9999999999986 -5.90034687775186e-13 799.9999999999986 C-5.90034687775186e-13 799.9999999999986 1556.9999999999973 799.9999999999986 1556.9999999999973 799.9999999999986 C1556.9999999999973 799.9999999999986 1556.9999999999973 0 1556.9999999999973 0 Z" style="stroke: rgb(140, 140, 140); stroke-width: 0; stroke-linecap: butt; stroke-linejoin: miter; fill: url(&quot;#gradient-16826551285476310&quot;);" vector-effect="non-scaling-stroke"/></g></g><defs><path id="path-1682655128013957" d="M1556.9999999999973 0 C1556.9999999999973 0 -5.90034687775186e-13 0 -5.90034687775186e-13 0 C-5.90034687775186e-13 0 -5.90034687775186e-13 799.9999999999986 -5.90034687775186e-13 799.9999999999986 C-5.90034687775186e-13 799.9999999999986 1556.9999999999973 799.9999999999986 1556.9999999999973 799.9999999999986 C1556.9999999999973 799.9999999999986 1556.9999999999973 0 1556.9999999999973 0 Z" vector-effect="non-scaling-stroke"/><radialGradient id="gradient-16826551285476310" vector-effect="non-scaling-stroke"><stop offset="0%" stop-color="rgb(49,130,196)" stop-opacity="1" vector-effect="non-scaling-stroke"/><stop offset="100%" stop-color="rgba(49,130,196,0)" stop-opacity="0" vector-effect="non-scaling-stroke"/></radialGradient></defs></g></svg>