<svg height="40.00001999999995" overflow="visible" viewBox="0 0 43.000009333923344 40.00001999999995" width="43.000009333923344" xmlns="http://www.w3.org/2000/svg"><g><defs><path id="path-1681968448140195" d="M20.165208333333315 14.06760770452188 C19.90541666666665 13.807925576303463 19.47541666666665 13.807925576303463 19.215624999999985 14.06760770452188 C19.215624999999985 14.06760770452188 16.313124999999985 16.968883895651793 16.313124999999985 16.968883895651793 C16.313124999999985 16.968883895651793 13.410624999999989 14.067607704521881 13.410624999999989 14.067607704521881 C13.150833333333322 13.807925576303465 12.720833333333323 13.807925576303465 12.461041666666656 14.067607704521881 C12.20124999999999 14.327289832740297 12.201249999999991 14.75710852772251 12.461041666666656 15.016790655940927 C12.461041666666656 15.016790655940927 15.363541666666652 17.91806684707084 15.363541666666652 17.91806684707084 C15.363541666666652 17.91806684707084 12.461041666666654 20.81934303820075 12.461041666666654 20.81934303820075 C12.20124999999999 21.079025166419168 12.20124999999999 21.508843861401377 12.461041666666654 21.768525989619793 C12.595416666666653 21.90284433180173 12.765624999999986 21.96552622481997 12.935833333333319 21.96552622481997 C13.106041666666652 21.96552622481997 13.276249999999987 21.90284433180173 13.410624999999985 21.768525989619793 C13.410624999999985 21.768525989619793 16.313124999999985 18.867249798489883 16.313124999999985 18.867249798489883 C16.313124999999985 18.867249798489883 19.215624999999978 21.768525989619796 19.215624999999978 21.768525989619796 C19.349999999999977 21.902844331801735 19.52020833333331 21.965526224819975 19.690416666666646 21.965526224819975 C19.86062499999998 21.965526224819975 20.030833333333312 21.902844331801735 20.165208333333315 21.768525989619796 C20.42499999999998 21.50884386140138 20.42499999999998 21.07902516641917 20.165208333333315 20.819343038200753 C20.165208333333315 20.819343038200753 17.262708333333315 17.918066847070843 17.262708333333315 17.918066847070843 C17.262708333333315 17.918066847070843 20.165208333333315 15.016790655940932 20.165208333333315 15.016790655940932 C20.42499999999998 14.757108527722515 20.424999999999983 14.327289832740297 20.165208333333315 14.06760770452188 Z" vector-effect="non-scaling-stroke"/></defs> <path d="M14.924583333333203 7.199463140951366 C14.664791666666588 6.939781012732965 14.234791666666524 6.939781012732965 13.974999999999909 7.199463140951366 C13.974999999999909 7.199463140951366 11.072499999999764 10.100739332081275 11.072499999999764 10.100739332081275 C11.072499999999764 10.100739332081275 8.169999999999845 7.199463140951366 8.169999999999845 7.199463140951366 C7.91020833333323 6.939781012732965 7.480208333333167 6.939781012732965 7.2204166666665515 7.199463140951366 C6.960624999999936 7.459145269169767 6.960624999999936 7.888963964152026 7.2204166666665515 8.148646092370427 C7.2204166666665515 8.148646092370427 10.12291666666647 11.049922283500337 10.12291666666647 11.049922283500337 C10.12291666666647 11.049922283500337 7.2204166666665515 13.951198474630246 7.2204166666665515 13.951198474630246 C6.960624999999936 14.210880602848647 6.960624999999936 14.640699297830906 7.2204166666665515 14.900381426049307 C7.354791666666415 15.034699768231349 7.524999999999864 15.097381661249528 7.695208333333085 15.097381661249528 C7.865416666666533 15.097381661249528 8.035624999999754 15.034699768231349 8.169999999999845 14.900381426049307 C8.169999999999845 14.900381426049307 11.072499999999764 11.999105234919398 11.072499999999764 11.999105234919398 C11.072499999999764 11.999105234919398 13.974999999999909 14.900381426049307 13.974999999999909 14.900381426049307 C14.109374999999773 15.034699768231349 14.279583333333221 15.097381661249528 14.449791666666442 15.097381661249528 C14.61999999999989 15.097381661249528 14.790208333333112 15.034699768231349 14.924583333333203 14.900381426049307 C15.184374999999818 14.640699297830906 15.184374999999818 14.210880602848647 14.924583333333203 13.951198474630246 C14.924583333333203 13.951198474630246 12.022083333333285 11.049922283500337 12.022083333333285 11.049922283500337 C12.022083333333285 11.049922283500337 14.924583333333203 8.148646092370427 14.924583333333203 8.148646092370427 C15.184374999999818 7.888963964152026 15.184374999999818 7.459145269169767 14.924583333333203 7.199463140951366 Z" style="stroke-width: 0; stroke-linecap: butt; stroke-linejoin: miter; fill: rgb(68, 149, 235);" vector-effect="non-scaling-stroke"/></g><g><defs><path id="path-1681968448138193" d="M29.99958,20.75804c-0.11563,-1.38059 -0.41803,-3.04806 -1.84111,-5.91682l-3.37093,-6.79538c-0.66707,-1.34473 -2.31251,-1.88263 -3.66444,-1.20129c-0.53366,0.26895 -0.94279,0.69926 -1.20073,1.19233c-0.80938,-0.71719 -2.01011,-0.91442 -3.04184,-0.39445c-0.53366,0.26895 -0.94279,0.6903 -1.20962,1.21026c-0.81827,-0.6903 -2.019,-0.86959 -3.06852,-0.34067c-0.4714,0.24205 -0.86274,0.60065 -1.13847,1.03096l-3.99353,-8.0415c-0.32019,-0.65444 -0.88053,-1.13854 -1.56539,-1.36266c-0.68486,-0.22412 -1.41419,-0.1793 -2.06347,0.1524c-0.64928,0.32274 -1.12957,0.88752 -1.35193,1.57782c-0.23125,0.6903 -0.17789,1.42542 0.1512,2.07985l7.3022,14.70241c0.21346,0.47514 0.38245,1.27301 0.14231,1.45231c-0.24904,0.18826 -0.94279,-0.22412 -1.28967,-0.53789l-4.40266,-3.54113c-0.56034,-0.45721 -1.27188,-0.6634 -1.98342,-0.57375c-0.72044,0.08068 -1.36082,0.43928 -1.81443,1.00407c-0.45361,0.56479 -0.65818,1.28198 -0.57813,1.99917c0.08005,0.71719 0.43582,1.37163 0.99616,1.82884l9.83706,7.91599c0.11563,0.08965 2.76612,2.18743 4.47382,3.04806c0.99616,0.50203 2.36588,0.75305 3.77117,0.75305c1.60986,0 3.29088,-0.32274 4.55387,-0.95924c2.41924,-1.21922 4.12694,-3.1915 4.85627,-4.50037c1.13847,-2.06192 1.61876,-3.95351 1.46755,-5.77338zM27.36687,25.87698c-0.68486,1.23715 -2.27693,2.94048 -4.28704,3.95351c-2.01011,1.01303 -5.34546,1.11165 -7.13321,0.20619c-1.59207,-0.80684 -4.22478,-2.87773 -4.24257,-2.89566l-9.83706,-7.90703c-0.28462,-0.23309 -0.4625,-0.55582 -0.50697,-0.92338c-0.04447,-0.36756 0.06226,-0.72616 0.29351,-1.01303c0.23125,-0.28688 0.55144,-0.46617 0.91611,-0.511c0.35577,-0.04482 0.72044,0.06275 1.00505,0.29584l4.36709,3.51423c0.17789,0.16137 1.73438,1.51507 2.9529,0.59168c1.21852,-0.92338 0.36467,-2.87773 0.25793,-3.11081l-7.31109,-14.72034c-0.1601,-0.3317 -0.18678,-0.69926 -0.07115,-1.04889c0.11563,-0.34963 0.35577,-0.63651 0.68486,-0.79787c0.32909,-0.16137 0.70265,-0.18826 1.04063,-0.07172c0.34688,0.11654 0.63149,0.3586 0.79159,0.6903l6.07479,12.23707v0l0.08894,0.1793c0.11563,0.23309 0.35577,0.36756 0.59592,0.36756c0.09784,0 0.20457,-0.02689 0.29351,-0.07172c0.32909,-0.17033 0.4625,-0.57375 0.29351,-0.90545l-1.14736,-2.30397c-0.1601,-0.32274 -0.17789,-0.69926 -0.05337,-1.04889c0.13341,-0.36756 0.40024,-0.6634 0.75601,-0.8427c0.72044,-0.36756 1.59207,-0.10758 1.93006,0.57375l0.64039,1.29094l0.54255,1.08475c0.11563,0.23309 0.35577,0.36756 0.59592,0.36756c0.09784,0 0.20457,-0.02689 0.29351,-0.07172c0.32909,-0.17033 0.4625,-0.57375 0.30241,-0.90545l-0.03558,-0.07172v0l-0.44471,-0.90545l-0.18678,-0.38549c-0.1601,-0.32274 -0.18678,-0.69926 -0.07115,-1.04889c0.12452,-0.3586 0.37356,-0.64547 0.71154,-0.8158c0.69375,-0.34963 1.52981,-0.08068 1.8678,0.60065l0.52476,1.06682c0,0 0,0.00896 0,0.01793l0.13341,0.26895v0v0c0.16899,0.34067 0.56034,0.47514 0.89832,0.30481c0.33798,-0.17033 0.4625,-0.57375 0.30241,-0.90545l-0.14231,-0.29584c-0.32909,-0.68133 -0.03558,-1.5061 0.64928,-1.85573c0.33798,-0.17033 0.72044,-0.19723 1.07621,-0.08965c0.34688,0.11654 0.63149,0.3586 0.79159,0.68133l3.37093,6.79538c1.32525,2.66257 1.60097,4.17764 1.7077,5.42375c0.12452,1.55092 -0.29351,3.18253 -1.30746,5.01137z" vector-effect="non-scaling-stroke"/></defs><path d="M29.99958,20.75804c-0.11563,-1.38059 -0.41803,-3.04806 -1.84111,-5.91682l-3.37093,-6.79538c-0.66707,-1.34473 -2.31251,-1.88263 -3.66444,-1.20129c-0.53366,0.26895 -0.94279,0.69926 -1.20073,1.19233c-0.80938,-0.71719 -2.01011,-0.91442 -3.04184,-0.39445c-0.53366,0.26895 -0.94279,0.6903 -1.20962,1.21026c-0.81827,-0.6903 -2.019,-0.86959 -3.06852,-0.34067c-0.4714,0.24205 -0.86274,0.60065 -1.13847,1.03096l-3.99353,-8.0415c-0.32019,-0.65444 -0.88053,-1.13854 -1.56539,-1.36266c-0.68486,-0.22412 -1.41419,-0.1793 -2.06347,0.1524c-0.64928,0.32274 -1.12957,0.88752 -1.35193,1.57782c-0.23125,0.6903 -0.17789,1.42542 0.1512,2.07985l7.3022,14.70241c0.21346,0.47514 0.38245,1.27301 0.14231,1.45231c-0.24904,0.18826 -0.94279,-0.22412 -1.28967,-0.53789l-4.40266,-3.54113c-0.56034,-0.45721 -1.27188,-0.6634 -1.98342,-0.57375c-0.72044,0.08068 -1.36082,0.43928 -1.81443,1.00407c-0.45361,0.56479 -0.65818,1.28198 -0.57813,1.99917c0.08005,0.71719 0.43582,1.37163 0.99616,1.82884l9.83706,7.91599c0.11563,0.08965 2.76612,2.18743 4.47382,3.04806c0.99616,0.50203 2.36588,0.75305 3.77117,0.75305c1.60986,0 3.29088,-0.32274 4.55387,-0.95924c2.41924,-1.21922 4.12694,-3.1915 4.85627,-4.50037c1.13847,-2.06192 1.61876,-3.95351 1.46755,-5.77338zM27.36687,25.87698c-0.68486,1.23715 -2.27693,2.94048 -4.28704,3.95351c-2.01011,1.01303 -5.34546,1.11165 -7.13321,0.20619c-1.59207,-0.80684 -4.22478,-2.87773 -4.24257,-2.89566l-9.83706,-7.90703c-0.28462,-0.23309 -0.4625,-0.55582 -0.50697,-0.92338c-0.04447,-0.36756 0.06226,-0.72616 0.29351,-1.01303c0.23125,-0.28688 0.55144,-0.46617 0.91611,-0.511c0.35577,-0.04482 0.72044,0.06275 1.00505,0.29584l4.36709,3.51423c0.17789,0.16137 1.73438,1.51507 2.9529,0.59168c1.21852,-0.92338 0.36467,-2.87773 0.25793,-3.11081l-7.31109,-14.72034c-0.1601,-0.3317 -0.18678,-0.69926 -0.07115,-1.04889c0.11563,-0.34963 0.35577,-0.63651 0.68486,-0.79787c0.32909,-0.16137 0.70265,-0.18826 1.04063,-0.07172c0.34688,0.11654 0.63149,0.3586 0.79159,0.6903l6.07479,12.23707v0l0.08894,0.1793c0.11563,0.23309 0.35577,0.36756 0.59592,0.36756c0.09784,0 0.20457,-0.02689 0.29351,-0.07172c0.32909,-0.17033 0.4625,-0.57375 0.29351,-0.90545l-1.14736,-2.30397c-0.1601,-0.32274 -0.17789,-0.69926 -0.05337,-1.04889c0.13341,-0.36756 0.40024,-0.6634 0.75601,-0.8427c0.72044,-0.36756 1.59207,-0.10758 1.93006,0.57375l0.64039,1.29094l0.54255,1.08475c0.11563,0.23309 0.35577,0.36756 0.59592,0.36756c0.09784,0 0.20457,-0.02689 0.29351,-0.07172c0.32909,-0.17033 0.4625,-0.57375 0.30241,-0.90545l-0.03558,-0.07172v0l-0.44471,-0.90545l-0.18678,-0.38549c-0.1601,-0.32274 -0.18678,-0.69926 -0.07115,-1.04889c0.12452,-0.3586 0.37356,-0.64547 0.71154,-0.8158c0.69375,-0.34963 1.52981,-0.08068 1.8678,0.60065l0.52476,1.06682c0,0 0,0.00896 0,0.01793l0.13341,0.26895v0v0c0.16899,0.34067 0.56034,0.47514 0.89832,0.30481c0.33798,-0.17033 0.4625,-0.57375 0.30241,-0.90545l-0.14231,-0.29584c-0.32909,-0.68133 -0.03558,-1.5061 0.64928,-1.85573c0.33798,-0.17033 0.72044,-0.19723 1.07621,-0.08965c0.34688,0.11654 0.63149,0.3586 0.79159,0.68133l3.37093,6.79538c1.32525,2.66257 1.60097,4.17764 1.7077,5.42375c0.12452,1.55092 -0.29351,3.18253 -1.30746,5.01137z" style="stroke-width: 0; stroke-linecap: butt; stroke-linejoin: miter; fill: rgb(68, 149, 235);" transform="translate(13, 8) rotate(0)" vector-effect="non-scaling-stroke"/></g><g><defs><path id="path-1681968448137191" d="M22.673541666666654 26.156258500895568 C22.467499999999987 25.851803591949846 22.046458333333323 25.771212586640686 21.74187499999999 25.97716737798632 C20.138333333333325 27.06066867158727 18.257083333333323 27.63376026489686 16.30416666666666 27.63376026489686 C10.947083333333328 27.63376026489686 6.584374999999997 23.272891422056688 6.584374999999997 17.918066847070197 C6.584374999999997 12.563242272083706 10.947083333333328 8.202373429243531 16.30416666666666 8.202373429243531 C19.85166666666666 8.202373429243531 23.112499999999986 10.136557556663401 24.823541666666657 13.243788539138842 C25.002708333333324 13.566152560375487 25.414791666666655 13.682561790266499 25.737291666666657 13.512425223502714 C26.059791666666655 13.333334100593468 26.18520833333332 12.921424517902198 26.006041666666658 12.599060496665553 C24.062083333333323 9.06201081920792 20.344374999999992 6.86814456356964 16.30416666666666 6.86814456356964 C10.203541666666666 6.86814456356964 5.2406250000000005 11.82896866815579 5.2406250000000005 17.927021403215658 C5.2406250000000005 24.025074138275528 10.203541666666666 28.98589824286168 16.30416666666666 28.98589824286168 C18.51687499999999 28.98589824286168 20.657916666666658 28.332215644242925 22.49437499999999 27.096486896169118 C22.798958333333324 26.890532104823485 22.879583333333326 26.469667965986755 22.673541666666658 26.165213057041033 C22.673541666666658 26.165213057041033 22.673541666666654 26.156258500895568 22.673541666666654 26.156258500895568 Z" vector-effect="non-scaling-stroke"/></defs> <path d="M17.432916666666642 19.28811393732599 C17.226875000000064 18.983659028380316 16.80583333333334 18.903068023071228 16.501250000000027 19.109022814416676 C14.897708333333412 20.19252410801778 13.016458333333503 20.765615701327306 11.063541666666652 20.765615701327306 C5.70645833333333 20.765615701327306 1.34375 16.404746858487215 1.34375 11.049922283500564 C1.34375 5.69509770851414 5.70645833333333 1.3342288656740493 11.063541666666652 1.3342288656740493 C14.611041666666779 1.3342288656740493 17.871875000000045 3.2684129930937615 19.582916666666733 6.375643975569346 C19.76208333333352 6.698007996805927 20.17416666666668 6.814417226696833 20.49666666666667 6.644280659933202 C20.81916666666666 6.465189537023889 20.944583333333412 6.053279954332538 20.76541666666685 5.730915933095957 C18.82145833333334 2.1938662556383406 15.103749999999991 0 11.063541666666652 0 C4.9629166666668425 0 0 4.960824104586209 0 11.058876839646018 C0 17.156929574706055 4.9629166666668425 22.117753679292036 11.063541666666652 22.117753679292036 C13.276250000000118 22.117753679292036 15.417291666666642 21.46407108067342 17.253750000000082 20.228342332599595 C17.558333333333394 20.02238754125392 17.63895833333345 19.601523402417115 17.432916666666642 19.297068493471443 C17.432916666666642 19.297068493471443 17.432916666666642 19.28811393732599 17.432916666666642 19.28811393732599 Z" style="stroke-width: 0; stroke-linecap: butt; stroke-linejoin: miter; fill: rgb(68, 149, 235);" vector-effect="non-scaling-stroke"/></g></svg>