<svg version="1.2" xmlns="http://www.w3.org/2000/svg" xmlns:xlink="http://www.w3.org/1999/xlink" overflow="visible" preserveAspectRatio="none" viewBox="0 0 600 600" width="600" height="600"><g transform="translate(0, 0)"><g transform="rotate(0) translate(-174,-4220.5) translate(-126, 3921.0000000000005) rotate(0)"><g transform="translate(0, 0)"><path d="M0 0 C0 0 600.0000000000002 0 600.0000000000002 0 C600.0000000000002 0 600.0000000000002 599.9999999999994 600.0000000000002 599.9999999999994 C600.0000000000002 599.9999999999994 0 599.9999999999994 0 599.9999999999994 C0 599.9999999999994 0 0 0 0 Z" style="stroke: rgb(140, 140, 140); stroke-width: 0; stroke-linecap: butt; stroke-linejoin: miter; fill: url(&quot;#gradient-16825740835953432&quot;);" vector-effect="non-scaling-stroke"/></g></g><defs><path id="path-1682574082949300" d="M0 0 C0 0 600.0000000000002 0 600.0000000000002 0 C600.0000000000002 0 600.0000000000002 599.9999999999994 600.0000000000002 599.9999999999994 C600.0000000000002 599.9999999999994 0 599.9999999999994 0 599.9999999999994 C0 599.9999999999994 0 0 0 0 Z" vector-effect="non-scaling-stroke"/><radialGradient id="gradient-16825740835953432" vector-effect="non-scaling-stroke"><stop offset="0%" stop-color="rgb(49,130,196)" stop-opacity="1" vector-effect="non-scaling-stroke"/><stop offset="100%" stop-color="rgba(49,130,196,0)" stop-opacity="0" vector-effect="non-scaling-stroke"/></radialGradient></defs></g></svg>