<svg version="1.2" xmlns="http://www.w3.org/2000/svg" xmlns:xlink="http://www.w3.org/1999/xlink" overflow="visible" preserveAspectRatio="none" viewBox="0 0 54 13" width="54" height="13"><g transform="translate(0, 0)"><defs><path id="path-16819684490181061" d="M59.41901408450707 10.948299319727889 C59.41901408450707 10.948299319727889 50.78661971830986 4.439455782312924 50.78661971830986 4.439455782312924 C50.78661971830986 4.439455782312924 50.78661971830986 9.179591836734694 50.78661971830986 9.179591836734694 C50.78661971830986 9.179591836734694 5.419014084507042 10.948299319727889 5.419014084507042 10.948299319727889 C5.419014084507042 10.948299319727889 50.78661971830986 12.717006802721087 50.78661971830986 12.717006802721087 C50.78661971830986 12.717006802721087 50.78661971830986 17.439455782312923 50.78661971830986 17.439455782312923 C50.78661971830986 17.439455782312923 59.41901408450707 10.948299319727889 59.41901408450707 10.948299319727889 Z" vector-effect="non-scaling-stroke"/></defs><g transform="translate(-5.419014084507042, -4.439455782312924)"><path d="M59.41901408450707 10.948299319727889 C59.41901408450707 10.948299319727889 50.78661971830986 4.439455782312924 50.78661971830986 4.439455782312924 C50.78661971830986 4.439455782312924 50.78661971830986 9.179591836734694 50.78661971830986 9.179591836734694 C50.78661971830986 9.179591836734694 5.419014084507042 10.948299319727889 5.419014084507042 10.948299319727889 C5.419014084507042 10.948299319727889 50.78661971830986 12.717006802721087 50.78661971830986 12.717006802721087 C50.78661971830986 12.717006802721087 50.78661971830986 17.439455782312923 50.78661971830986 17.439455782312923 C50.78661971830986 17.439455782312923 59.41901408450707 10.948299319727889 59.41901408450707 10.948299319727889 Z" style="stroke-width: 0; stroke-linecap: butt; stroke-linejoin: miter; fill: rgb(107, 190, 252);" vector-effect="non-scaling-stroke"/></g></g></svg>