<svg height="5230" overflow="visible" viewBox="-1 -1 284.9999999999998 5230" width="284.9999999999998" xmlns="http://www.w3.org/2000/svg"><g><defs><path id="path-16817933303841487" d="M-1152 -509.5084745762719 C-1152 -509.5084745762719 -1152 4718.49152542373 -1152 4718.49152542373" vector-effect="non-scaling-stroke"/></defs> <path style="stroke: rgb(72, 129, 191); stroke-width: 1; stroke-linecap: butt; stroke-linejoin: miter; fill: none;" d="M-2.2737367544323206e-13 0 C-2.2737367544323206e-13 0 -2.2737367544323206e-13 5228.000000000002 -2.2737367544323206e-13 5228.000000000002" vector-effect="non-scaling-stroke"/></g><g><defs><path id="path-16817933303841484" d="M-1152 -509.5084745762719 C-1152 -509.5084745762719 -1152 4718.49152542373 -1152 4718.49152542373" vector-effect="non-scaling-stroke"/></defs> <path style="stroke: rgb(72, 129, 191); stroke-width: 1; stroke-linecap: butt; stroke-linejoin: miter; fill: none;" d="M46.99999999999977 0 C46.99999999999977 0 46.99999999999977 5228.000000000002 46.99999999999977 5228.000000000002" vector-effect="non-scaling-stroke"/></g><g><defs><path id="path-16817933303831481" d="M-1152 -509.5084745762719 C-1152 -509.5084745762719 -1152 4718.49152542373 -1152 4718.49152542373" vector-effect="non-scaling-stroke"/></defs> <path style="stroke: rgb(72, 129, 191); stroke-width: 1; stroke-linecap: butt; stroke-linejoin: miter; fill: none;" d="M93.99999999999977 0 C93.99999999999977 0 93.99999999999977 5228.000000000002 93.99999999999977 5228.000000000002" vector-effect="non-scaling-stroke"/></g><g><defs><path id="path-16817933303831478" d="M-1152 -509.5084745762719 C-1152 -509.5084745762719 -1152 4718.49152542373 -1152 4718.49152542373" vector-effect="non-scaling-stroke"/></defs> <path style="stroke: rgb(72, 129, 191); stroke-width: 1; stroke-linecap: butt; stroke-linejoin: miter; fill: none;" d="M140.99999999999977 0 C140.99999999999977 0 140.99999999999977 5228.000000000002 140.99999999999977 5228.000000000002" vector-effect="non-scaling-stroke"/></g><g><defs><path id="path-16817933303821475" d="M-1152 -509.5084745762719 C-1152 -509.5084745762719 -1152 4718.49152542373 -1152 4718.49152542373" vector-effect="non-scaling-stroke"/></defs> <path style="stroke: rgb(72, 129, 191); stroke-width: 1; stroke-linecap: butt; stroke-linejoin: miter; fill: none;" d="M187.99999999999977 0 C187.99999999999977 0 187.99999999999977 5228.000000000002 187.99999999999977 5228.000000000002" vector-effect="non-scaling-stroke"/></g><g><defs><path id="path-16817933303811472" d="M-1152 -509.5084745762719 C-1152 -509.5084745762719 -1152 4718.49152542373 -1152 4718.49152542373" vector-effect="non-scaling-stroke"/></defs> <path style="stroke: rgb(72, 129, 191); stroke-width: 1; stroke-linecap: butt; stroke-linejoin: miter; fill: none;" d="M234.99999999999977 0 C234.99999999999977 0 234.99999999999977 5228.000000000002 234.99999999999977 5228.000000000002" vector-effect="non-scaling-stroke"/></g><g><defs><path id="path-16817933303811469" d="M-1152 -509.5084745762719 C-1152 -509.5084745762719 -1152 4718.49152542373 -1152 4718.49152542373" vector-effect="non-scaling-stroke"/></defs> <path style="stroke: rgb(72, 129, 191); stroke-width: 1; stroke-linecap: butt; stroke-linejoin: miter; fill: none;" d="M281.9999999999998 0 C281.9999999999998 0 281.9999999999998 5228.000000000002 281.9999999999998 5228.000000000002" vector-effect="non-scaling-stroke"/></g></svg>